<ttFont>
          <CharString index="0">
            88 callsubr
            -34 45 53 60 39 42 61 6 6 0 -1 6 vhcurveto
            95 vlineto
            1 -8 -7 0 -8 180 callsubr
            -111 77 -79 116 47 36 17 25 27 hvcurveto
            107 callgsubr
            return
          </CharString>
          <CharString index="1">
            -92 callsubr
            40 40 return
          </CharString>
          <CharString index="2">
            212 callsubr
            39 56 -15 vhcurveto
            72 23 66 49 94 42 callgsubr
            hlineto
            return
          </CharString>
          <CharString index="3">
            -68 -33 -35 -52 -48 18 -48 14 -25 hvcurveto
            94 hlineto
            -6 25 -4 28 18 vvcurveto
            33 10 10 24 vhcurveto
            return
          </CharString>
          <CharString index="4">
            rmoveto
            -37 -30 -30 -38 -37 30 -30 37 38 30 30 37 38 -30 30 -38 hvcurveto
            return
          </CharString>
          <CharString index="5">
            hhcurveto
            69 57 26 40 27 -89 callgsubr
            return
          </CharString>
          <CharString index="6">
            110 callgsubr
            301 vlineto
            62 43 37 54 53 34 -43 -53 -69 -38 -35 -62 -6 -6 1 1 -5 vhcurveto
            -96 vlineto
            -1 7 9 0 8 hhcurveto
            114 96 66 134 104 -67 85 -116 -49 -40 -16 -27 -29 hvcurveto
            114 vlineto
            endchar
          </CharString>
          <CharString index="7">
            -4 -9 -9 -2 -9 hhcurveto
            -30 -24 20 34 34 25 29 42 64 32 -47 -65 -108 -86 -61 -115 -110 -94 67 99 -29 hvcurveto
            7 1 10 2 5 2 rrcurveto
            72 15 23 52 76 vvcurveto
            return
          </CharString>
          <CharString index="8">
            17 callsubr
            -107 -99 hlineto
            221 -241 149 callgsubr
            -234 245 rlineto
            2 hlineto
            120 130 71 159 107 -72 82 -116 -106 -63 -72 -82 -23 5 -25 11 -22 hvcurveto
            return
          </CharString>
          <CharString index="9">
            7 15 18 3 -93 callsubr
            return
          </CharString>
          <CharString index="10">
            29 24 21 34 51 vvcurveto
            92 -73 59 -111 -112 -68 -77 -85 -59 25 -44 39 -31 vhcurveto
            -65 -28 -61 -49 -89 vvcurveto
            -103 76 -66 112 60 57 27 33 21 vhcurveto
            -97 116 241 -113 vlineto
            -69 -13 -48 -37 -60 hhcurveto
            -53 -35 29 49 53 47 38 61 23 hvcurveto
            -7 30 32 -3 33 hhcurveto
            return
          </CharString>
          <CharString index="11">
            -180 -85 -96 -133 -136 80 -100 141 63 callgsubr
            return
          </CharString>
          <CharString index="12">
            -93 callgsubr
            -129 105 -84 127 return
          </CharString>
          <CharString index="13">
            -95 213 -91 callgsubr
            return
          </CharString>
          <CharString index="14">
            20 hhcurveto
            22 27 -3 -8 23 hvcurveto
            102 vlineto
            6 -23 -31 3 -27 hhcurveto
            return
          </CharString>
          <CharString index="15">
            -107 callgsubr
            58 return
          </CharString>
          <CharString index="16">
            -75 callgsubr
            35 46 -4 60 hhcurveto
            return
          </CharString>
          <CharString index="17">
            118 -81 callgsubr
          </CharString>
          <CharString index="18">
            18 callgsubr
            60 -72 callsubr
            9 0 7 hhcurveto
            120 93 179 callgsubr
            -52 callsubr
            vlineto
            endchar
          </CharString>
          <CharString index="19">
            82 -226 -160 hlineto
            -20 18 -25 13 -31 4 rrcurveto
            61 17 39 48 70 vvcurveto
            94 -67 61 -123 -37 -46 -9 -10 -26 vhcurveto
            -106 vlineto
            13 27 39 11 36 hhcurveto
            52 27 -24 -44 -45 -32 -26 -60 hvcurveto
            -31 -100 38 hlineto
            82 25 -34 -44 -70 -51 -22 -50 -42 -39 10 23 -45 hvcurveto
            -109 vlineto
            -15 39 47 -8 45 hhcurveto
            141 68 76 99 hvcurveto
            4 0 5 4 vvcurveto
            119 -243 7 callsubr
            return
          </CharString>
          <CharString index="20">
            rmoveto
            -208 125 -138 194 194 124 139 207 209 -122 138 -197 -194 -124 -139 -208 vhcurveto
            135 hmoveto
            142 70 89 113 115 69 -89 -142 -142 -69 -88 -114 -112 -72 88 142 vhcurveto
            return
          </CharString>
          <CharString index="21">
            117 565 return
          </CharString>
          <CharString index="22">
            -128 116 279 -114 vlineto
            -69 -8 -46 -37 -64 hhcurveto
            -66 -44 42 73 71 49 44 78 hvcurveto
            return
          </CharString>
          <CharString index="23">
            82 -1 33 -12 -42 vvcurveto
            -39 -37 -26 -70 -76 -71 48 callsubr
            46 68 -23 92 hhcurveto
            141 82 72 95 1 hvcurveto
            91 -58 58 callsubr
            33 vhcurveto
            67 callsubr
            return
          </CharString>
          <CharString index="24">
            -78 callgsubr
            32 33 return
          </CharString>
          <CharString index="25">
            hhcurveto
            -81 callsubr
          </CharString>
          <CharString index="26">
            16 18 1 2 17 hvcurveto
            -97 callgsubr
          </CharString>
          <CharString index="27">
            vvcurveto
            37 -10 32 -13 19 vhcurveto
            return
          </CharString>
          <CharString index="28">
            rmoveto
            159 86 115 148 144 -83 116 -162 -150 -94 -116 -151 -143 85 -113 159 hvcurveto
            425 vmoveto
            88 32 -77 -89 -89 -37 -74 -82 -79 -40 76 88 89 38 76 80 hvcurveto
            return
          </CharString>
          <CharString index="29">
            -28 -7 -16 -22 -31 -64 callsubr
            return
          </CharString>
          <CharString index="30">
            -565 -98 callgsubr
            return
          </CharString>
          <CharString index="31">
            rmoveto
            145 169 rlineto
            -117 hlineto
            -81 -99 -81 99 rlineto
            -117 hlineto
            145 -169 rlineto
            return
          </CharString>
          <CharString index="32">
            62 50 21 35 35 hvcurveto
            -69 callsubr
          </CharString>
          <CharString index="33">
            15 25 8 32 37 vvcurveto
            125 return
          </CharString>
          <CharString index="34">
            94 callsubr
            37 55 -15 vhcurveto
            74 25 64 57 87 42 callgsubr
            hlineto
            -553 -199 rmoveto
            199 278 vlineto
            19 -19 11 -27 -35 vvcurveto
            -98 -132 -20 -122 vhcurveto
            return
          </CharString>
          <CharString index="35">
            34 -45 -53 -60 -39 -42 -61 -6 -6 0 1 -6 88 callgsubr
            return
          </CharString>
          <CharString index="36">
            -23 -7 -22 -12 -18 vhcurveto
            -184 161 rlineto
            -98 callsubr
            return
          </CharString>
          <CharString index="37">
            204 -265 150 callgsubr
            -209 267 11 1 rlineto
            89 14 55 59 93 vvcurveto
            131 295 -273 vlineto
            -58 -38 -29 -48 -49 -36 34 54 52 35 40 54 4 11 0 -2 5 vhcurveto
            88 vlineto
            2 -9 -14 2 -12 hhcurveto
            -103 -82 -72 -106 -109 79 -72 98 41 36 11 22 28 hvcurveto
            -149 -90 callsubr
          </CharString>
          <CharString index="38">
            -144 -90 callsubr
          </CharString>
          <CharString index="39">
            vvcurveto
            -13 callsubr
            vhcurveto
            -69 callsubr
          </CharString>
          <CharString index="40">
            -57 -14 -23 87 callgsubr
            -156 57 122 -111 177 hhcurveto
            return
          </CharString>
          <CharString index="41">
            rmoveto
            -25 -12 -21 -18 -31 -43 -29 38 -63 hhcurveto
            -50 -41 -37 -41 -20 hvcurveto
            57 -53 rlineto
            31 23 15 13 34 36 31 -38 56 hhcurveto
            55 43 30 49 24 hvcurveto
            return
          </CharString>
          <CharString index="42">
            -26 callsubr
            53 45 100 hvcurveto
            return
          </CharString>
          <CharString index="43">
            vvcurveto
            -24 11 -28 17 -39 -11 callgsubr
            return
          </CharString>
          <CharString index="44">
            120 callsubr
            -120 -93 -75 -124 -93 55 -70 85 -19 hvcurveto
            21 callsubr
            return
          </CharString>
          <CharString index="45">
            -42 callsubr
            242 hmoveto
            -40 31 -30 40 41 30 30 40 39 -30 30 -41 -40 -31 -30 -39 vhcurveto
            return
          </CharString>
          <CharString index="46">
            rmoveto
            -14 -24 -30 -9 -32 hhcurveto
            -70 -50 47 71 28 7 24 13 19 hvcurveto
            473 302 rmoveto
            return
          </CharString>
          <CharString index="47">
            rmoveto
            203 -203 rlineto
            -20 -28 -32 -11 -35 56 callsubr
            return
          </CharString>
          <CharString index="48">
            40 30 30 40 39 -30 30 -40 -41 -30 -30 -39 return
          </CharString>
          <CharString index="49">
            11 callsubr
            -67 hlineto
            95 -16 -73 65 -114 hhcurveto
            -59 callgsubr
            82 vlineto
            -100 callsubr
            120 333 95 -665 172 callsubr
            vlineto
            -67 callsubr
            144 119 72 111 41 hvcurveto
            194 -211 -10 callgsubr
          </CharString>
          <CharString index="50">
            rmoveto
            -72 -47 -39 -57 -56 -30 29 75 vhcurveto
            return
          </CharString>
          <CharString index="51">
            -72 -47 -38 -57 -56 119 callgsubr
            return
          </CharString>
          <CharString index="52">
            rmoveto
            31 -52 -66 6 -55 hhcurveto
            -202 -143 -141 -205 -211 149 -134 196 53 70 7 33 51 hvcurveto
            126 vlineto
            -32 -43 -62 -18 -57 hhcurveto
            -131 -91 87 142 143 96 87 119 68 43 -11 -33 57 hvcurveto
            return
          </CharString>
          <CharString index="53">
            -8 vhcurveto
            64 -28 -65 42 -96 hhcurveto
            -33 hlineto
            -168 -78 -96 -133 147 callgsubr
            13 12 1 1 11 hvcurveto
            -25 callgsubr
            86 46 47 86 hvcurveto
            20 hlineto
            63 37 -34 -55 2 hvcurveto
            -6 vlineto
            return
          </CharString>
          <CharString index="54">
            11 17 34 11 26 hhcurveto
            39 24 -20 -29 -46 -46 -24 -56 -88 -58 64 75 96 87 44 105 34 35 -4 -6 33 hvcurveto
            return
          </CharString>
          <CharString index="55">
            -47 -36 -18 -25 -27 hvcurveto
            123 return
          </CharString>
          <CharString index="56">
            -143 71 -57 114 2 callgsubr
            vhcurveto
            110 callgsubr
            return
          </CharString>
          <CharString index="57">
            -97 hlineto
            100 55 -37 -69 -56 -35 -39 -54 -48 -29 18 41 -49 hvcurveto
            -202 178 -8 callsubr
            53 47 12 22 34 hvcurveto
            -33 37 55 -20 55 hhcurveto
            118 81 112 callsubr
            -20 43 -44 26 hvcurveto
            return
          </CharString>
          <CharString index="58">
            -95 365 -287 hlineto
            -107 callgsubr
            56 34 39 51 55 29 -48 -50 vhcurveto
            -16 vlineto
            191 -274 -41 callgsubr
            return
          </CharString>
          <CharString index="59">
            86 -22 -73 52 153 callsubr
            -42 -61 -65 -38 -47 -78 -61 -49 20 22 -37 hvcurveto
            -107 vlineto
            -18 35 48 -18 73 hhcurveto
            127 5 81 72 15 103 rrcurveto
            return
          </CharString>
          <CharString index="60">
            55 callgsubr
            -26 5 -21 7 -19 vhcurveto
            112 hlineto
            -5 14 -7 18 23 vvcurveto
            32 16 27 37 36 16 -27 -34 return
          </CharString>
          <CharString index="61">
            rmoveto
            -53 callsubr
            188 136 95 -615 -95 362 -86 -23 vlineto
            -156 -2 -117 -79 -150 69 callgsubr
            return
          </CharString>
          <CharString index="62">
            -95 515 182 callgsubr
            -69 -1 vhcurveto
            35 -35 -41 22 -78 hhcurveto
            -118 hlineto
            -104 callsubr
            58 hlineto
            48 25 -19 -28 21 hvcurveto
            -94 callgsubr
            return
          </CharString>
          <CharString index="63">
            83 86 callsubr
            119 120 70 117 callsubr
            return
          </CharString>
          <CharString index="64">
            hhcurveto
            -62 -42 32 49 62 54 38 124 hvcurveto
            97 -352 -97 126 vlineto
            -38 -22 -27 -37 -57 vvcurveto
            -100 81 -60 124 return
          </CharString>
          <CharString index="65">
            rmoveto
            -40 30 -30 41 -59 callsubr
            vhcurveto
            return
          </CharString>
          <CharString index="66">
            vlineto
            -70 callgsubr
            return
          </CharString>
          <CharString index="67">
            rmoveto
            -1199 -95 974 -119 -334 hlineto
            22 -26 -35 14 -46 hhcurveto
            -73 -53 -38 -59 -14 -106 callgsubr
            67 vlineto
            67 24 44 59 34 25 -18 -22 13 vhcurveto
            100 55 -39 -64 -59 -44 -29 -67 -39 -34 9 17 -32 hvcurveto
            157 callgsubr
            66 108 53 -22 40 -40 24 hvcurveto
            162 -349 130 callsubr
          </CharString>
          <CharString index="68">
            16 18 1 2 17 return
          </CharString>
          <CharString index="69">
            32 -29 -48 24 -61 hhcurveto
            -46 -37 -17 -25 -26 hvcurveto
            122 539 -136 vlineto
            -847 136 rmoveto
            190 -187 hlineto
            -56 callsubr
            1071 289 rmoveto
            -1279 -64 callgsubr
            293 vlineto
            58 40 40 48 46 28 -26 -32 9 vhcurveto
            -1 vlineto
            103 48 -37 -59 -52 -39 -26 -67 -39 -35 10 16 -32 hvcurveto
            -104 vlineto
            -13 35 44 -9 50 hhcurveto
            107 88 53 110 51 -21 37 -40 23 hvcurveto
            166 -332 -86 callsubr
            107 hlineto
            endchar
          </CharString>
          <CharString index="70">
            rmoveto
            157 127 95 -709 -95 466 136 callgsubr
            -67 51 -34 23 -13 hvcurveto
            -59 -43 -28 -64 -70 vvcurveto
            -177 164 -87 171 26 28 2 6 30 vhcurveto
            89 vlineto
            -5 -22 -32 -2 -23 hhcurveto
            -151 -74 80 88 83 63 60 100 24 22 -2 -4 19 hvcurveto
            -161 -203 rlineto
            130 hlineto
            109 153 rlineto
            13 -21 6 -25 -31 vvcurveto
            -24 -3 -28 -6 -16 vhcurveto
            106 hlineto
            6 20 4 32 25 vvcurveto
            136 -102 83 -159 -44 -39 -5 -10 -34 vhcurveto
            -21 14 -16 21 25 205 callgsubr
          </CharString>
          <CharString index="71">
            -19 callsubr
            61 -72 callsubr
            8 0 8 hhcurveto
            120 93 75 124 111 -77 79 -116 -52 callsubr
            vlineto
            endchar
          </CharString>
          <CharString index="72">
            61 callsubr
            -85 -74 -36 32 61 -20 vhcurveto
            72 23 68 51 96 callgsubr
            152 hlineto
            -567 hmoveto
            292 35 callsubr
            -36 -27 -33 -44 -18 vhcurveto
            47 -28 -43 37 -75 hhcurveto
            -44 -35 -16 -22 -26 hvcurveto
            790 219 rmoveto
            return
          </CharString>
          <CharString index="73">
            74 callsubr
            303 vlineto
            62 43 37 54 53 34 -43 -53 -69 -38 -34 -62 -6 -6 0 1 -5 vhcurveto
            -95 vlineto
            -2 7 9 0 8 hhcurveto
            114 96 66 134 104 -67 85 -116 -49 -40 -16 -27 -29 hvcurveto
            112 vlineto
            endchar
          </CharString>
          <CharString index="74">
            185 callsubr
            rcurveline
            74 callsubr
            565 106 vlineto
            endchar
          </CharString>
          <CharString index="75">
            137 callgsubr
            -69 -45 28 55 -16 vhcurveto
            70 24 66 60 94 42 callgsubr
            hlineto
            -561 -219 rmoveto
            -74 callsubr
            263 vlineto
            -65 callgsubr
            -105 -175 -31 -119 vhcurveto
            762 314 rmoveto
            return
          </CharString>
          <CharString index="76">
            391 -57 callsubr
            181 190 vlineto
            return
          </CharString>
          <CharString index="77">
            13 callsubr
            -861 -95 210 -93 hlineto
            208 callsubr
            97 -94 146 -18 -196 -156 rcurveline
            175 hlineto
            137 109 90 67 58 54 rrcurveto
            -121 -90 callsubr
          </CharString>
          <CharString index="78">
            rmoveto
            -59 -25 -23 -46 -47 -24 26 56 vhcurveto
            221 142 vlineto
            return
          </CharString>
          <CharString index="79">
            rmoveto
            -67 -47 -45 -75 -74 -53 43 70 78 61 32 64 vhcurveto
            74 -1 50 -36 -74 vvcurveto
            188 300 rmoveto
            95 -625 -95 277 -98 vlineto
            -107 -11 -100 -63 -126 vvcurveto
            return
          </CharString>
          <CharString index="80">
            rmoveto
            -120 hlineto
            -1 -507 rlineto
            121 262 hlineto
            79 44 61 67 17 16 -2 -8 18 vhcurveto
            116 vlineto
            3 -13 -10 0 -11 hhcurveto
            -64 -43 -38 -56 -21 hvcurveto
            endchar
          </CharString>
          <CharString index="81">
            -25 callgsubr
            88 return
          </CharString>
          <CharString index="82">
            565 96 callsubr
          </CharString>
          <CharString index="83">
            rmoveto
            95 -828 -95 344 -15 callgsubr
          </CharString>
          <CharString index="84">
            -26 -25 -12 -33 -33 vvcurveto
            -69 48 -51 71 -4 vhcurveto
            -82 -6 -50 -47 -74 vvcurveto
            -86 68 -55 91 -21 vhcurveto
            -120 -154 rlineto
            142 159 callsubr
            -128 164 rlineto
            112 37 73 89 120 vvcurveto
            return
          </CharString>
          <CharString index="85">
            -59 callsubr
            -40 30 -30 41 hvcurveto
            return
          </CharString>
          <CharString index="86">
            363 rmoveto
            -177 202 177 hlineto
            return
          </CharString>
          <CharString index="87">
            106 vlineto
            endchar
          </CharString>
          <CharString index="88">
            140 hlineto
            150 175 rlineto
            -130 -9 callsubr
            50 return
          </CharString>
          <CharString index="89">
            131 38 102 64 114 vvcurveto
            55 callgsubr
            -21 4 -23 8 -22 vhcurveto
            112 hlineto
            -7 16 -5 21 18 vvcurveto
            32 16 27 37 36 16 -27 -34 -107 -230 -57 -149 vhcurveto
            -36 hlineto
            -74 callsubr
            117 95 -447 -95 213 -123 vlineto
            -100 callgsubr
            23 hlineto
            44 43 4 8 39 hvcurveto
            return
          </CharString>
          <CharString index="90">
            hhcurveto
            43 29 -16 -26 -53 -75 -24 -74 -16 hvcurveto
            -164 20 97 -72 120 hhcurveto
            69 55 28 38 135 callsubr
            119 vlineto
            endchar
          </CharString>
          <CharString index="91">
            rmoveto
            -145 -169 200 callgsubr
            81 99 81 -99 200 callgsubr
            -145 169 rlineto
            return
          </CharString>
          <CharString index="92">
            -57 callsubr
            181 190 vlineto
            481 hmoveto
            95 -884 -95 95 -177 vlineto
            -115 46 -60 78 -18 vhcurveto
            -171 -195 rlineto
            -34 callsubr
          </CharString>
          <CharString index="93">
            -97 vlineto
            104 51 -30 -64 -54 -42 -26 -68 -39 -34 9 17 -32 hvcurveto
            -104 vlineto
            -15 38 46 -7 42 hhcurveto
            115 86 68 94 44 -20 43 -42 25 hvcurveto
            return
          </CharString>
          <CharString index="94">
            -129 98 -71 110 62 50 21 35 35 return
          </CharString>
          <CharString index="95">
            59 callgsubr
            -308 115 rmoveto
            190 -187 hlineto
            -56 callsubr
            return
          </CharString>
          <CharString index="96">
            226 646 287 rmoveto
            -61 -36 -43 -58 -43 -41 26 28 -26 vhcurveto
            63 15 17 89 76 hhcurveto
            60 36 -41 -61 hvcurveto
            -398 -104 rmoveto
            11 callgsubr
            580 382 rmoveto
            95 -855 -95 532 -86 vlineto
            -47 -8 -30 -21 -25 -26 rrcurveto
            -5 callgsubr
            return
          </CharString>
          <CharString index="97">
            -28 -70 hvcurveto
            57 callgsubr
            return
          </CharString>
          <CharString index="98">
            56 callgsubr
            40 40 return
          </CharString>
          <CharString index="99">
            rlineto
            -95 callsubr
            return
          </CharString>
          <CharString index="100">
            -96 -16 hlineto
            -2 callsubr
            return
          </CharString>
          <CharString index="101">
            rmoveto
            25 -6 30 -12 18 vhcurveto
            -97 hlineto
            12 -18 13 -21 -27 vvcurveto
            -40 -27 -25 -52 -2 vhcurveto
            -78 vlineto
            116 1 53 63 74 vvcurveto
            endchar
          </CharString>
          <CharString index="102">
            vvcurveto
            -62 40 -52 92 39 32 8 15 27 vhcurveto
            85 vlineto
            -14 -21 -28 -13 -31 hhcurveto
            -32 -20 15 29 47 return
          </CharString>
          <CharString index="103">
            131 callgsubr
            -69 55 -37 76 -3 vhcurveto
            -87 -10 -55 -49 -77 vvcurveto
            -102 91 -60 118 return
          </CharString>
          <CharString index="104">
            0 callgsubr
            endchar
          </CharString>
          <CharString index="105">
            -160 -3 -94 -98 -122 vvcurveto
            -87 callgsubr
            return
          </CharString>
          <CharString index="106">
            169 -274 rlineto
            135 hlineto
            -170 276 rlineto
            1 3 6 0 2 hhcurveto
            32 5 26 11 21 16 rrcurveto
            28 51 57 26 71 hhcurveto
            52 46 -23 -23 34 hvcurveto
            -156 -51 rlineto
            -53 -18 -22 -32 -39 vvcurveto
            -45 34 -50 37 -31 vhcurveto
            77 26 rlineto
            -15 22 -14 24 23 vvcurveto
            17 9 17 20 10 vhcurveto
            124 51 rlineto
            -241 31 callgsubr
          </CharString>
          <CharString index="107">
            rmoveto
            81 -99 200 callgsubr
            -145 169 rlineto
            -106 hlineto
            -145 -169 200 callgsubr
            return
          </CharString>
          <CharString index="108">
            424 220 rmoveto
            -660 118 -25 callsubr
          </CharString>
          <CharString index="109">
            -25 3 -24 hhcurveto
            return
          </CharString>
          <CharString index="110">
            rmoveto
            -147 hlineto
            -46 -98 rlineto
            -94 -192 -9 -37 0 vvcurveto
            0 -12 37 -88 192 vhcurveto
            -45 98 rlineto
            -147 hlineto
            230 -428 rlineto
            -246 126 250 vlineto
            endchar
          </CharString>
          <CharString index="111">
            91 callsubr
            125 return
          </CharString>
          <CharString index="112">
            378 -39 callgsubr
            return
          </CharString>
          <CharString index="113">
            rmoveto
            190 -187 hlineto
            -56 callsubr
            308 194 rmoveto
            174 95 -690 -95 90 -191 hlineto
            -143 71 -57 114 53 41 18 29 29 vhcurveto
            -221 118 301 111 callgsubr
          </CharString>
          <CharString index="114">
            118 565 return
          </CharString>
          <CharString index="115">
            52 99 -44 hlineto
            -64 -43 18 51 51 39 31 75 hvcurveto
            2 95 -323 -95 6 callgsubr
            -34 -18 -18 -32 -40 vvcurveto
            -69 52 -37 83 -4 vhcurveto
            -85 -8 -60 -43 -74 vvcurveto
            -85 65 -55 93 -16 vhcurveto
            -51 -30 rlineto
            -43 -25 -16 -28 -31 vvcurveto
            -52 47 -49 48 -26 vhcurveto
            69 43 rlineto
            -25 22 -17 22 25 vvcurveto
            13 6 13 13 9 vhcurveto
            return
          </CharString>
          <CharString index="116">
            rmoveto
            31 22 -26 -29 -29 -22 -26 -31 -31 -22 26 29 29 22 26 31 hvcurveto
            -182 vmoveto
            69 56 56 69 69 -56 56 -69 -69 -56 -56 -69 -69 56 -56 69 hvcurveto
            return
          </CharString>
          <CharString index="117">
            219 rmoveto
            332 -123 hlineto
            -42 -16 -30 -46 -9 vhcurveto
            71 -21 -55 50 -87 hhcurveto
            -46 -35 -16 -24 -26 hvcurveto
            return
          </CharString>
          <CharString index="118">
            rmoveto
            17 callsubr
            return
          </CharString>
          <CharString index="119">
            477 rmoveto
            15 -26 -32 8 -35 hhcurveto
            -59 callgsubr
            82 vlineto
            -4 -9 -9 -2 -9 hhcurveto
            -30 -24 20 34 34 27 29 44 60 34 -45 -65 -109 -99 -62 -107 -109 -92 67 99 -29 hvcurveto
            3 1 7 0 3 1 rrcurveto
            76 13 28 50 84 vvcurveto
            119 311 vlineto
            return
          </CharString>
          <CharString index="120">
            rmoveto
            16 -27 -33 9 -38 hhcurveto
            -94 -74 -61 -86 -83 62 -53 77 16 19 3 6 17 hvcurveto
            82 vlineto
            -4 -10 -9 -2 -9 hhcurveto
            -34 -20 21 30 34 28 25 43 60 34 -45 -65 -109 -99 -48 -107 -109 -89 60 99 -29 hvcurveto
            10 1 rlineto
            79 12 26 48 85 vvcurveto
            115 310 118 callsubr
            return
          </CharString>
          <CharString index="121">
            -18 callgsubr
            -223 -341 hlineto
            -93 -68 -61 -102 -64 -43 28 48 48 41 24 67 vhcurveto
            53 99 -44 hlineto
            -64 -43 20 51 51 39 31 74 hvcurveto
            2 95 return
          </CharString>
          <CharString index="122">
            -128 171 callsubr
            59 37 33 49 vhcurveto
            139 -81 -272 268 hhcurveto
            71 59 30 36 25 -89 callgsubr
            vlineto
            endchar
          </CharString>
          <CharString index="123">
            -84 callgsubr
            24 180 callgsubr
            24 36 46 36 23 -31 -36 13 vhcurveto
            -133 35 95 -73 111 -96 callgsubr
          </CharString>
          <CharString index="124">
            -10 20 -6 17 23 vvcurveto
            35 18 31 39 42 29 -27 -63 199 callgsubr
            return
          </CharString>
          <CharString index="125">
            42 callsubr
            120 return
          </CharString>
          <CharString index="126">
            rmoveto
            -95 394 51 callgsubr
            -100 59 -78 96 -24 hvcurveto
            80 callsubr
            196 172 115 95 hlineto
            endchar
          </CharString>
          <CharString index="127">
            rmoveto
            -469 -103 317 hlineto
            -322 -475 rlineto
            -96 487 103 -336 vlineto
            323 478 rlineto
            return
          </CharString>
          <CharString index="128">
            -127 -139 rlineto
            -19 callsubr
            return
          </CharString>
          <CharString index="129">
            rmoveto
            -126 hlineto
            -91 -169 rlineto
            101 hlineto
            return
          </CharString>
          <CharString index="130">
            -104 160 -42 197 callgsubr
            rlinecurve
            207 callsubr
            -99 vlineto
            129 callsubr
            21 hvcurveto
            73 -108 rlineto
            return
          </CharString>
          <CharString index="131">
            167 266 105 rmoveto
            177 152 103 -152 183 87 vlineto
            138 81 -96 -126 -142 -72 -99 -145 hvcurveto
            -218 569 rmoveto
            -289 -73 -103 73 -282 220 vlineto
            213 130 141 205 187 -140 141 -203 hvcurveto
            endchar
          </CharString>
          <CharString index="132">
            hhcurveto
            28 callsubr
          </CharString>
          <CharString index="133">
            58 55 43 137 172 54 -48 -77 vhcurveto
            -30 -106 -86 callgsubr
            return
          </CharString>
          <CharString index="134">
            hhcurveto
            80 71 35 39 25 hvcurveto
            -171 7 callsubr
            99 95 return
          </CharString>
          <CharString index="135">
            47 36 17 25 27 hvcurveto
            -89 callsubr
          </CharString>
          <CharString index="136">
            88 callsubr
            -34 45 53 60 39 42 61 6 6 0 -1 6 vhcurveto
            95 vlineto
            1 -8 -7 0 -8 hhcurveto
            -24 -23 -3 -6 -22 hvcurveto
            return
          </CharString>
          <CharString index="137">
            rmoveto
            -95 173 -211 vlineto
            -101 callgsubr
            135 -269 vlineto
            -362 -316 rlineto
            158 hlineto
            204 175 rlineto
            -155 190 callgsubr
          </CharString>
          <CharString index="138">
            119 -81 callgsubr
          </CharString>
          <CharString index="139">
            rmoveto
            -95 389 51 callgsubr
            115 callsubr
            hvcurveto
            90 callgsubr
          </CharString>
          <CharString index="140">
            344 rmoveto
            -59 -26 -23 -46 -46 -24 26 56 vhcurveto
            221 142 vlineto
            return
          </CharString>
          <CharString index="141">
            9 -27 18 66 callsubr
            return
          </CharString>
          <CharString index="142">
            hlineto
            -65 callgsubr
            return
          </CharString>
          <CharString index="143">
            -199 146 354 rmoveto
            -101 callgsubr
            140 95 -430 -95 173 vlineto
            314 -214 rmoveto
            -424 -371 rlineto
            158 hlineto
            319 274 rlineto
            return
          </CharString>
          <CharString index="144">
            27 -20 -29 13 vhcurveto
            83 85 rlineto
            36 -33 -50 145 callgsubr
            endchar
          </CharString>
          <CharString index="145">
            -221 -90 callsubr
          </CharString>
          <CharString index="146">
            -266 vlineto
            46 callgsubr
          </CharString>
          <CharString index="147">
            57 26 40 26 -89 callgsubr
            return
          </CharString>
          <CharString index="148">
            100 127 177 -268 87 callsubr
            return
          </CharString>
          <CharString index="149">
            -95 93 148 callgsubr
            86 -63 return
          </CharString>
          <CharString index="150">
            rmoveto
            44 callsubr
          </CharString>
          <CharString index="151">
            -66 callgsubr
            endchar
          </CharString>
          <CharString index="152">
            -10 282 -8 -79 callsubr
            return
          </CharString>
          <CharString index="153">
            -104 -83 -45 102 callsubr
            -52 -49 34 50 -23 vhcurveto
            -1 5 rlineto
            -107 -236 116 94 hlineto
            -23 35 45 -14 48 144 callgsubr
            return
          </CharString>
          <CharString index="154">
            vvcurveto
            -24 34 callsubr
            return
          </CharString>
          <CharString index="155">
            36 callgsubr
            -25 return
          </CharString>
          <CharString index="156">
            62 -2 37 -18 -46 vvcurveto
            -43 -30 -24 -46 return
          </CharString>
          <CharString index="157">
            -95 90 -190 hlineto
            -141 67 -62 119 return
          </CharString>
          <CharString index="158">
            89 -22 -75 49 153 callsubr
            -35 -61 -65 -38 -41 -78 -61 -49 21 22 -37 hvcurveto
            -107 vlineto
            -17 29 62 -19 65 hhcurveto
            116 87 71 95 18 hvcurveto
            return
          </CharString>
          <CharString index="159">
            123 callsubr
            34 45 -4 56 hhcurveto
            18 hlineto
            49 49 3 10 44 hvcurveto
            -102 42 84 -49 97 64 callsubr
          </CharString>
          <CharString index="160">
            rmoveto
            -126 hlineto
            116 -169 rlineto
            101 hlineto
            endchar
          </CharString>
          <CharString index="161">
            -25 -25 -12 -33 -33 vvcurveto
            -69 47 -51 71 -4 vhcurveto
            return
          </CharString>
          <CharString index="162">
            60 callgsubr
            -70 return
          </CharString>
          <CharString index="163">
            hhcurveto
            -61 -47 33 77 hvcurveto
            return
          </CharString>
          <CharString index="164">
            rmoveto
            463 87 vlineto
            138 80 -96 -126 -142 -71 -99 -145 hvcurveto
            -218 569 rmoveto
            -674 220 vlineto
            212 131 141 205 187 -140 141 -203 hvcurveto
            endchar
          </CharString>
          <CharString index="165">
            176 callgsubr
            vhcurveto
            -82 1 -41 9 39 vvcurveto
            35 30 13 return
          </CharString>
          <CharString index="166">
            hhcurveto
            -47 -36 -18 -25 -27 hvcurveto
            return
          </CharString>
          <CharString index="167">
            75 vhcurveto
            194 190 vlineto
            -503 hmoveto
            195 -85 hlineto
            9 -22 -25 5 -29 -12 callsubr
            return
          </CharString>
          <CharString index="168">
            138 callgsubr
            -55 -46 return
          </CharString>
          <CharString index="169">
            hlineto
            4 -13 6 -13 7 -16 32 -71 rcurveline
            104 callgsubr
            vlineto
            endchar
          </CharString>
          <CharString index="170">
            283 96 rmoveto
            -68 -54 61 94 106 57 55 66 57 68 -43 -111 -110 -58 -52 -68 hvcurveto
            return
          </CharString>
          <CharString index="171">
            12 callgsubr
            vlineto
            endchar
          </CharString>
          <CharString index="172">
            -315 70 hmoveto
            120 507 -120 hlineto
            return
          </CharString>
          <CharString index="173">
            -38 vhcurveto
            131 callsubr
            return
          </CharString>
          <CharString index="174">
            196 2 hlineto
            0 vlineto
            return
          </CharString>
          <CharString index="175">
            -42 -27 -25 -45 -58 vvcurveto
            -94 78 -67 103 58 48 23 37 33 vhcurveto
            -103 116 508 208 callgsubr
            40 71 71 53 42 78 hvcurveto
            endchar
          </CharString>
          <CharString index="176">
            -52 callgsubr
            170 -274 rlineto
            134 hlineto
            -169 276 rlineto
            1 2 5 0 3 hhcurveto
            30 5 26 10 20 15 rrcurveto
            28 51 55 28 70 hhcurveto
            return
          </CharString>
          <CharString index="177">
            52 98 -44 hlineto
            -63 -44 18 51 51 40 31 74 hvcurveto
            2 95 -325 -95 143 hlineto
            -34 -18 -18 -32 -40 vvcurveto
            -70 53 -36 83 -4 vhcurveto
            -89 -5 -57 -50 -72 vvcurveto
            return
          </CharString>
          <CharString index="178">
            rmoveto
            -127 hlineto
            -152 -162 152 -162 rlineto
            127 hlineto
            -146 162 rlineto
            return
          </CharString>
          <CharString index="179">
            -66 -68 -113 hvcurveto
            -30 -74 -90 74 -417 120 417 return
          </CharString>
          <CharString index="180">
            138 82 70 96 50 callgsubr
            return
          </CharString>
          <CharString index="181">
            150 hlineto
            205 235 rlineto
            -235 118 return
          </CharString>
          <CharString index="182">
            rmoveto
            -69 56 -56 69 69 56 56 69 69 -56 56 -69 -69 -56 -56 -69 vhcurveto
            72 2 rmoveto
            29 22 26 31 31 22 -26 -29 -29 -22 -26 -31 -31 -22 26 29 vhcurveto
            return
          </CharString>
          <CharString index="183">
            393 rmoveto
            172 115 95 return
          </CharString>
          <CharString index="184">
            39 52 vhcurveto
            -114 hlineto
            -119 return
          </CharString>
          <CharString index="185">
            rmoveto
            -98 80 -80 98 98 80 80 98 99 -80 79 -98 -98 -80 -79 -99 vhcurveto
            99 hmoveto
            44 35 36 44 44 35 -36 -44 -43 -35 -36 -44 -44 -35 36 43 vhcurveto
            return
          </CharString>
          <CharString index="186">
            35 callsubr
            -33 -20 -29 -44 -21 vhcurveto
            45 -28 -48 35 -68 hhcurveto
            -69 -55 -29 -65 149 callsubr
            -47 39 -80 hhcurveto
            -116 78 callgsubr
            return
          </CharString>
          <CharString index="187">
            -133 -129 rlineto
            152 hlineto
            173 173 rlineto
            -85 callsubr
            return
          </CharString>
          <CharString index="188">
            372 rmoveto
            -4 0 -3 -4 vvcurveto
            -200 204 rlineto
            200 hlineto
            -225 -71 rmoveto
            196 -195 rlineto
            -25 -23 -33 -13 -32 56 callsubr
            return
          </CharString>
          <CharString index="189">
            -76 -41 -25 -34 -32 hvcurveto
            104 callsubr
            return
          </CharString>
          <CharString index="190">
            201 callgsubr
            40 -30 return
          </CharString>
          <CharString index="191">
            hhcurveto
            -56 -30 29 75 hvcurveto
            return
          </CharString>
          <CharString index="192">
            rmoveto
            91 hlineto
            114 204 rlineto
            -129 hlineto
            return
          </CharString>
          <CharString index="193">
            -214 171 callgsubr
            return
          </CharString>
          <CharString index="194">
            115 565 106 return
          </CharString>
          <CharString index="195">
            -58 -40 -40 -50 -61 return
          </CharString>
          <CharString index="196">
            -152 -82 -133 -203 vhcurveto
            123 hmoveto
            151 45 76 66 68 45 -76 -151 -149 -42 -80 -71 -68 -43 80 149 vhcurveto
            endchar
          </CharString>
          <CharString index="197">
            -548 rmoveto
            106 202 rlineto
            -202 vlineto
            142 hmoveto
            -56 267 -136 hlineto
            -145 -267 rlineto
            -72 195 -91 86 91 56 vlineto
            endchar
          </CharString>
          <CharString index="198">
            32 -71 rlineto
            100 return
          </CharString>
          <CharString index="199">
            -70 -60 callsubr
            return
          </CharString>
          <CharString index="200">
            -82 -104 -62 -41 28 53 62 54 38 124 vhcurveto
            97 return
          </CharString>
          <CharString index="201">
            55 callsubr
            -47 return
          </CharString>
          <CharString index="202">
            40 32 31 40 40 -32 31 -40 return
          </CharString>
          <CharString index="203">
            106 95 vlineto
            endchar
          </CharString>
          <CharString index="204">
            -60 callsubr
            25 194 rmoveto
            220 -191 hlineto
            -12 1 -12 1 -11 vhcurveto
            return
          </CharString>
          <CharString index="205">
            -104 callgsubr
            -129 -84 -89 -116 return
          </CharString>
          <CharString index="206">
            vlineto
            -94 callgsubr
            157 -251 -43 callgsubr
          </CharString>
          <CharString index="207">
            rmoveto
            112 94 196 callsubr
            -30 -39 -62 -63 -31 77 callsubr
            86 -58 122 vhcurveto
            endchar
          </CharString>
          <CharString index="208">
            vvcurveto
            105 -68 66 -94 24 vhcurveto
            105 vlineto
            endchar
          </CharString>
          <CharString index="209">
            -100 -107 93 -26 104 -2 hvcurveto
            49 callsubr
            return
          </CharString>
          <CharString index="210">
            rlineto
            -126 hlineto
            return
          </CharString>
          <CharString index="211">
            -5 callgsubr
            -32 35 51 -32 78 hhcurveto
            return
          </CharString>
          <CharString index="212">
            rmoveto
            136 95 -583 -95 331 -59 -80 hlineto
            return
          </CharString>
          <CharString index="213">
            -108 95 -34 104 -2 return
          </CharString>
          <CharString index="214">
            278 rmoveto
            120 callsubr
            return
          </CharString>
          <CharString index="215">
            134 callgsubr
            46 33 -26 -36 18 vhcurveto
            return
          </CharString>
          <CharString index="216">
            rmoveto
            -127 hlineto
            146 -162 -146 -162 rlineto
            127 hlineto
            return
          </CharString>
          <CharString index="217">
            912 rmoveto
            -52 -31 -39 -61 -64 -31 77 callsubr
            86 -58 123 112 94 63 114 vhcurveto
            return
          </CharString>
          <CharString index="218">
            -65 -156 vlineto
            -81 -61 -37 -75 return
          </CharString>
          <CharString index="219">
            68 109 55 return
          </CharString>
          <CharString index="220">
            rlineto
            6 16 18 4 140 callsubr
            return
          </CharString>
          <CharString index="221">
            100 -102 callsubr
            return
          </CharString>
          <CharString index="222">
            -118 82 -93 131 46 62 17 36 26 return
          </CharString>
          <CharString index="223">
            126 674 -126 hlineto
            return
          </CharString>
          <CharString index="224">
            65 125 vhcurveto
            212 return
          </CharString>
          <CharString index="225">
            vlineto
            123 callgsubr
            return
          </CharString>
          <CharString index="226">
            139 callgsubr
            -62 44 -34 24 return
          </CharString>
          <CharString index="227">
            -58 -40 -40 -51 -60 -34 45 53 60 39 42 61 6 6 0 -1 6 vhcurveto
            95 vlineto
            1 -8 -8 0 -7 hhcurveto
            return
          </CharString>
          <CharString index="228">
            19 311 96 rmoveto
            -64 -62 52 109 111 67 44 61 67 53 -55 -103 -102 -52 -56 -70 hvcurveto
            -126 return
          </CharString>
          <CharString index="229">
            18 74 76 92 18 113 18 58 -2 -4 19 hvcurveto
            endchar
          </CharString>
          <CharString index="230">
            191 -274 -75 callgsubr
            return
          </CharString>
          <CharString index="231">
            69 57 26 40 27 -89 callgsubr
            95 return
          </CharString>
          <CharString index="232">
            -179 189 callsubr
          </CharString>
          <CharString index="233">
            38 12 -20 -36 hvcurveto
            return
          </CharString>
          <CharString index="234">
            142 hlineto
            93 121 94 -121 -41 callgsubr
            -139 162 rlineto
            72 29 48 65 87 vvcurveto
            return
          </CharString>
          <CharString index="235">
            vlineto
            -68 -33 -35 -53 -47 18 -49 14 -24 hvcurveto
            94 hlineto
            -6 24 -4 28 18 vvcurveto
            34 10 9 24 vhcurveto
            return
          </CharString>
          <CharString index="236">
            86 callgsubr
            25 -13 -33 return
          </CharString>
          <CharString index="237">
            7 callsubr
            107 hlineto
            endchar
          </CharString>
          <CharString index="238">
            32 -69 219 callsubr
            return
          </CharString>
          <CharString index="239">
            57 28 29 51 50 33 -30 -56 vhcurveto
            -76 -105 -95 106 -565 146 callsubr
            -108 return
          </CharString>
          <CharString index="240">
            39 460 317 rmoveto
            -68 -76 -33 -75 -81 -74 32 70 74 79 21 74 84 69 -26 -70 vhcurveto
            return
          </CharString>
          <CharString index="241">
            rmoveto
            234 338 rlineto
            -151 hlineto
            -233 -340 242 -334 rlineto
            159 hlineto
            endchar
          </CharString>
          <CharString index="242">
            24 136 callsubr
            return
          </CharString>
          <CharString index="243">
            hvcurveto
            -112 -86 callsubr
            return
          </CharString>
          <CharString index="244">
            408 rmoveto
            157 return
          </CharString>
          <CharString index="245">
            -111 vlineto
            26 38 56 19 55 hhcurveto
            74 23 -33 -53 hvcurveto
            -31 -73 vlineto
            -138 -73 -59 -96 return
          </CharString>
          <CharString index="246">
            -51 callsubr
            301 190 callsubr
            return
          </CharString>
          <CharString index="247">
            -93 callsubr
            -138 -89 -93 -122 return
          </CharString>
          <CharString index="248">
            -78 -112 hvcurveto
            -68 187 callgsubr
            57 33 34 return
          </CharString>
          <CharString index="249">
            vlineto
            63 30 19 43 16 16 -3 -7 18 vhcurveto
            endchar
          </CharString>
          <CharString index="250">
            46 69 17 36 26 hvcurveto
            -47 -206 rmoveto
            -14 -20 -25 -7 -28 hhcurveto
            -60 -43 32 55 26 return
          </CharString>
          <CharString index="251">
            116 callgsubr
            hlineto
            return
          </CharString>
          <CharString index="252">
            -48 22 51 48 40 30 return
          </CharString>
          <CharString index="253">
            148 callsubr
            95 return
          </CharString>
          <CharString index="254">
            -25 -4 -3 -18 hvcurveto
            return
          </CharString>
          <CharString index="255">
            7 callsubr
            106 return
          </CharString>
          <CharString index="256">
            -18 hvcurveto
            52 -12 return
          </CharString>
          <CharString index="257">
            -95 93 -181 hlineto
            -126 65 -64 95 -13 vhcurveto
            -171 -181 rlineto
            137 hlineto
            return
          </CharString>
          <CharString index="258">
            -88 hlineto
            -46 callgsubr
            return
          </CharString>
          <CharString index="259" raw="1">
            1ff7110a   
          </CharString>
          <CharString index="260">
            -110 hhcurveto
            -35 -39 -7 -8 -20 hvcurveto
            -99 vlineto
            9 22 33 8 31 hhcurveto
            64 39 return
          </CharString>
          <CharString index="261">
            123 rmoveto
            221 -118 hlineto
            -8 0 -8 -1 -7 vhcurveto
            119 141 rmoveto
            return
          </CharString>
          <CharString index="262">
            -59 166 callgsubr
          </CharString>
          <CharString index="263">
            -26 -69 -76 -72 36 callgsubr
            return
          </CharString>
          <CharString index="264">
            127 183 callsubr
            101 vlineto
            -1 return
          </CharString>
          <CharString index="265">
            346 rmoveto
            -74 callsubr
            return
          </CharString>
          <CharString index="266">
            hlineto
            88 129 85 -129 -41 callgsubr
            return
          </CharString>
          <CharString index="267">
            rmoveto
            -328 -83 328 hlineto
            return
          </CharString>
          <CharString index="268">
            vlineto
            -28 214 callsubr
            return
          </CharString>
          <CharString index="269">
            -95 82 -193 187 callsubr
            return
          </CharString>
          <CharString index="270">
            rmoveto
            -36 30 -31 37 36 31 31 36 36 -31 31 -36 -37 -30 -31 -36 vhcurveto
            return
          </CharString>
          <CharString index="271">
            -1 rmoveto
            110 hlineto
            372 692 rlineto
            -111 hlineto
            -67 -521 rmoveto
            -98 return
          </CharString>
          <CharString index="272">
            -341 22 447 rmoveto
            102 hlineto
            129 247 rlineto
            -137 hlineto
            endchar
          </CharString>
          <CharString index="273">
            -86 hlineto
            -66 -53 -13 -23 -41 hvcurveto
            return
          </CharString>
          <CharString index="274">
            vvcurveto
            25 19 9 25 vhcurveto
            return
          </CharString>
          <CharString index="275">
            96 -64 120 hhcurveto
            67 62 31 35 19 136 callsubr
            return
          </CharString>
          <CharString index="276">
            rmoveto
            129 callsubr
            21 hvcurveto
            78 -115 rlineto
            return
          </CharString>
          <CharString index="277">
            -65 callgsubr
            -35 -23 -30 -49 return
          </CharString>
          <CharString index="278">
            118 293 vlineto
            return
          </CharString>
          <CharString index="279">
            -95 216 -97 return
          </CharString>
          <CharString index="280">
            rlineto
            19 -27 -24 11 -30 hhcurveto
            -64 -39 -77 -69 -11 hvcurveto
            62 -47 rlineto
            return
          </CharString>
          <CharString index="281">
            -8 16 -6 18 19 vvcurveto
            45 32 27 41 33 27 -12 -9 19 vhcurveto
            return
          </CharString>
          <CharString index="282">
            -127 65 -61 return
          </CharString>
          <CharString index="283">
            79 106 80 -45 52 -73 18 hvcurveto
            68 27 35 56 71 vvcurveto
            100 return
          </CharString>
          <CharString index="284">
            hhcurveto
            -67 -49 41 64 63 46 42 58 22 17 -2 -7 20 hvcurveto
            return
          </CharString>
          <CharString index="285">
            70 hmoveto
            120 707 -120 hlineto
            return
          </CharString>
          <CharString index="286">
            -63 -44 -32 -67 -39 -34 9 17 -32 return
          </CharString>
          <CharString index="287">
            hhcurveto
            -120 -93 -75 -124 return
          </CharString>
          <CharString index="288">
            hvcurveto
            17 hlineto
            45 24 -27 -35 return
          </CharString>
          <CharString index="289">
            91 -58 176 callgsubr
            return
          </CharString>
          <CharString index="290">
            14 12 1 1 10 vhcurveto
            return
          </CharString>
          <CharString index="291">
            42 33 3 14 64 return
          </CharString>
          <CharString index="292">
            -171 -195 return
          </CharString>
          <CharString index="293">
            rmoveto
            112 61 rlineto
            -335 88 432 -72 vlineto
            -128 return
          </CharString>
          <CharString index="294">
            hlineto
            93 callgsubr
            return
          </CharString>
          <CharString index="295">
            65 vlineto
            62 32 33 47 33 27 -12 -9 19 vhcurveto
            endchar
          </CharString>
          <CharString index="296">
            117 -25 callsubr
          </CharString>
          <CharString index="297">
            vlineto
            62 44 37 return
          </CharString>
          <CharString index="298">
            280 158 callsubr
            return
          </CharString>
          <CharString index="299">
            805 rmoveto
            129 callsubr
            return
          </CharString>
          <CharString index="300">
            hvcurveto
            72 23 66 49 -74 callgsubr
            return
          </CharString>
          <CharString index="301">
            rmoveto
            104 hlineto
            133 247 rlineto
            -139 hlineto
            endchar
          </CharString>
          <CharString index="302">
            158 205 callsubr
            return
          </CharString>
          <CharString index="303">
            63 114 hvcurveto
            -114 hlineto
            -52 return
          </CharString>
          <CharString index="304">
            121 -172 rlineto
            return
          </CharString>
          <CharString index="305" raw="1">
            f706c0b4 9d0b  
          </CharString>
          <CharString index="306">
            565 rmoveto
            95 return
          </CharString>
          <CharString index="307">
            14 -22 -28 8 -35 hhcurveto
            -74 -45 -42 -53 -17 hvcurveto
            return
          </CharString>
          <CharString index="308">
            74 13 48 44 77 vvcurveto
            31 -11 30 -18 23 vhcurveto
            return
          </CharString>
          <CharString index="309">
            11 -20 -33 8 -32 hhcurveto
            -75 -55 -46 -64 -12 hvcurveto
            return
          </CharString>
          <CharString index="310">
            40 32 32 41 40 -32 32 -40 -40 -32 -32 -40 return
          </CharString>
          <CharString index="311">
            hlineto
            -24 -22 -13 -29 -38 vvcurveto
            -101 93 -64 128 return
          </CharString>
          <CharString index="312">
            vlineto
            126 callgsubr
            return
          </CharString>
          <CharString index="313">
            143 vhcurveto
            149 2 return
          </CharString>
          <CharString index="314">
            -25 147 callsubr
            return
          </CharString>
          <CharString index="315">
            -57 -11 -20 87 callgsubr
            53 -143 return
          </CharString>
          <CharString index="316">
            88 callgsubr
            8 0 8 hhcurveto
            120 return
          </CharString>
          <CharString index="317">
            105 51 42 16 31 31 vhcurveto
            -110 112 return
          </CharString>
          <CharString index="318">
            -77 callsubr
            95 hlineto
            endchar
          </CharString>
          <CharString index="319">
            rmoveto
            -90 -55 -46 -80 -70 -47 return
          </CharString>
          <CharString index="320">
            118 660 -118 hlineto
            return
          </CharString>
          <CharString index="321">
            -7 -17 -23 -31 vvcurveto
            return
          </CharString>
          <CharString index="322">
            67 23 -22 -30 -31 -25 -22 -43 -40 -37 return
          </CharString>
          <CharString index="323">
            25 26 -18 19 -26 -25 -19 -19 -26 vhcurveto
            return
          </CharString>
          <CharString index="324">
            14 -14 20 24 167 callsubr
            return
          </CharString>
          <CharString index="325">
            142 40 91 67 108 vvcurveto
            endchar
          </CharString>
          <CharString index="326">
            rlineto
            102 130 return
          </CharString>
        <CharString name=".notdef">
          179 166 hmoveto
          422 701 -422 hlineto
          73 -68 rmoveto
          277 -565 -277 hlineto
          endchar
        </CharString>
        <CharString name="A">
          99 241 256 -92 callgsubr
        </CharString>
        <CharString name="AE">
          342 283 256 rmoveto
          15 29 78 143 57 113 30 70 rlinecurve
          -355 vlineto
          123 -153 rmoveto
          183 241 102 -241 183 271 103 -496 vlineto
          -347 -674 rlineto
          133 hlineto
          81 153 rlineto
          235 -153 398 103 hlineto
          endchar
        </CharString>
        <CharString name="Aacute">
          99 514 892 22 callsubr
          -157 -467 -92 callgsubr
        </CharString>
        <CharString name="Abreve">
          99 427 892 15 callgsubr
          -280 -636 -92 callgsubr
        </CharString>
        <CharString name="Acircumflex">
          99 339 822 0 callsubr
          -17 -467 -92 callgsubr
        </CharString>
        <CharString name="Adieresis">
          99 464 739 -61 callgsubr
          19 -483 -92 callgsubr
        </CharString>
        <CharString name="Agrave">
          99 386 723 65 callgsubr
          -44 -467 -92 callgsubr
        </CharString>
        <CharString name="Amacron">
          99 505 850 160 callsubr
          -264 -511 -92 callgsubr
        </CharString>
        <CharString name="Aogonek">
          92 237 256 rmoveto
          9 29 rlineto
          77 245 10 50 0 vvcurveto
          0 9 -50 77 -244 vhcurveto
          9 -30 rlineto
          -12 418 rmoveto
          -163 hlineto
          -229 -674 rlineto
          133 hlineto
          48 153 rlineto
          255 hlineto
          46 -148 rlineto
          -41 -35 -36 -48 -61 vvcurveto
          -62 40 -52 92 39 32 8 15 26 vhcurveto
          85 vlineto
          -14 -20 -28 -13 -32 hhcurveto
          -31 -20 15 29 47 57 47 59 34 hvcurveto
          endchar
        </CharString>
        <CharString name="Aring">
          99 341 894 9 callsubr
          -100 -456 -92 callgsubr
        </CharString>
        <CharString name="Atilde">
          99 462 877 -66 callsubr
          -285 -570 -92 callgsubr
        </CharString>
        <CharString name="B">
          17 196 103 rmoveto
          186 103 vlineto
          90 36 -39 -55 -60 -40 -32 -81 hvcurveto
          -108 468 rmoveto
          97 hlineto
          80 35 -35 -50 -52 -41 -44 -95 hvcurveto
          -76 hlineto
          -126 284 rmoveto
          -674 273 vlineto
          135 76 78 104 97 -60 48 -64 15 hvcurveto
          62 17 45 58 74 vvcurveto
          104 -79 79 -149 vhcurveto
          endchar
        </CharString>
        <CharString name="C">
          34 561 646 -55 callsubr
          endchar
        </CharString>
        <CharString name="CR">
          -575 endchar
        </CharString>
        <CharString name="Cacute">
          34 561 646 -55 callsubr
          -247 200 -38 callgsubr
          endchar
        </CharString>
        <CharString name="Ccaron">
          34 561 646 -55 callsubr
          -141 200 -76 callsubr
          endchar
        </CharString>
        <CharString name="Ccedilla">
          34 324 -51 rmoveto
          12 -18 13 -21 -27 vvcurveto
          -40 -27 -25 -52 -2 vhcurveto
          -78 vlineto
          116 1 53 63 74 vvcurveto
          25 -6 30 -12 18 vhcurveto
          140 697 -55 callsubr
          endchar
        </CharString>
        <CharString name="D">
          100 199 105 57 callsubr
        </CharString>
        <CharString name="Dcaron">
          100 368 723 -76 callsubr
          -63 -618 57 callsubr
        </CharString>
        <CharString name="Dcroat">
          24 callsubr
        </CharString>
        <CharString name="E">
          -47 197 103 -33 callgsubr
        </CharString>
        <CharString name="Eacute">
          -47 448 892 22 callsubr
          -135 -620 -33 callgsubr
        </CharString>
        <CharString name="Ecaron">
          -47 329 723 -76 callsubr
          -26 -437 rmoveto
          241 102 -241 183 271 103 -398 -674 402 103 -275 hlineto
          endchar
        </CharString>
        <CharString name="Ecircumflex">
          -47 273 822 0 callsubr
          5 -620 -33 callgsubr
        </CharString>
        <CharString name="Edieresis">
          -47 392 737 -61 callgsubr
          47 -634 -33 callgsubr
        </CharString>
        <CharString name="Edotaccent">
          -47 279 739 rmoveto
          -22 callsubr
          -82 -636 -33 callgsubr
        </CharString>
        <CharString name="Egrave">
          -47 336 723 65 callgsubr
          -38 -620 -33 callgsubr
        </CharString>
        <CharString name="Emacron">
          -47 433 852 160 callsubr
          -236 -666 -33 callgsubr
        </CharString>
        <CharString name="Eogonek">
          -47 472 hmoveto
          103 -275 183 241 102 -241 183 271 103 -398 -674 233 vlineto
          -43 -34 -36 -47 -58 -5 callsubr
          57 47 59 34 hvcurveto
          endchar
        </CharString>
        <CharString name="Eth">
          24 callsubr
        </CharString>
        <CharString name="Euro">
          35 570 630 rmoveto
          21 -37 -42 11 -67 hhcurveto
          -130 -113 -78 -142 -40 hvcurveto
          -96 -78 82 hlineto
          -1 -14 -1 -14 -14 vvcurveto
          -12 0 -12 1 -12 vhcurveto
          -81 -77 95 hlineto
          -132 39 106 -85 141 hhcurveto
          74 36 13 18 34 hvcurveto
          121 vlineto
          -23 -32 -42 -17 -58 hhcurveto
          -74 -60 37 68 -30 hvcurveto
          189 77 -209 hlineto
          -1 11 -1 12 12 vvcurveto
          15 1 14 2 14 vhcurveto
          208 78 -187 hlineto
          68 31 59 38 77 hhcurveto
          57 39 -16 -23 31 hvcurveto
          endchar
        </CharString>
        <CharString name="F">
          -76 465 571 rmoveto
          103 -395 -674 127 269 234 103 -234 199 vlineto
          endchar
        </CharString>
        <CharString name="G">
          118 630 393 -45 callgsubr
        </CharString>
        <CharString name="Gbreve">
          118 465 892 15 callgsubr
          71 -499 -45 callgsubr
        </CharString>
        <CharString name="H">
          95 473 674 rmoveto
          -282 -277 282 -126 -674 126 283 277 -283 127 674 vlineto
          endchar
        </CharString>
        <CharString name="I">
          66 callgsubr
          endchar
        </CharString>
        <CharString name="Iacute">
          66 callgsubr
          16 49 -38 callgsubr
          endchar
        </CharString>
        <CharString name="Icircumflex">
          -293 90 892 -16 callsubr
          -118 -892 rmoveto
          116 callsubr
          endchar
        </CharString>
        <CharString name="Idieresis">
          66 callgsubr
          -124 134 -62 callsubr
          endchar
        </CharString>
        <CharString name="Idotaccent">
          66 callgsubr
          -6 135 -42 callsubr
          endchar
        </CharString>
        <CharString name="Igrave">
          66 callgsubr
          18 218 53 callsubr
        </CharString>
        <CharString name="Imacron">
          66 callgsubr
          227 92 146 callgsubr
          endchar
        </CharString>
        <CharString name="Iogonek">
          -293 204 674 rmoveto
          -126 -667 hlineto
          -46 -35 -42 -49 -62 -5 callsubr
          57 47 59 34 hvcurveto
          endchar
        </CharString>
        <CharString name="J">
          -196 30 20 rmoveto
          -13 25 43 -8 35 hhcurveto
          109 71 63 130 hvcurveto
          481 -126 -481 vlineto
          -57 -28 -25 -49 -30 -28 10 14 -22 vhcurveto
          endchar
        </CharString>
        <CharString name="K">
          53 70 hmoveto
          116 callsubr
          286 -338 134 callsubr
        </CharString>
        <CharString name="L">
          -91 196 112 rmoveto
          562 167 callgsubr
          vlineto
          endchar
        </CharString>
        <CharString name="Lacute">
          -91 473 892 22 callsubr
          -161 -49 rmoveto
          167 callgsubr
          -263 hlineto
          endchar
        </CharString>
        <CharString name="Lcaron">
          -91 472 700 rmoveto
          -129 hlineto
          -76 -204 rlineto
          91 hlineto
          -162 178 rmoveto
          167 callgsubr
          -263 hlineto
          endchar
        </CharString>
        <CharString name="Lslash">
          -36 241 112 rmoveto
          184 vlineto
          158 95 rlineto
          105 vlineto
          -158 -95 rlineto
          273 -127 -350 vlineto
          -75 -45 rlineto
          -105 vlineto
          75 45 rlineto
          -219 390 112 vlineto
          endchar
        </CharString>
        <CharString name="M">
          305 58 hmoveto
          126 hlineto
          20 263 rlineto
          7 99 6 94 40 vvcurveto
          0 26 -85 53 -148 vhcurveto
          92 -253 rlineto
          86 hlineto
          94 253 rlineto
          50 133 36 103 0 vvcurveto
          0 6 -103 12 -133 vhcurveto
          24 -263 rlineto
          126 hlineto
          -66 674 rlineto
          -144 hlineto
          -94 -245 rlineto
          -55 -142 -31 -104 0 vvcurveto
          0 -31 106 -53 140 vhcurveto
          -92 245 rlineto
          -144 hlineto
          endchar
        </CharString>
        <CharString name="N">
          113 70 hmoveto
          44 callsubr
        </CharString>
        <CharString name="NULL">
          -575 endchar
        </CharString>
        <CharString name="Nacute">
          113 311 723 -38 callgsubr
          -332 -892 43 callsubr
        </CharString>
        <CharString name="Ncaron">
          113 70 hmoveto
          -66 callgsubr
          336 49 -76 callsubr
          endchar
        </CharString>
        <CharString name="Ntilde">
          113 70 hmoveto
          -66 callgsubr
          403 203 -66 callsubr
          endchar
        </CharString>
        <CharString name="O">
          16 callgsubr
          endchar
        </CharString>
        <CharString name="OE">
          419 357 109 rmoveto
          -112 -67 88 142 142 65 89 113 115 64 -89 -142 -142 -64 -88 -114 hvcurveto
          299 -6 rmoveto
          183 248 102 -248 183 278 103 -399 -52 vlineto
          41 -48 -61 23 -70 hhcurveto
          -194 -119 -139 -208 -208 120 -138 194 69 61 24 41 48 hvcurveto
          -58 403 103 vlineto
          endchar
        </CharString>
        <CharString name="Oacute">
          148 316 723 -38 callgsubr
          -364 -553 -87 callsubr
          endchar
        </CharString>
        <CharString name="Ocircumflex">
          148 178 339 rmoveto
          142 70 89 113 115 69 -89 -142 -142 -69 -88 -114 -112 -72 88 142 vhcurveto
          -135 hmoveto
          -208 125 -138 194 194 124 139 207 209 -122 138 -197 -194 -124 -139 -208 vhcurveto
          271 553 -16 callsubr
          endchar
        </CharString>
        <CharString name="Odieresis">
          148 176 809 -62 callsubr
          -375 -470 -87 callsubr
          endchar
        </CharString>
        <CharString name="Ograve">
          16 callgsubr
          152 553 53 callsubr
        </CharString>
        <CharString name="Ohungarumlaut">
          148 414 723 10 callgsubr
          -286 -553 -87 callsubr
          endchar
        </CharString>
        <CharString name="Omacron">
          148 525 766 146 callgsubr
          -154 -427 -87 callsubr
          endchar
        </CharString>
        <CharString name="Oslash">
          124 520 474 rmoveto
          17 -37 9 -45 -53 vvcurveto
          -145 -71 -91 -117 -36 -32 8 17 -26 vhcurveto
          -68 75 rmoveto
          -17 36 -10 46 54 vvcurveto
          146 72 91 116 37 33 -9 -17 27 vhcurveto
          223 135 rmoveto
          -123 hlineto
          -30 -41 rlineto
          27 -47 -56 15 -64 hhcurveto
          -194 -124 -139 -208 -99 28 -83 51 -60 hvcurveto
          -78 -105 rlineto
          123 hlineto
          31 42 rlineto
          -27 46 56 -14 62 hhcurveto
          195 123 139 207 99 -27 82 -50 60 hvcurveto
          endchar
        </CharString>
        <CharString name="Otilde">
          16 callgsubr
          307 538 -66 callsubr
          endchar
        </CharString>
        <CharString name="P">
          -19 196 331 rmoveto
          240 74 vlineto
          91 43 -47 -71 -71 -42 -51 -95 hvcurveto
          -197 343 rmoveto
          -674 126 229 88 vlineto
          139 109 83 141 127 -97 94 -154 hvcurveto
          endchar
        </CharString>
        <CharString name="Q">
          154 178 339 rmoveto
          142 70 89 113 115 69 -89 -142 -142 -69 -88 -114 -112 -72 88 142 vhcurveto
          539 -431 rmoveto
          -205 119 rlineto
          106 53 62 112 147 vvcurveto
          209 -122 138 -197 -194 -124 -139 -208 -208 125 -138 194 vhcurveto
          15 hlineto
          198 -140 rlineto
          endchar
        </CharString>
        <CharString name="R">
          14 196 570 -14 callgsubr
        </CharString>
        <CharString name="Racute">
          14 452 892 22 callsubr
          -140 -153 -14 callgsubr
        </CharString>
        <CharString name="Rcaron">
          14 355 723 -76 callsubr
          -53 -153 -14 callgsubr
        </CharString>
        <CharString name="S">
          -57 445 646 -79 callgsubr
          endchar
        </CharString>
        <CharString name="Sacute">
          -57 219 723 -38 callgsubr
          135 -246 -79 callgsubr
          endchar
        </CharString>
        <CharString name="Scaron">
          -57 445 646 -79 callgsubr
          -127 199 -76 callsubr
          endchar
        </CharString>
        <CharString name="T">
          -55 495 674 64 callgsubr
        </CharString>
        <CharString name="Tcaron">
          -55 314 723 -76 callsubr
          287 -49 64 callgsubr
        </CharString>
        <CharString name="Thorn">
          -22 196 217 rmoveto
          239 75 vlineto
          97 33 -60 -62 -64 -38 -53 -88 hvcurveto
          -79 342 rmoveto
          115 -126 -674 126 115 85 vlineto
          142 106 82 141 127 -94 94 -157 hvcurveto
          endchar
        </CharString>
        <CharString name="U">
          84 467 258 9 callgsubr
        </CharString>
        <CharString name="Uacute">
          84 292 723 -38 callgsubr
          84 -634 9 callgsubr
        </CharString>
        <CharString name="Ucircumflex">
          84 467 258 -72 callgsubr
          -191 218 -16 callsubr
          endchar
        </CharString>
        <CharString name="Udieresis">
          84 141 808 -62 callsubr
          84 -550 9 callgsubr
        </CharString>
        <CharString name="Ugrave">
          84 467 258 -72 callgsubr
          -172 218 53 callsubr
        </CharString>
        <CharString name="Uhungarumlaut">
          84 467 258 -72 callgsubr
          -94 49 10 callgsubr
          endchar
        </CharString>
        <CharString name="Umacron">
          84 467 258 -72 callgsubr
          33 92 146 callgsubr
          endchar
        </CharString>
        <CharString name="Uogonek">
          84 467 674 rmoveto
          -416 vlineto
          -116 -60 -35 -78 -74 -63 36 110 vhcurveto
          421 -126 -422 vlineto
          -155 87 -88 132 -16 vhcurveto
          -35 -32 -27 -42 -50 -5 callsubr
          56 46 58 34 hvcurveto
          98 33 60 84 135 vvcurveto
          415 vlineto
          endchar
        </CharString>
        <CharString name="Uring">
          84 207 837 75 callsubr
          188 -581 9 callgsubr
        </CharString>
        <CharString name="V">
          76 625 674 rmoveto
          -135 hlineto
          -84 -268 rlineto
          -57 -180 -24 -112 0 vvcurveto
          0 -24 112 -56 180 vhcurveto
          -83 268 rlineto
          -137 hlineto
          226 -674 rlineto
          144 hlineto
          endchar
        </CharString>
        <CharString name="W">
          383 431 664 rmoveto
          -68 -239 rlineto
          -46 -162 -32 -126 0 vvcurveto
          0 -27 137 -37 151 vhcurveto
          -63 249 rlineto
          -133 hlineto
          180 -674 rlineto
          145 hlineto
          63 213 rlineto
          56 190 14 70 0 vvcurveto
          0 15 -69 56 -191 vhcurveto
          61 -213 rlineto
          146 hlineto
          172 674 rlineto
          -128 hlineto
          -61 -248 rlineto
          -37 -152 -25 -139 0 vvcurveto
          0 -38 143 -42 147 vhcurveto
          -69 239 rlineto
          endchar
        </CharString>
        <CharString name="X">
          69 246 341 rmoveto
          -214 -341 149 callgsubr
          28 49 82 134 27 50 143 -233 rcurveline
          150 hlineto
          -221 341 204 333 rlineto
          -153 hlineto
          -25 -45 -76 -130 -24 -46 -129 221 rcurveline
          -147 hlineto
          endchar
        </CharString>
        <CharString name="Y">
          49 606 674 3 callsubr
        </CharString>
        <CharString name="Yacute">
          49 494 892 22 callsubr
          228 -49 3 callsubr
        </CharString>
        <CharString name="Ydieresis">
          49 438 738 -61 callgsubr
          410 -64 3 callsubr
        </CharString>
        <CharString name="Z">
          26 531 674 20 callsubr
          endchar
        </CharString>
        <CharString name="Zacute">
          26 269 723 -38 callgsubr
          171 -218 20 callsubr
          endchar
        </CharString>
        <CharString name="Zcaron">
          26 531 674 20 callsubr
          -172 142 -76 callsubr
          endchar
        </CharString>
        <CharString name="Zdotaccent">
          26 531 674 20 callsubr
          -287 228 -42 callsubr
          endchar
        </CharString>
        <CharString name="a">
          -68 324 218 -99 callgsubr
        </CharString>
        <CharString name="aacute">
          -68 422 725 22 callsubr
          18 -338 -99 callgsubr
        </CharString>
        <CharString name="abreve">
          -68 345 724 15 callgsubr
          -115 -506 -99 callgsubr
        </CharString>
        <CharString name="acircumflex">
          -68 255 655 0 callsubr
          150 -338 -99 callgsubr
        </CharString>
        <CharString name="acute">
          -105 127 629 -38 callgsubr
          endchar
        </CharString>
        <CharString name="adieresis">
          -68 381 570 -61 callgsubr
          185 -352 -99 callgsubr
        </CharString>
        <CharString name="ae">
          237 329 173 rmoveto
          -53 -34 -34 -51 -50 -24 24 39 42 36 26 66 vhcurveto
          57 hlineto
          329 78 rmoveto
          -212 hlineto
          84 12 51 39 53 hhcurveto
          62 31 -43 -66 3 hvcurveto
          107 -104 rmoveto
          3 19 4 33 18 vvcurveto
          159 -82 78 -131 -69 -61 -27 -50 -34 vhcurveto
          50 -22 -55 31 -78 hhcurveto
          -70 -56 -17 -18 -31 hvcurveto
          138 callsubr
          -89 63 -58 109 101 55 48 48 21 hvcurveto
          -66 40 83 -31 75 hhcurveto
          49 62 11 22 36 hvcurveto
          104 vlineto
          -24 -33 -46 -16 -55 hhcurveto
          -77 -61 39 74 -18 hvcurveto
          endchar
        </CharString>
        <CharString name="agrave">
          -68 313 556 65 callgsubr
          112 -338 -99 callgsubr
        </CharString>
        <CharString name="amacron">
          -68 418 682 160 callsubr
          -94 -381 -99 callgsubr
        </CharString>
        <CharString name="ampersand">
          152 286 274 rmoveto
          0 81 -78 77 -74 vhcurveto
          -19 -35 -40 -9 -41 hhcurveto
          -86 -63 36 55 42 25 31 73 25 hvcurveto
          54 305 rmoveto
          57 32 -35 -52 -39 -22 -39 -72 -37 hvcurveto
          -44 45 -32 39 41 vvcurveto
          51 37 26 44 vhcurveto
          393 -588 rmoveto
          -20 18 -50 48 -56 55 32 47 19 57 2 63 rrcurveto
          -110 hlineto
          -1 -35 -8 -31 -14 -25 -125 122 rcurveline
          109 52 40 60 76 vvcurveto
          110 -81 72 -129 -117 -88 -64 -115 -62 36 -50 43 -46 vhcurveto
          -106 -35 -44 -56 -80 vvcurveto
          -104 101 -85 171 77 65 20 35 52 vhcurveto
          22 -21 18 -17 10 -9 rrcurveto
          endchar
        </CharString>
        <CharString name="aogonek">
          -71 324 217 rmoveto
          -49 vlineto
          -47 -32 -35 -53 -50 -24 24 39 42 36 26 66 vhcurveto
          181 107 rmoveto
          128 -66 64 -140 -70 -63 -17 -18 -31 vhcurveto
          138 callsubr
          -84 58 -63 99 70 41 32 34 21 hvcurveto
          -50 vlineto
          -49 -34 -46 -51 -66 vvcurveto
          -62 39 -52 92 40 32 8 15 26 vhcurveto
          85 vlineto
          -14 -21 -27 -13 -32 hhcurveto
          -32 -19 15 29 47 56 47 60 34 hvcurveto
          endchar
        </CharString>
        <CharString name="apostrophemod">
          165 callsubr
        </CharString>
        <CharString name="approxequal">
          25 487 317 rmoveto
          -33 -25 -25 -23 -42 -61 -43 55 -103 hhcurveto
          -66 -55 -48 -48 -35 hvcurveto
          77 -62 rlineto
          38 29 29 20 43 66 45 -55 93 hhcurveto
          72 48 47 47 31 hvcurveto
          -78 264 rmoveto
          -33 -25 -25 -23 -42 -61 -43 56 -103 hhcurveto
          -66 -55 -48 -49 -35 hvcurveto
          77 -62 rlineto
          38 29 29 21 43 66 45 -56 93 hhcurveto
          72 48 48 47 31 hvcurveto
          endchar
        </CharString>
        <CharString name="aring">
          -68 258 727 9 callsubr
          66 -327 -99 callgsubr
        </CharString>
        <CharString name="asciicircum">
          -95 442 332 rmoveto
          -146 262 rlineto
          -111 hlineto
          -147 -262 rlineto
          113 hlineto
          89 169 88 -169 rlineto
          endchar
        </CharString>
        <CharString name="asciitilde">
          58 517 359 rmoveto
          -35 -27 -27 -24 -45 -65 -45 58 -111 hhcurveto
          -69 -60 -52 -52 -37 hvcurveto
          83 -67 rlineto
          41 32 29 21 47 70 48 -58 100 hhcurveto
          77 51 52 50 33 hvcurveto
          endchar
        </CharString>
        <CharString name="asterisk">
          -105 305 451 rmoveto
          13 15 2 5 17 hvcurveto
          92 30 -30 93 -93 -30 -18 -6 -14 -7 -11 -9 rlinecurve
          5 13 3 16 19 vvcurveto
          97 -98 -97 vlineto
          -19 3 -16 5 -13 vhcurveto
          -11 8 -14 8 -18 6 -92 30 rcurveline
          -31 -93 93 -30 rlineto
          -6 17 15 -2 13 hhcurveto
          3 hlineto
          -13 -9 -11 -11 -10 -13 -58 -79 rcurveline
          79 -57 58 79 11 15 7 13 4 13 rlinecurve
          4 -13 7 -14 10 -15 57 -78 rcurveline
          79 57 -57 79 -11 15 -12 11 -12 8 rlinecurve
          endchar
        </CharString>
        <CharString name="at">
          375 458 97 rmoveto
          -50 -42 40 66 87 49 54 60 51 35 -35 -67 10 hvcurveto
          -1 -14 0 -14 -1 -15 rrcurveto
          -68 -17 -49 -34 -45 hhcurveto
          182 -151 rmoveto
          -31 -62 -70 -14 -60 hhcurveto
          -156 -136 103 192 190 145 164 203 168 137 -91 -195 -100 -38 -62 -50 -36 -21 30 76 23 3 44 6 90 hvcurveto
          7 65 rlineto
          -98 hlineto
          -1 -23 -1 -22 -2 -21 rrcurveto
          46 -26 -41 23 -52 hhcurveto
          -108 -93 -89 -135 -110 61 -91 108 66 55 35 66 30 hvcurveto
          -52 16 39 -49 84 hhcurveto
          100 93 102 162 235 -188 142 -213 -252 -209 -195 -255 -216 143 -181 257 56 72 10 29 60 hvcurveto
          endchar
        </CharString>
        <CharString name="atilde">
          -68 377 710 -66 callsubr
          -117 -441 -99 callgsubr
        </CharString>
        <CharString name="b">
          20 313 96 rmoveto
          -68 -58 52 110 111 68 43 57 66 57 -55 -106 -94 -55 -61 -67 hvcurveto
          -126 611 rmoveto
          -121 -707 121 78 hlineto
          -55 34 54 -30 65 hhcurveto
          139 78 124 136 163 -94 98 -124 -63 -54 -29 -55 -35 hvcurveto
          endchar
        </CharString>
        <CharString name="backslash">
          -134 85 707 rmoveto
          -126 hlineto
          362 -810 rlineto
          125 hlineto
          endchar
        </CharString>
        <CharString name="bar">
          -315 73 -194 rmoveto
          114 889 -114 hlineto
          endchar
        </CharString>
        <CharString name="braceleft">
          -212 342 704 rmoveto
          7 -20 -20 3 -19 hhcurveto
          -84 -64 -68 -100 hvcurveto
          -46 16 -41 -38 vvcurveto
          -51 -30 -50 -56 -3 vhcurveto
          -1 -11 -8 0 -3 hhcurveto
          -117 vlineto
          3 9 1 -1 10 hvcurveto
          58 -5 28 -49 -51 -39 -16 -40 -46 vvcurveto
          -100 64 -69 84 19 20 4 7 20 vhcurveto
          113 vlineto
          -6 -10 -12 -3 -10 hhcurveto
          -33 -22 26 36 hvcurveto
          38 15 44 49 vvcurveto
          80 -50 60 -68 10 vhcurveto
          68 10 50 58 80 50 -15 43 38 vvcurveto
          36 22 27 33 10 12 -3 -6 10 vhcurveto
          endchar
        </CharString>
        <CharString name="braceright">
          -212 21 591 rmoveto
          6 10 11 3 10 hhcurveto
          33 23 -27 -36 hvcurveto
          -38 -15 -43 -50 vvcurveto
          -80 50 -58 68 -10 vhcurveto
          -68 -10 -50 -60 -80 -49 15 -44 -38 vvcurveto
          -36 -23 -26 -33 -10 -11 3 6 -10 vhcurveto
          -113 vlineto
          -7 20 19 -4 19 hhcurveto
          85 63 69 100 hvcurveto
          46 -15 40 39 vvcurveto
          51 28 49 58 5 vhcurveto
          1 10 9 -1 3 hhcurveto
          117 vlineto
          -3 -9 0 1 -10 hvcurveto
          -57 3 -29 50 51 38 15 41 46 vvcurveto
          100 -63 68 -85 -19 -19 -3 -7 -20 vhcurveto
          endchar
        </CharString>
        <CharString name="bracketleft">
          -232 332 602 rmoveto
          105 -262 -898 262 106 -147 687 vlineto
          endchar
        </CharString>
        <CharString name="bracketright">
          -232 273 707 rmoveto
          -262 -105 147 -687 -147 -106 262 hlineto
          endchar
        </CharString>
        <CharString name="breve">
          -105 50 798 rmoveto
          -117 74 -56 111 112 73 56 117 vhcurveto
          -94 hlineto
          -57 -32 -37 -59 -59 -32 37 57 vhcurveto
          endchar
        </CharString>
        <CharString name="brokenbar">
          -315 187 368 rmoveto
          335 -114 -335 vlineto
          114 -508 rmoveto
          335 -114 -335 vlineto
          endchar
        </CharString>
        <CharString name="bullet">
          -141 85 356 rmoveto
          -75 56 -58 77 74 58 58 75 75 -58 58 -75 -76 -56 -58 -75 vhcurveto
          endchar
        </CharString>
        <CharString name="c">
          -105 161 252 rmoveto
          105 callgsubr
          106 vlineto
          -31 callgsubr
          endchar
        </CharString>
        <CharString name="cacute">
          -105 246 555 -38 callgsubr
          -176 -472 rmoveto
          105 callgsubr
          106 vlineto
          -31 callgsubr
          endchar
        </CharString>
        <CharString name="caron">
          -105 288 629 -76 callsubr
          endchar
        </CharString>
        <CharString name="ccaron">
          -105 432 487 rmoveto
          -31 callgsubr
          105 callgsubr
          -104 175 -76 callsubr
          endchar
        </CharString>
        <CharString name="ccedilla">
          -105 161 252 rmoveto
          105 callgsubr
          106 vlineto
          -31 callgsubr
          197 -376 -6 callsubr
        </CharString>
        <CharString name="cedilla">
          -105 319 -124 -6 callsubr
        </CharString>
        <CharString name="cent">
          -107 428 486 rmoveto
          -27 13 -27 8 -25 4 rrcurveto
          107 -101 -109 vlineto
          -135 -24 -76 -108 -1 -125 rrcurveto
          -132 84 -102 128 -22 vhcurveto
          -107 101 107 vlineto
          28 4 27 8 24 12 rrcurveto
          104 vlineto
          -20 -34 -40 -11 -37 hhcurveto
          -96 -59 65 94 -3 hvcurveto
          98 1 66 62 93 hhcurveto
          37 39 -10 -20 33 hvcurveto
          endchar
        </CharString>
        <CharString name="circumflex">
          -105 182 798 -16 callsubr
          endchar
        </CharString>
        <CharString name="colon">
          -308 57 404 rmoveto
          -43 33 -34 43 43 34 34 43 43 -34 34 -43 -43 -33 -34 -43 vhcurveto
          -328 vmoveto
          -43 33 -33 43 43 34 33 43 43 -34 34 -43 -43 -33 -34 -43 vhcurveto
          endchar
        </CharString>
        <CharString name="comma">
          -307 -7 -126 194 callsubr
        </CharString>
        <CharString name="copyright">
          192 38 337 rmoveto
          -190 156 -155 190 189 156 155 190 190 -156 156 -189 -190 -156 -156 -190 vhcurveto
          86 hmoveto
          147 112 113 148 147 113 -113 -147 -149 -113 -112 -147 -148 -112 112 149 vhcurveto
          194 -1 rmoveto
          62 1 44 33 48 hhcurveto
          26 30 -7 -15 23 hvcurveto
          83 vlineto
          16 -30 -32 5 -25 hhcurveto
          -113 -67 -78 -99 -1 hvcurveto
          -102 77 -72 100 32 35 7 14 24 vhcurveto
          84 vlineto
          -16 -23 -30 -9 -27 hhcurveto
          -51 -38 37 57 -3 hvcurveto
          endchar
        </CharString>
        <CharString name="currency">
          -14 57 310 rmoveto
          -43 12 -41 20 -33 vhcurveto
          -59 -57 72 -70 59 58 rlineto
          -20 34 40 -11 44 hhcurveto
          45 40 11 20 34 hvcurveto
          60 -58 72 70 -60 58 rlineto
          21 33 13 42 44 vvcurveto
          43 -12 40 -20 32 vhcurveto
          58 58 -72 69 -58 -56 rlineto
          19 -33 -41 12 -44 hhcurveto
          -46 -41 -12 -21 -34 hvcurveto
          -59 58 -72 -69 59 -59 rlineto
          -20 -32 -12 -42 -43 vvcurveto
          101 2 rmoveto
          67 51 56 72 72 50 -56 -68 -67 -50 -56 -72 -72 -51 56 68 vhcurveto
          endchar
        </CharString>
        <CharString name="d">
          19 63 callsubr
          126 611 rmoveto
          -278 vlineto
          47 callgsubr
          707 vlineto
          endchar
        </CharString>
        <CharString name="dagger">
          -29 511 516 rmoveto
          -186 158 -108 -158 -182 -100 182 -416 108 416 186 hlineto
          endchar
        </CharString>
        <CharString name="daggerdbl">
          -8 522 416 rmoveto
          100 -186 158 -108 -158 -183 -100 183 -154 -183 -100 183 -162 108 162 186 100 -186 154 vlineto
          endchar
        </CharString>
        <CharString name="danda">
          -149 194 hmoveto
          213 callsubr
          endchar
        </CharString>
        <CharString name="dcaron">
          138 63 callsubr
          126 333 rmoveto
          47 callgsubr
          707 -120 vlineto
          248 1 rmoveto
          -76 -204 rlineto
          90 hlineto
          115 204 rlineto
          endchar
        </CharString>
        <CharString name="dcroat">
          19 63 callsubr
          309 549 rmoveto
          -63 62 -120 -62 -167 -72 167 -144 hlineto
          47 callgsubr
          573 63 vlineto
          endchar
        </CharString>
        <CharString name="degree">
          -167 30 508 rmoveto
          -97 76 -75 97 97 78 76 97 98 -76 75 -98 -97 -77 -77 -97 vhcurveto
          87 1 rmoveto
          48 38 39 48 48 39 -39 -48 -48 -38 -40 -48 -48 -39 40 48 vhcurveto
          endchar
        </CharString>
        <CharString name="dieresis">
          -105 43 715 -62 callsubr
          endchar
        </CharString>
        <CharString name="divide">
          1 218 517 163 callsubr
          -168 -231 rmoveto
          476 108 -476 hlineto
          168 -231 163 callsubr
          endchar
        </CharString>
        <CharString name="dollar">
          -65 437 646 rmoveto
          -31 15 -35 9 -35 5 rrcurveto
          112 -102 -110 vlineto
          -118 -13 -75 -71 -104 vvcurveto
          -108 76 -47 74 -34 vhcurveto
          78 -35 67 -22 -58 vvcurveto
          -52 -42 -31 -60 -64 -66 20 42 -58 vhcurveto
          -129 vlineto
          37 -21 50 -14 52 -5 rrcurveto
          -110 101 111 vlineto
          110 16 73 72 105 vvcurveto
          119 -90 46 -83 36 vhcurveto
          -64 29 -55 25 50 vvcurveto
          43 36 32 64 55 60 -18 -27 45 vhcurveto
          endchar
        </CharString>
        <CharString name="dotaccent">
          -105 164 716 -42 callsubr
          endchar
        </CharString>
        <CharString name="dotlessi">
          65 callsubr
          endchar
        </CharString>
        <CharString name="dottedcircle">
          85 139 517 rmoveto
          -26 18 -19 26 26 18 19 26 25 -18 19 -26 -26 -18 -19 -25 vhcurveto
          -82 -110 rmoveto
          -25 20 -19 26 24 20 19 25 25 -20 19 -24 -26 -20 -19 -25 vhcurveto
          -13 -126 rmoveto
          -25 19 -18 25 26 18 18 216 callsubr
          52 -116 rmoveto
          -26 18 -18 26 25 19 18 26 25 -19 19 -25 -26 -18 -19 -25 vhcurveto
          101 -75 rmoveto
          -26 19 -20 26 25 19 20 26 24 -19 20 -25 -26 -19 -20 -24 vhcurveto
          127 -16 rmoveto
          -26 18 -18 26 26 19 18 26 26 -19 18 -26 -26 -18 -18 -26 vhcurveto
          121 53 rmoveto
          -26 19 -18 25 25 20 18 26 25 -20 19 -25 -25 -19 -19 -25 vhcurveto
          73 98 rmoveto
          -25 19 -19 26 24 19 19 25 26 -19 19 -24 -26 -19 -19 -26 vhcurveto
          10 134 rmoveto
          -26 18 -18 26 25 19 18 26 26 -19 18 -25 -26 -18 -18 -26 vhcurveto
          -50 118 rmoveto
          -25 19 -19 25 26 18 19 216 callsubr
          -95 68 rmoveto
          -24 19 -20 26 25 18 20 24 26 -18 19 -25 -26 -19 -19 -26 vhcurveto
          -126 15 rmoveto
          -26 18 -18 26 26 18 18 26 26 -18 18 -26 -26 -18 -18 -26 vhcurveto
          endchar
        </CharString>
        <CharString name="doubledanda">
          88 194 hmoveto
          213 callsubr
          237 -660 rmoveto
          213 callsubr
          endchar
        </CharString>
        <CharString name="dvA">
          111 713 -18 callgsubr
          -306 -88 callgsubr
          106 hlineto
          endchar
        </CharString>
        <CharString name="dvAA">
          384 986 -18 callgsubr
          -579 -88 callgsubr
          156 -565 -43 callgsubr
        </CharString>
        <CharString name="dvAI">
          -6 596 -18 callgsubr
          -82 hlineto
          23 callsubr
          -415 -40 callgsubr
        </CharString>
        <CharString name="dvAU">
          386 880 -18 callgsubr
          -112 180 rlineto
          -56 callgsubr
          -326 -88 callgsubr
          158 211 callsubr
        </CharString>
        <CharString name="dvAbbreviationsign">
          -99 61 313 78 callsubr
          endchar
        </CharString>
        <CharString name="dvAcandra">
          111 641 912 rmoveto
          -52 -30 -39 -62 -63 -31 77 callsubr
          86 -58 122 112 94 63 114 vhcurveto
          -348 -347 rmoveto
          -88 callsubr
          106 95 -306 hlineto
          endchar
        </CharString>
        <CharString name="dvAnusvara">
          -575 -209 805 rmoveto
          -40 30 -31 41 95 callsubr
          -41 -30 -31 -40 vhcurveto
          endchar
        </CharString>
        <CharString name="dvAnusvara.amI">
          -575 -60 889 rmoveto
          -40 30 -31 41 95 callsubr
          -41 -30 -31 -40 vhcurveto
          endchar
        </CharString>
        <CharString name="dvAvagraha">
          -41 270 -3 rmoveto
          151 68 82 95 hvcurveto
          184 -310 62 92 vvcurveto
          31 22 10 29 vhcurveto
          227 107 -240 hlineto
          -105 -60 -54 -86 hvcurveto
          -180 316 -59 -106 vvcurveto
          -41 -30 -30 -68 -75 -91 36 37 -56 vhcurveto
          -122 vlineto
          -25 44 75 -33 103 hhcurveto
          endchar
        </CharString>
        <CharString name="dvB">
          -186 416 -18 callgsubr
          -443 -95 443 hlineto
          -48 -374 -60 callgsubr
          282 -70 rmoveto
          -13 -21 -15 -21 -18 -18 -190 167 rcurveline
          -95 callsubr
          120 85 66 88 47 hvcurveto
          endchar
        </CharString>
        <CharString name="dvBA">
          51 366 192 -61 callsubr
          -680 -95 456 89 callgsubr
          -138 -89 -93 -122 156 callgsubr
          hvcurveto
          -143 -90 callsubr
        </CharString>
        <CharString name="dvBH">
          -229 441 366 rmoveto
          -227 -62 callgsubr
          227 hlineto
          endchar
        </CharString>
        <CharString name="dvBHA">
          2 383 366 rmoveto
          -169 -62 callgsubr
          169 -272 87 callsubr
          95 -221 hlineto
          endchar
        </CharString>
        <CharString name="dvBH_LA">
          521 1123 -18 callgsubr
          -805 -95 580 151 callsubr
          -81 -58 -42 -68 -27 hvcurveto
          -191 -62 callgsubr
          173 -7 hlineto
          41 callgsubr
          vhcurveto
          -97 callgsubr
        </CharString>
        <CharString name="dvBH_NA">
          8 389 -18 callgsubr
          -246 -169 -7 callgsubr
          169 -72 hlineto
          -234 -146 rlineto
          -38 -24 -16 -27 -29 vvcurveto
          -54 53 -51 46 -24 vhcurveto
          69 43 rlineto
          -25 22 -20 24 26 vvcurveto
          14 7 13 15 9 vhcurveto
          143 92 rlineto
          -136 115 -25 callsubr
        </CharString>
        <CharString name="dvBH_R">
          -187 227 414 rmoveto
          -7 callgsubr
          186 hlineto
          -343 -360 rlineto
          155 hlineto
          319 360 rlineto
          94 vlineto
          endchar
        </CharString>
        <CharString name="dvBH_RA">
          15 396 -18 callgsubr
          -246 -169 -7 callgsubr
          169 -54 hlineto
          -354 -306 rlineto
          162 hlineto
          192 170 rlineto
          -130 115 -25 callsubr
        </CharString>
        <CharString name="dvBH_R_YA">
          429 809 352 -105 callsubr
          -462 95 rmoveto
          -95 187 vlineto
          -65 callgsubr
          -26 -12 -23 -27 -19 vhcurveto
          -298 116 hlineto
          -1 callgsubr
          186 hlineto
          -343 -360 rlineto
          155 hlineto
          232 262 rlineto
          -71 47 72 -38 80 hhcurveto
          124 callsubr
          vlineto
          endchar
        </CharString>
        <CharString name="dvBH_VA">
          362 964 -18 callgsubr
          -646 -95 422 -266 hlineto
          -104 callgsubr
          -98 -72 -51 -76 -29 hvcurveto
          -185 -62 callgsubr
          172 hlineto
          -119 7 95 -65 105 hhcurveto
          -75 callsubr
        </CharString>
        <CharString name="dvBH_YA">
          412 617 102 callgsubr
          -678 -95 180 73 callgsubr
          -62 callgsubr
          52 hlineto
          37 44 2 6 43 hvcurveto
          -109 38 87 -58 102 hhcurveto
          18 103 rmoveto
          -70 -46 36 56 -16 hvcurveto
          73 21 65 57 91 42 callgsubr
          -213 206 callgsubr
          endchar
        </CharString>
        <CharString name="dvB_BA">
          452 767 192 rmoveto
          -14 -24 -30 -9 -32 hhcurveto
          -70 -50 47 71 28 7 24 13 19 hvcurveto
          -213 -167 -60 callgsubr
          874 302 rmoveto
          -1081 -95 857 89 callgsubr
          -138 -89 -93 -122 -9 1 -9 1 -9 hvcurveto
          -9 -12 -10 70 callgsubr
          89 69 36 55 50 hvcurveto
          -57 40 69 -34 74 hhcurveto
          69 57 26 40 38 hvcurveto
          -143 -90 callsubr
        </CharString>
        <CharString name="dvB_BHA">
          400 368 191 -60 callgsubr
          601 302 rmoveto
          -294 -169 195 callsubr
          -497 -95 473 118 callgsubr
          -148 161 callsubr
          -8 1 -8 2 -9 vhcurveto
          -11 -16 -13 -17 -14 -14 -190 167 rcurveline
          -95 callsubr
          95 73 41 61 50 hvcurveto
          17 -37 219 callsubr
          169 -272 91 callgsubr
        </CharString>
        <CharString name="dvB_BH_RA">
          390 368 191 -60 callgsubr
          590 302 rmoveto
          1 -246 rlineto
          -170 110 hlineto
          126 callgsubr
          -486 -95 462 118 callgsubr
          -101 vlineto
          -27 -7 -18 -23 -31 vvcurveto
          -18 6 -21 11 -27 vhcurveto
          -12 -19 -13 -18 -16 -16 -190 167 rcurveline
          -95 callsubr
          100 76 46 67 50 hvcurveto
          100 130 170 -53 hlineto
          -355 -307 rlineto
          162 hlineto
          193 171 rlineto
          -131 115 -25 callsubr
        </CharString>
        <CharString name="dvB_DA">
          387 368 191 -60 callgsubr
          694 35 rmoveto
          172 115 95 -1016 -95 783 51 callgsubr
          -10 1 -10 1 -10 hvcurveto
          -5 -6 -5 -6 -6 -6 -190 167 rcurveline
          -95 callsubr
          80 64 29 45 48 hvcurveto
          -52 36 61 -34 79 hhcurveto
          46 62 17 36 26 hvcurveto
          -85 callsubr
          endchar
        </CharString>
        <CharString name="dvB_DHA">
          459 368 191 -60 callgsubr
          881 302 rmoveto
          -223 -341 hlineto
          -93 -68 -61 -102 -64 -43 28 48 48 41 24 67 vhcurveto
          53 99 -44 hlineto
          -64 -43 20 51 51 39 31 74 hvcurveto
          2 95 -713 -95 531 48 callgsubr
          -75 -7 -54 -33 -14 -60 -9 -12 -9 70 callgsubr
          79 64 29 44 48 hvcurveto
          -52 35 70 -31 85 hhcurveto
          76 69 29 48 37 hvcurveto
          -144 31 callgsubr
        </CharString>
        <CharString name="dvB_DH_VA">
          820 368 191 -60 callgsubr
          1242 302 rmoveto
          -586 -95 362 -266 hlineto
          98 callsubr
          -20 2 -18 5 -18 hvcurveto
          -45 -51 -54 -22 -70 -63 callgsubr
          -713 -95 531 48 callgsubr
          -75 -7 -54 -33 -14 -60 -9 -12 -9 70 callgsubr
          79 64 29 45 48 hvcurveto
          -53 36 72 -31 89 hhcurveto
          98 79 33 47 58 hvcurveto
          -39 39 55 -20 59 hhcurveto
          -75 callsubr
        </CharString>
        <CharString name="dvB_JA">
          474 368 191 rmoveto
          -15 -26 -29 -7 -31 hhcurveto
          -70 -52 47 71 28 7 24 13 19 hvcurveto
          900 302 rmoveto
          -1107 -95 882 -109 -367 -50 callsubr
          164 -359 130 callsubr
        </CharString>
        <CharString name="dvB_JHA">
          576 657 40 callgsubr
          -571 -176 rmoveto
          -10 -22 -25 -5 -30 hhcurveto
          -78 -68 48 80 28 7 24 13 18 hvcurveto
          998 324 rmoveto
          -1205 -95 724 -56 -68 hlineto
          -104 -83 -44 102 callsubr
          -53 -49 35 51 -23 vhcurveto
          -97 hlineto
          -215 191 113 callsubr
          -129 100 -96 144 hvcurveto
          60 1 45 13 38 23 rrcurveto
          -131 116 94 vlineto
          -23 35 44 -14 49 144 callgsubr
          113 -238 112 callgsubr
        </CharString>
        <CharString name="dvB_J_YA">
          871 1250 137 callgsubr
          -69 -40 34 61 -26 vhcurveto
          72 21 69 51 96 callgsubr
          151 hlineto
          -882 -374 rmoveto
          -15 -26 -29 -7 -31 hhcurveto
          -70 -52 47 71 28 7 24 13 19 hvcurveto
          1293 302 rmoveto
          -1500 -95 1003 hlineto
          17 -19 12 -27 -35 vvcurveto
          -40 -28 -31 -50 -19 vhcurveto
          37 -37 -63 25 -92 hhcurveto
          -247 -50 callsubr
          40 hlineto
          200 -85 -246 251 64 callsubr
        </CharString>
        <CharString name="dvB_JxA">
          474 563 -16 -103 callsubr
          -195 207 rmoveto
          -15 -26 -29 -7 -31 hhcurveto
          -70 -52 47 71 28 7 24 13 19 hvcurveto
          900 302 rmoveto
          -1107 -95 882 -109 -367 -50 callsubr
          164 -359 130 callsubr
        </CharString>
        <CharString name="dvB_LA">
          577 368 191 -60 callgsubr
          999 302 rmoveto
          -1206 -95 981 121 callgsubr
          hvcurveto
          -5 vlineto
          -8 -11 -9 -11 -10 -10 -190 167 rcurveline
          -95 callsubr
          79 63 28 45 48 hvcurveto
          -92 38 86 -57 119 -82 callsubr
        </CharString>
        <CharString name="dvB_L_YA">
          961 1361 352 -105 callsubr
          -993 -374 -60 callgsubr
          1404 302 rmoveto
          -1611 -95 1113 79 callsubr
          hvcurveto
          -5 vlineto
          -8 -11 -9 -11 -10 -10 -190 167 rcurveline
          -95 callsubr
          79 63 28 45 48 hvcurveto
          -92 38 86 -57 119 hhcurveto
          16 callsubr
        </CharString>
        <CharString name="dvB_NA">
          54 369 192 -61 callsubr
          -683 -95 459 -268 hlineto
          -24 -7 -21 -12 -19 vhcurveto
          -185 162 113 callsubr
          -105 72 -78 92 -23 hvcurveto
          -33 -18 rlineto
          -43 -24 -15 -30 -29 vvcurveto
          -54 49 -49 46 -25 vhcurveto
          68 43 rlineto
          -20 19 -21 24 25 vvcurveto
          13 5 15 13 10 vhcurveto
          146 115 rlineto
          0 vlineto
          10 8 9 8 8 8 rrcurveto
          -143 -90 callsubr
        </CharString>
        <CharString name="dvB_R">
          -199 403 -18 callgsubr
          -430 -95 430 hlineto
          -34 -372 rmoveto
          -17 -26 -27 -7 -33 hhcurveto
          -70 -50 47 71 28 7 24 13 19 hvcurveto
          269 -64 rmoveto
          -13 -24 -13 -20 -13 -16 -184 161 rcurveline
          -93 callgsubr
          -106 75 -79 94 -18 hvcurveto
          -164 -152 rlineto
          162 hlineto
          306 288 rlineto
          endchar
        </CharString>
        <CharString name="dvB_RA">
          54 369 192 -61 callsubr
          -683 -95 460 -269 hlineto
          -1 1 rlineto
          -71 callsubr
          -138 -89 -93 -122 -106 75 -77 91 -20 hvcurveto
          -161 -152 rlineto
          162 hlineto
          220 210 rlineto
          -145 31 callgsubr
        </CharString>
        <CharString name="dvB_SA">
          493 692 158 callsubr
          165 -219 vlineto
          -509 -158 rmoveto
          -12 -22 -27 -7 -33 hhcurveto
          -75 -54 47 71 28 7 24 13 19 hvcurveto
          923 302 rmoveto
          -1130 -95 625 -123 hlineto
          -51 -23 -33 -71 vhcurveto
          -69 -45 hlineto
          -32 -7 -29 -14 -22 vhcurveto
          -188 165 rlineto
          -93 callgsubr
          -129 104 -84 132 99 79 39 71 39 hvcurveto
          130 -187 -91 callsubr
          157 -251 -43 callgsubr
        </CharString>
        <CharString name="dvB_SHA">
          538 422 -18 callgsubr
          -449 -95 449 hlineto
          -51 -377 rmoveto
          -12 -22 -27 -7 -28 hhcurveto
          -77 -57 43 75 28 7 24 13 19 hvcurveto
          425 82 11 callsubr
          -107 -41 hlineto
          -27 -9 -25 -16 -21 vhcurveto
          -192 169 -8 callsubr
          98 79 37 69 44 hvcurveto
          168 -183 -10 callgsubr
        </CharString>
        <CharString name="dvB_TA">
          416 368 191 -60 callgsubr
          838 302 rmoveto
          -1045 -95 822 -99 -86 hlineto
          -168 -85 -84 -119 -11 hvcurveto
          -9 -12 -9 70 callgsubr
          75 61 26 41 47 hvcurveto
          -86 29 72 -57 106 hhcurveto
          25 callgsubr
        </CharString>
        <CharString name="dvB_VA">
          411 368 191 -60 callgsubr
          833 302 rmoveto
          -1040 -95 816 -266 hlineto
          98 callsubr
          -13 1 -12 2 -11 hvcurveto
          -7 -9 -6 -7 -8 -8 -190 167 rcurveline
          -95 callsubr
          85 68 33 51 48 hvcurveto
          -48 39 61 -25 66 hhcurveto
          -75 callsubr
        </CharString>
        <CharString name="dvB_YA">
          438 817 352 -105 callsubr
          -449 -374 -60 callgsubr
          860 302 rmoveto
          -1067 -95 569 hlineto
          -70 callgsubr
          5 -42 11 -37 15 -32 -9 -12 -9 -11 -10 -10 -190 167 rcurveline
          -95 callsubr
          97 74 43 63 50 hvcurveto
          -46 45 59 -24 64 -96 callgsubr
        </CharString>
        <CharString name="dvC">
          -162 440 -18 callgsubr
          -467 -95 467 hlineto
          54 -238 rmoveto
          -75 -29 -71 -63 -93 -43 callsubr
          136 96 87 84 27 vhcurveto
          endchar
        </CharString>
        <CharString name="dvCA">
          75 677 -18 callgsubr
          -704 -95 482 -240 hlineto
          -54 -51 93 callsubr
          -352 -97 125 vlineto
          -37 -20 -27 -36 -58 vvcurveto
          -92 74 -70 115 vhcurveto
          96 1 58 39 28 42 rrcurveto
          -176 44 callgsubr
        </CharString>
        <CharString name="dvCH">
          69 671 199 callsubr
          -698 -95 130 vlineto
          98 callgsubr
          113 -75 68 -116 -21 -29 -2 -5 -16 vhcurveto
          -69 callgsubr
          endchar
        </CharString>
        <CharString name="dvCHA">
          72 419 498 rmoveto
          -5 hlineto
          -21 -29 -2 -5 -16 hvcurveto
          -69 callgsubr
          188 hlineto
          255 hmoveto
          95 -701 -95 130 vlineto
          98 callgsubr
          68 -28 52 -47 31 vhcurveto
          97 vlineto
          endchar
        </CharString>
        <CharString name="dvCH_R">
          75 677 199 callsubr
          -704 -95 133 vlineto
          -23 callsubr
          113 -74 68 -116 -22 -28 -2 -5 -16 vhcurveto
          4 callgsubr
          endchar
        </CharString>
        <CharString name="dvCH_RA">
          75 422 498 rmoveto
          -5 hlineto
          -22 -28 -2 -5 -16 hvcurveto
          4 callgsubr
          188 hlineto
          255 hmoveto
          95 -704 -95 133 vlineto
          -23 callsubr
          69 -27 52 -48 30 vhcurveto
          97 vlineto
          endchar
        </CharString>
        <CharString name="dvCH_R_YA">
          665 1044 20 callgsubr
          -52 -90 -14 -23 -65 vhcurveto
          18 -30 -37 10 -44 hhcurveto
          -22 -28 -2 -5 -16 hvcurveto
          4 callgsubr
          810 hlineto
          236 95 rmoveto
          -1307 -95 133 hlineto
          -23 callsubr
          28 -5 26 -9 22 vhcurveto
          14 51 54 10 38 -17 callsubr
        </CharString>
        <CharString name="dvCH_YA">
          673 1052 20 callgsubr
          -54 -94 -14 -25 -65 vhcurveto
          19 -31 -39 11 -46 hhcurveto
          -21 -29 -2 -5 -16 hvcurveto
          -69 callgsubr
          821 hlineto
          236 95 rmoveto
          -1315 -95 130 hlineto
          98 callgsubr
          27 -4 25 -9 22 vhcurveto
          15 53 59 11 40 -17 callsubr
        </CharString>
        <CharString name="dvC_CA">
          449 1051 -18 callgsubr
          -1078 -95 856 -240 hlineto
          -54 -51 93 callsubr
          -322 -97 95 vlineto
          -35 -19 -26 -33 -3 -52 rrcurveto
          -45 -36 -55 -32 -66 -43 callsubr
          82 67 31 44 46 vhcurveto
          -46 32 57 -29 74 hhcurveto
          96 1 58 39 28 42 rrcurveto
          -176 44 callgsubr
        </CharString>
        <CharString name="dvC_CHA">
          471 818 498 rmoveto
          -5 hlineto
          -21 -29 -2 -5 -16 hvcurveto
          -69 callgsubr
          188 hlineto
          255 hmoveto
          95 -1100 -95 529 193 callgsubr
          -65 -5 -44 -31 -16 -49 rrcurveto
          -42 -34 -56 -34 -67 -43 callsubr
          72 62 25 36 46 vhcurveto
          -68 36 91 -35 101 hhcurveto
          176 131 105 160 68 -28 52 -47 31 hvcurveto
          97 vlineto
          endchar
        </CharString>
        <CharString name="dvC_CH_VA">
          487 840 498 rmoveto
          -5 hlineto
          -21 -29 -2 -5 -16 hvcurveto
          -94 vlineto
          4 11 19 2 17 hhcurveto
          55 36 -33 -60 -94 -80 -61 -111 -93 -58 32 53 37 34 26 59 hvcurveto
          37 99 -34 hlineto
          -50 -33 29 46 36 16 29 32 23 hvcurveto
          214 hlineto
          -4 -587 rmoveto
          -65 -58 -53 -67 -68 -44 36 64 66 46 32 61 vhcurveto
          0 9 vlineto
          43 41 6 12 37 hvcurveto
          253 489 rmoveto
          95 -1116 -95 525 vlineto
          -25 -24 -12 -33 -32 vvcurveto
          -69 47 -50 71 -4 vhcurveto
          -68 -5 -49 -35 -11 -56 rrcurveto
          -38 -35 -52 -30 -63 -43 callsubr
          73 62 26 36 46 vhcurveto
          17 -26 26 -21 32 -16 rrcurveto
          -40 -31 -24 -47 -53 vvcurveto
          -128 98 -68 110 66 49 24 39 32 vhcurveto
          -143 115 457 vlineto
          47 45 28 60 70 vvcurveto
          68 -28 52 -47 30 vhcurveto
          97 vlineto
          endchar
        </CharString>
        <CharString name="dvC_MA">
          414 795 -21 callsubr
          221 95 rmoveto
          -1043 -95 529 -208 hlineto
          -28 -7 -16 -18 -29 vvcurveto
          -9 2 -11 3 -11 vhcurveto
          -49 -37 -56 -34 -69 -43 callsubr
          91 72 39 50 47 vhcurveto
          19 -42 rlineto
          81 callgsubr
        </CharString>
        <CharString name="dvC_NA">
          78 680 -18 callgsubr
          -707 -95 485 -240 hlineto
          -54 -51 93 callsubr
          -352 -97 125 vlineto
          -37 -20 -27 -36 -58 vvcurveto
          -75 49 -60 81 -20 vhcurveto
          -59 -34 rlineto
          -36 -22 -17 -26 -32 vvcurveto
          -53 48 -49 49 -28 vhcurveto
          69 45 rlineto
          -23 25 -24 31 24 vvcurveto
          13 6 10 12 9 vhcurveto
          162 112 24 14 18 18 12 18 rlinecurve
          -176 44 callgsubr
        </CharString>
        <CharString name="dvC_R">
          -157 445 -18 callgsubr
          -472 -95 472 hlineto
          46 -240 rmoveto
          -78 -47 -69 -58 -74 hhcurveto
          -61 -41 28 53 62 53 38 125 hvcurveto
          97 -352 -97 124 vlineto
          -36 -20 -27 -36 -58 vvcurveto
          -83 63 -63 83 -10 vhcurveto
          -157 -145 rlineto
          156 hlineto
          316 291 rlineto
          endchar
        </CharString>
        <CharString name="dvC_RA">
          77 679 -18 callgsubr
          -706 -95 483 -246 hlineto
          -68 -67 -62 -88 -61 -41 28 53 62 53 38 125 vhcurveto
          97 -352 -97 124 vlineto
          -36 -20 -27 -36 -58 vvcurveto
          -78 54 -61 85 -17 vhcurveto
          -157 -145 rlineto
          155 hlineto
          233 216 rlineto
          -171 31 callgsubr
        </CharString>
        <CharString name="dvC_YA">
          468 847 352 -105 callsubr
          223 95 rmoveto
          -1097 -95 599 hlineto
          -70 callgsubr
          4 -35 9 -32 11 -28 rrcurveto
          -51 -37 -58 -37 -71 -43 callsubr
          100 78 47 58 45 vhcurveto
          -56 47 64 -30 71 -96 callgsubr
        </CharString>
        <CharString name="dvCandrabindu">
          32 callgsubr
        </CharString>
        <CharString name="dvD">
          -7 646 -248 38 callgsubr
          -532 908 32 callsubr
        </CharString>
        <CharString name="dvDA">
          -7 -27 660 32 callsubr
        </CharString>
        <CharString name="dvDA_mvR">
          -92 399 565 rmoveto
          111 95 -537 -95 309 -66 hlineto
          1 -15 -16 1 -16 hhcurveto
          -110 -68 -49 -75 -67 45 -39 80 -4 hvcurveto
          -83 -5 -50 -43 -73 vvcurveto
          -100 110 -47 123 66 65 21 19 31 vhcurveto
          107 vlineto
          -27 -37 -61 -26 -64 hhcurveto
          -67 -48 16 44 38 34 25 72 hvcurveto
          72 99 -66 hlineto
          -75 -26 22 32 37 42 17 57 38 52 -8 -12 32 hvcurveto
          endchar
        </CharString>
        <CharString name="dvDD">
          -46 205 -66 -24 callgsubr
          96 631 105 callsubr
          215 callgsubr
          106 callsubr
          hvcurveto
          -90 callgsubr
        </CharString>
        <CharString name="dvDDA">
          -46 420 565 105 callsubr
          215 callgsubr
          106 callsubr
          hvcurveto
          -90 callgsubr
        </CharString>
        <CharString name="dvDDH">
          -14 266 205 -46 callsubr
          241 -515 38 callgsubr
          endchar
        </CharString>
        <CharString name="dvDDHA">
          -14 266 205 -46 callsubr
          endchar
        </CharString>
        <CharString name="dvDDH_DDHA">
          31 486 565 rmoveto
          147 95 -660 -95 397 -56 hlineto
          1 -10 -10 0 -9 hhcurveto
          -159 -2 -133 -71 -145 vvcurveto
          -84 53 -63 75 -36 vhcurveto
          -70 -32 -49 -55 -71 vvcurveto
          -133 128 -74 148 135 107 66 94 76 -61 50 -101 -41 -47 -10 -14 -26 vhcurveto
          -87 vlineto
          13 24 45 12 33 hhcurveto
          39 23 -17 -27 -41 -67 -21 -57 -94 -69 44 68 87 80 27 79 13 hvcurveto
          128 2 103 59 92 62 callgsubr
        </CharString>
        <CharString name="dvDDH_R">
          -11 242 -198 -24 callgsubr
          91 763 -12 callgsubr
        </CharString>
        <CharString name="dvDDH_RA">
          -11 452 565 -12 callgsubr
        </CharString>
        <CharString name="dvDDH_VA">
          31 403 14 rmoveto
          -70 -44 -43 -62 -58 -38 31 54 58 49 35 71 -2 vhcurveto
          0 8 vlineto
          26 25 2 5 23 hvcurveto
          83 481 rmoveto
          147 95 -660 -95 397 -56 hlineto
          1 -10 -10 0 -9 hhcurveto
          -159 -2 -133 -71 -145 vvcurveto
          -79 47 -61 69 -37 vhcurveto
          -50 -26 -33 -45 -63 vvcurveto
          -109 92 -65 210 callsubr
          387 vlineto
          33 25 19 34 40 62 callgsubr
        </CharString>
        <CharString name="dvDDH_YA">
          565 609 404 rmoveto
          64 35 -12 -34 -53 -75 -16 -74 -15 hvcurveto
          -164 21 168 callsubr
          106 95 -1194 -95 362 -82 vlineto
          -167 -13 -129 -68 -156 vvcurveto
          -134 108 -98 152 73 callsubr
          -86 vlineto
          11 17 34 11 26 hhcurveto
          39 24 -20 -29 -46 -46 -24 -56 -87 -59 62 76 122 122 17 168 12 hvcurveto
          5 61 60 2 40 hhcurveto
          -157 161 rmoveto
          492 -278 hlineto
          -86 -50 -52 -80 -62 -41 21 51 -16 vhcurveto
          71 23 57 46 69 vvcurveto
          90 -67 48 -135 -41 -72 -1 -5 -56 vhcurveto
          endchar
        </CharString>
        <CharString name="dvDDHxA">
          -14 224 -131 rmoveto
          -37 30 -30 37 38 30 30 37 38 -30 30 -38 -37 -30 -30 -38 vhcurveto
          42 336 -46 callsubr
          endchar
        </CharString>
        <CharString name="dvDD_DDA">
          -10 458 419 rmoveto
          146 134 95 -619 -95 368 -51 -99 vlineto
          -93 -90 -36 -100 -65 48 -59 110 hvcurveto
          34 38 6 46 hhcurveto
          40 22 -15 -27 -40 -45 -11 -72 -69 -93 25 36 -58 hvcurveto
          -110 vlineto
          17 -9 23 -9 27 -7 rrcurveto
          -24 -20 -15 -33 -31 vvcurveto
          -72 66 -40 91 vhcurveto
          10 78 8 15 hhcurveto
          39 -2 19 -16 -27 vvcurveto
          -36 -42 -19 -65 -76 -99 23 38 -61 vhcurveto
          -110 vlineto
          -30 62 91 -18 80 hhcurveto
          130 96 57 104 73 -50 54 -111 3 hvcurveto
          -16 -77 -6 -10 hhcurveto
          -41 1 -12 15 20 vvcurveto
          18 12 16 18 9 vhcurveto
          -1 17 16 -1 17 hhcurveto
          123 105 46 109 72 -51 55 -96 hvcurveto
          -61 -41 -4 -25 hhcurveto
          -47 -13 15 19 27 26 10 44 hvcurveto
          endchar
        </CharString>
        <CharString name="dvDD_DDHA">
          -8 462 419 rmoveto
          146 132 95 -621 -95 372 -51 -99 vlineto
          -92 -90 -36 -100 -73 59 -53 102 hvcurveto
          33 36 7 43 hhcurveto
          40 24 -15 -26 -40 -46 -11 -71 -68 -94 25 36 -57 hvcurveto
          -110 vlineto
          19 -10 26 -10 30 -8 rrcurveto
          -53 -32 -33 -50 -66 vvcurveto
          -128 104 -79 149 135 86 66 94 80 -64 46 -90 -36 -39 -10 -14 -27 vhcurveto
          -86 vlineto
          12 17 37 12 27 hhcurveto
          39 24 -16 -28 -40 -46 -21 -58 -87 -52 44 67 95 77 24 84 12 hvcurveto
          9 1 9 1 9 2 rrcurveto
          0 vlineto
          88 16 69 46 85 vvcurveto
          75 -51 55 -107 vhcurveto
          -54 -43 -5 -25 hhcurveto
          -44 -11 15 19 27 29 10 40 hvcurveto
          endchar
        </CharString>
        <CharString name="dvDD_R">
          -43 202 -211 -24 callgsubr
          103 776 -26 callgsubr
        </CharString>
        <CharString name="dvDD_RA">
          -43 424 565 -26 callgsubr
        </CharString>
        <CharString name="dvDD_VA">
          -1 373 1 rmoveto
          -67 -38 -48 -68 -54 -40 30 55 61 42 32 62 vhcurveto
          0 19 vlineto
          26 26 2 5 25 hvcurveto
          99 348 rmoveto
          146 129 95 -628 -95 382 -51 -109 vlineto
          -92 -90 -39 -100 -69 50 -55 110 hvcurveto
          33 41 6 46 hhcurveto
          41 23 -16 -28 hvcurveto
          -42 -1 -54 -10 -62 hhcurveto
          -68 -101 26 35 -57 hvcurveto
          -110 vlineto
          14 -8 19 -7 22 -7 rrcurveto
          -40 -26 -26 -42 -56 vvcurveto
          -107 90 -67 106 52 41 17 30 30 vhcurveto
          -106 112 391 vlineto
          25 24 15 32 42 vvcurveto
          71 -50 58 -103 vhcurveto
          -66 -44 -5 -28 hhcurveto
          -39 -12 16 20 28 28 9 42 hvcurveto
          endchar
        </CharString>
        <CharString name="dvDD_YA">
          532 911 287 rmoveto
          -78 -50 -60 -80 -56 -45 24 49 -15 vhcurveto
          75 18 50 51 65 vvcurveto
          90 -63 53 -140 vhcurveto
          -166 66 490 198 callgsubr
          -1161 -95 332 -66 -80 hlineto
          -91 -88 -43 -101 -85 70 -54 90 -5 hvcurveto
          87 7 rlineto
          42 -1 25 -17 -34 vvcurveto
          -50 -48 -19 -64 -74 -69 25 36 -58 vhcurveto
          -110 vlineto
          -25 47 67 -23 92 hhcurveto
          116 108 58 109 1 hvcurveto
          87 -54 56 -118 3 vhcurveto
          -87 -6 rlineto
          -34 1 -20 18 31 vvcurveto
          35 32 13 31 vhcurveto
          352 hlineto
          72 22 -22 -32 -47 -75 -15 -71 -9 hvcurveto
          -157 19 100 -77 116 hhcurveto
          67 62 31 35 19 hvcurveto
          -112 31 callgsubr
        </CharString>
        <CharString name="dvDDxA">
          -46 246 -66 -103 callsubr
          174 631 105 callsubr
          215 callgsubr
          106 callsubr
          hvcurveto
          -90 callgsubr
        </CharString>
        <CharString name="dvDH">
          -151 513 295 rmoveto
          -87 -68 -67 -43 -97 -53 callgsubr
          135 100 63 76 56 vhcurveto
          endchar
        </CharString>
        <CharString name="dvDHA">
          65 667 14 callsubr
          -319 -95 137 hlineto
          -29 callgsubr
          91 -64 123 76 69 29 48 37 vhcurveto
          -144 31 callgsubr
        </CharString>
        <CharString name="dvDH_MA">
          412 793 366 rmoveto
          -177 199 177 hlineto
          -377 95 rmoveto
          -95 84 -205 vlineto
          -28 -7 -16 -22 -31 vvcurveto
          -16 5 -18 8 -21 vhcurveto
          -53 -54 -58 -27 -76 -53 callgsubr
          101 82 35 50 58 vhcurveto
          6 -14 rlineto
          100 125 177 -263 91 callgsubr
        </CharString>
        <CharString name="dvDH_NA">
          68 670 124 callgsubr
          24 48 42 45 23 64 vhcurveto
          8 callsubr
          166 129 rlineto
          0 vlineto
          16 11 14 13 11 14 rrcurveto
          -157 44 callgsubr
        </CharString>
        <CharString name="dvDH_N_YA">
          439 818 352 -105 callsubr
          -438 95 rmoveto
          -95 163 -41 callsubr
          6 -46 12 -41 17 -34 rrcurveto
          -46 -47 -54 -27 -71 hhcurveto
          -64 -43 24 48 42 45 23 64 hvcurveto
          8 callsubr
          162 126 34 18 31 25 28 25 rlinecurve
          -47 45 60 -24 64 hhcurveto
          124 callsubr
          vlineto
          endchar
        </CharString>
        <CharString name="dvDH_R">
          -127 506 331 rmoveto
          -101 -55 -79 -52 -93 hhcurveto
          -64 -43 22 46 44 44 26 65 hvcurveto
          70 callsubr
          -93 81 -59 103 -1 vhcurveto
          -151 -130 rlineto
          161 hlineto
          336 310 rlineto
          endchar
        </CharString>
        <CharString name="dvDH_RA">
          70 672 124 callgsubr
          22 46 44 44 26 65 vhcurveto
          70 callsubr
          -86 70 -55 95 -12 vhcurveto
          -146 -130 rlineto
          160 hlineto
          217 199 rlineto
          -154 44 callgsubr
        </CharString>
        <CharString name="dvDH_VA">
          440 1042 -18 callgsubr
          -586 -95 362 -266 hlineto
          98 callsubr
          -16 1 -15 3 -14 hvcurveto
          -52 -53 -58 -26 -75 -53 callgsubr
          102 82 36 51 59 vhcurveto
          -43 39 58 -23 62 hhcurveto
          -75 callsubr
        </CharString>
        <CharString name="dvDH_YA">
          466 845 352 53 callgsubr
          -415 95 rmoveto
          -95 141 vlineto
          18 -19 11 130 callgsubr
          6 -45 12 -40 17 -34 rrcurveto
          -59 -57 -59 -29 -80 -53 callgsubr
          116 90 47 61 59 vhcurveto
          -41 43 56 -21 60 101 callgsubr
        </CharString>
        <CharString name="dvD_BA">
          34 417 15 rmoveto
          -23 -5 -20 -9 -17 vhcurveto
          -136 116 rlineto
          9 hlineto
          143 callsubr
          10 22 16 16 hvcurveto
          310 345 rmoveto
          172 106 95 -663 -95 438 140 callgsubr
          -102 87 -66 111 63 48 22 37 32 vhcurveto
          -95 211 callgsubr
          -67 hhcurveto
          -68 219 callgsubr
        </CharString>
        <CharString name="dvD_BHA">
          197 680 393 rmoveto
          172 119 95 -826 -95 589 -78 -84 vlineto
          -159 -82 -91 -120 -84 41 -71 71 -34 hvcurveto
          -87 -46 -45 86 rlineto
          46 -25 -31 24 -44 hhcurveto
          -46 -49 -27 -41 -27 hvcurveto
          39 -74 rlineto
          16 11 24 24 24 hhcurveto
          17 11 -11 -20 10 hvcurveto
          41 -78 rlineto
          -11 -10 -7 -13 -14 vvcurveto
          -31 34 -35 87 -56 vhcurveto
          77 41 -51 98 202 106 33 8 30 15 17 23 rlinecurve
          122 callgsubr
        </CharString>
        <CharString name="dvD_B_RA">
          33 416 15 rmoveto
          -23 -5 -21 -10 -16 vhcurveto
          -135 116 rlineto
          0 9 vlineto
          143 callsubr
          9 21 17 16 hvcurveto
          309 346 rmoveto
          172 107 95 -662 -95 437 140 callgsubr
          -84 59 -60 83 -18 vhcurveto
          -121 -104 rlineto
          145 hlineto
          147 132 rlineto
          0 vlineto
          10 8 10 8 8 10 rrcurveto
          -96 211 callgsubr
          -68 hhcurveto
          -67 219 callgsubr
        </CharString>
        <CharString name="dvD_DA">
          -20 454 565 rmoveto
          128 95 -609 -95 365 -60 hlineto
          3 -22 -22 1 -20 hhcurveto
          -139 -73 -58 -82 -60 43 -47 80 -3 hvcurveto
          -79 -4 -51 -53 -67 vvcurveto
          -91 84 -55 99 58 68 26 37 19 vhcurveto
          -108 116 264 -114 vlineto
          -85 -5 -59 -39 -62 hhcurveto
          -51 -36 22 39 41 41 27 63 hvcurveto
          44 97 -46 hlineto
          -55 -36 16 37 35 42 19 61 55 62 -11 -16 51 hvcurveto
          endchar
        </CharString>
        <CharString name="dvD_DHA">
          179 304 103 rmoveto
          22 -16 26 -11 30 -6 rrcurveto
          -69 -14 -39 -37 -37 hhcurveto
          -28 -16 19 26 31 18 30 23 20 hvcurveto
          373 303 rmoveto
          172 119 95 -808 -95 571 -78 -84 vlineto
          -159 -82 -91 -120 -40 10 -38 17 -32 hvcurveto
          -8 -7 rlineto
          -14 -16 -23 -7 -20 hhcurveto
          -26 -21 13 27 52 37 3 2 82 hvcurveto
          -93 32 rlineto
          -1 -94 -46 -9 -74 vvcurveto
          -72 52 -38 62 12 15 2 4 14 vhcurveto
          -20 -21 -8 -30 -28 vvcurveto
          -67 54 -44 72 87 75 69 124 25 vhcurveto
          38 7 37 16 19 26 rrcurveto
          122 callgsubr
        </CharString>
        <CharString name="dvD_GA">
          -1 486 76 callsubr
          -628 -95 395 51 callgsubr
          -89 46 -74 79 -32 hvcurveto
          -84 vlineto
          -30 -9 -20 -34 -27 -23 13 0 vhcurveto
          -88 vlineto
          -9 26 21 -4 30 hhcurveto
          73 51 39 87 hvcurveto
          81 vlineto
          43 4 49 17 22 31 rrcurveto
          -85 callsubr
          endchar
        </CharString>
        <CharString name="dvD_GHA">
          170 282 112 rmoveto
          23 -19 27 -14 31 -7 rrcurveto
          -62 -16 -36 -32 -35 hhcurveto
          -29 -16 19 26 30 19 31 24 20 hvcurveto
          -53 68 rmoveto
          -13 -15 -21 -7 -20 hhcurveto
          -28 -22 13 31 35 37 33 57 6 hvcurveto
          1 -33 7 -30 13 -27 rrcurveto
          423 213 rmoveto
          172 119 95 -799 -95 562 -78 -84 vlineto
          -123 -77 -54 -80 -29 hvcurveto
          -100 -3 -109 -56 -109 vvcurveto
          -69 54 -42 62 13 14 2 4 13 vhcurveto
          -19 -22 -8 -29 -28 vvcurveto
          -67 54 -44 72 83 73 62 115 28 vhcurveto
          40 6 43 16 21 29 rrcurveto
          -85 callsubr
          endchar
        </CharString>
        <CharString name="dvD_G_RA">
          46 490 393 rmoveto
          172 158 95 -675 -95 399 51 callgsubr
          -77 34 -63 60 -36 hvcurveto
          -99 vlineto
          -29 -9 -20 -33 -27 -22 13 0 vhcurveto
          -85 vlineto
          -9 25 21 -3 28 hhcurveto
          71 50 37 84 hvcurveto
          77 vlineto
          -1 11 12 -1 12 hhcurveto
          20 18 3 4 18 hvcurveto
          -124 vlineto
          -254 -196 rlineto
          140 hlineto
          114 92 rlineto
          -70 102 362 vlineto
          1 2 55 -147 rlineto
          116 hlineto
          -107 279 rlineto
          -100 hlineto
          -70 -8 -45 -36 -70 hhcurveto
          -68 -44 42 73 71 49 44 78 hvcurveto
          endchar
        </CharString>
        <CharString name="dvD_MA">
          229 610 104 rmoveto
          -145 206 -114 hlineto
          -60 -10 -50 -26 -47 hhcurveto
          -50 -42 30 56 66 49 32 78 hvcurveto
          185 157 146 hlineto
          221 95 rmoveto
          -858 -95 372 -63 -73 hlineto
          -155 -83 -76 -117 -106 74 -78 112 52 54 23 37 22 hvcurveto
          -87 vlineto
          -27 -7 -17 -22 -31 vvcurveto
          -34 29 -48 32 -59 vhcurveto
          99 105 146 -181 115 744 106 hlineto
          endchar
        </CharString>
        <CharString name="dvD_NA">
          3 490 76 callsubr
          -632 -95 399 51 callgsubr
          -93 51 -78 87 -28 hvcurveto
          -56 -33 rlineto
          -41 -25 -17 -28 -31 vvcurveto
          -51 46 -49 49 -28 vhcurveto
          69 43 rlineto
          -24 23 -19 22 25 vvcurveto
          14 8 13 13 9 vhcurveto
          150 110 13 8 10 8 8 11 rlinecurve
          -85 callsubr
          endchar
        </CharString>
        <CharString name="dvD_R">
          -2 532 -293 38 callgsubr
          -418 953 19 callsubr
        </CharString>
        <CharString name="dvD_RA">
          -2 -27 660 19 callsubr
        </CharString>
        <CharString name="dvD_VA">
          2 388 97 callgsubr
          -631 -95 394 -78 -81 vlineto
          -159 -85 -89 -121 -75 33 -65 60 -36 hvcurveto
          68 callsubr
        </CharString>
        <CharString name="dvD_YA">
          107 487 307 rmoveto
          -106 -100 -55 -103 -53 -58 12 40 44 54 8 58 vhcurveto
          46 100 -47 hlineto
          -57 -43 11 37 28 22 23 58 37 39 -7 -12 35 hvcurveto
          135 112 vlineto
          222 95 rmoveto
          -736 -95 285 -45 hlineto
          1 -10 -11 0 -10 hhcurveto
          -101 -62 -50 -69 -63 56 -34 70 -3 hvcurveto
          -78 -2 -57 -40 -67 vvcurveto
          -98 99 -47 128 95 73 39 40 37 vhcurveto
          -127 44 callgsubr
        </CharString>
        <CharString name="dvE">
          -6 596 -18 callgsubr
          -623 -40 callgsubr
        </CharString>
        <CharString name="dvEcandra">
          -6 397 110 callsubr
          85 -252 rmoveto
          -623 -40 callgsubr
        </CharString>
        <CharString name="dvEight">
          -32 270 89 rmoveto
          -76 -31 43 44 49 31 48 76 2 hvcurveto
          75 -2 35 -42 -50 vvcurveto
          -47 -33 -45 -77 vhcurveto
          -1 477 rmoveto
          76 22 -45 -46 -63 -43 -30 -52 -53 -45 29 63 46 29 46 66 hvcurveto
          130 -235 rmoveto
          55 28 35 49 64 vvcurveto
          133 -101 59 -119 -117 -100 -68 -124 -67 35 -49 57 -28 vhcurveto
          -61 -27 -41 -50 -79 vvcurveto
          -112 92 -69 135 134 98 73 113 82 -41 47 -61 25 vhcurveto
          endchar
        </CharString>
        <CharString name="dvEyelash">
          -382 8 390 rmoveto
          -99 vlineto
          -15 31 39 -12 54 hhcurveto
          80 66 26 19 35 hvcurveto
          -26 94 rlineto
          -23 -40 -51 -22 -66 hhcurveto
          -60 -39 17 15 -23 hvcurveto
          212 175 rmoveto
          95 -247 -95 vlineto
          endchar
        </CharString>
        <CharString name="dvEyelash_HA">
          161 660 137 callsubr
          103 95 -790 -95 570 -65 -156 vlineto
          -80 -62 -37 -75 hvcurveto
          -4 0 -3 -3 vvcurveto
          -12 -30 -36 -8 -42 hhcurveto
          -60 -46 17 15 -23 hvcurveto
          -99 vlineto
          -15 31 46 -12 54 hhcurveto
          62 53 14 15 37 hvcurveto
          9 -7 8 -5 7 -4 rrcurveto
          -44 -34 -22 -46 -47 vvcurveto
          -91 82 -98 181 184 callsubr
          vhcurveto
          97 vlineto
          -16 -68 -31 -3 -34 hhcurveto
          -110 -41 41 52 44 40 37 79 54 28 -26 -29 -12 -2 -22 -10 -17 hvcurveto
          115 hlineto
          9 19 1 23 15 vvcurveto
          79 -72 66 -120 -33 -30 -4 -6 -26 vhcurveto
          -20 14 -14 20 24 205 callgsubr
        </CharString>
        <CharString name="dvEyelash_YA">
          229 608 352 -105 callsubr
          223 95 rmoveto
          -858 -95 360 35 callsubr
          -39 -29 -34 -62 -21 vhcurveto
          -13 -41 -45 -8 -45 hhcurveto
          -48 -47 9 21 -38 hvcurveto
          -98 vlineto
          -16 33 43 -10 53 hhcurveto
          33 31 3 5 25 hvcurveto
          -109 41 88 155 callsubr
        </CharString>
        <CharString name="dvFive">
          -55 202 30 callgsubr
        </CharString>
        <CharString name="dvFour">
          0 162 76 callgsubr
        </CharString>
        <CharString name="dvG">
          -258 344 -18 callgsubr
          -371 -95 161 -211 hlineto
          -101 callgsubr
          93 vlineto
          endchar
        </CharString>
        <CharString name="dvGA">
          6 214 callgsubr
          161 -211 vlineto
          -101 callgsubr
          135 -565 190 callgsubr
        </CharString>
        <CharString name="dvGH">
          -221 420 251 rmoveto
          -50 -33 -53 -25 -65 hhcurveto
          -55 145 callsubr
          65 hvcurveto
          52 99 -43 hlineto
          -63 75 callgsubr
          164 95 -408 -95 120 hlineto
          -4 callsubr
          85 69 33 53 45 vhcurveto
          endchar
        </CharString>
        <CharString name="dvGHA">
          65 444 80 callgsubr
          -694 -95 120 hlineto
          -4 callsubr
          75 76 29 50 36 vhcurveto
          -157 31 callgsubr
        </CharString>
        <CharString name="dvGH_MA">
          352 733 -21 callsubr
          -410 -238 rmoveto
          99 -43 vlineto
          -63 75 callgsubr
          223 -208 hlineto
          -28 -7 -16 -18 -29 vvcurveto
          -17 6 -21 10 -25 vhcurveto
          -43 -33 -50 -21 -60 hhcurveto
          -55 145 callsubr
          65 hvcurveto
          683 333 rmoveto
          -981 -95 120 hlineto
          -4 callsubr
          81 66 30 48 45 vhcurveto
          7 -15 rlineto
          81 callgsubr
        </CharString>
        <CharString name="dvGH_NA">
          66 446 337 rmoveto
          -100 -76 -61 -100 -55 -48 22 51 48 41 30 64 vhcurveto
          52 99 -43 hlineto
          -61 -42 19 50 30 15 22 25 18 hvcurveto
          228 hlineto
          222 95 rmoveto
          -695 -95 121 hlineto
          131 callgsubr
          -68 55 -38 76 -3 vhcurveto
          -85 -8 -57 -51 -77 vvcurveto
          -85 63 -55 89 -17 vhcurveto
          -54 -31 rlineto
          -36 -22 -16 -25 -32 vvcurveto
          -53 49 -51 50 -26 vhcurveto
          69 44 rlineto
          -25 27 -24 30 24 vvcurveto
          12 6 11 13 10 vhcurveto
          163 112 20 12 17 15 13 17 rlinecurve
          -157 44 callgsubr
        </CharString>
        <CharString name="dvGH_R">
          -184 490 344 rmoveto
          -72 -35 -72 -96 -109 hhcurveto
          -54 145 callsubr
          64 hvcurveto
          53 99 -44 hlineto
          -62 75 callgsubr
          195 95 -445 92 callgsubr
          157 hlineto
          327 280 rlineto
          endchar
        </CharString>
        <CharString name="dvGH_RA">
          70 450 337 rmoveto
          -100 -76 -61 -100 -54 145 callsubr
          64 vhcurveto
          53 99 -44 hlineto
          -62 75 callgsubr
          227 hlineto
          222 95 rmoveto
          -699 92 callgsubr
          156 hlineto
          225 201 rlineto
          -156 44 callgsubr
        </CharString>
        <CharString name="dvGH_YA">
          420 799 352 -105 callsubr
          -476 -238 rmoveto
          99 -43 vlineto
          -63 75 callgsubr
          307 hlineto
          -70 callgsubr
          5 -44 12 -38 15 -33 rrcurveto
          -54 -37 -55 -27 -66 hhcurveto
          -55 145 callsubr
          65 hvcurveto
          751 333 rmoveto
          -1049 -95 120 hlineto
          -4 callsubr
          96 73 41 65 51 vhcurveto
          -46 45 59 -25 65 -96 callgsubr
        </CharString>
        <CharString name="dvG_BA">
          370 685 192 -61 callsubr
          -999 -95 161 -211 hlineto
          -101 callgsubr
          497 -268 vlineto
          -71 callsubr
          -138 -89 -93 -122 156 callgsubr
          hvcurveto
          -143 -90 callsubr
        </CharString>
        <CharString name="dvG_BHA">
          317 698 -18 callgsubr
          -294 -169 195 callsubr
          -414 -95 161 -211 hlineto
          -101 callgsubr
          112 vlineto
          126 callsubr
          -148 vlineto
          -28 -7 -17 -23 -31 47 callsubr
          169 -272 91 callgsubr
        </CharString>
        <CharString name="dvG_BH_YA">
          706 1085 55 callsubr
          -46 36 56 -16 vhcurveto
          73 21 65 57 91 42 callgsubr
          hlineto
          -440 95 rmoveto
          -95 165 73 callgsubr
          158 hlineto
          126 callgsubr
          -414 -95 161 -211 hlineto
          -101 callgsubr
          112 vlineto
          126 callsubr
          -148 vlineto
          -28 -7 -17 -23 -31 47 callsubr
          52 hlineto
          37 44 2 6 43 hvcurveto
          -109 38 87 -58 102 hhcurveto
          124 callsubr
          vlineto
          endchar
        </CharString>
        <CharString name="dvG_DA">
          314 801 76 callsubr
          -943 -95 161 -211 vlineto
          -101 callgsubr
          432 51 callgsubr
          115 callsubr
          hvcurveto
          -85 callsubr
          endchar
        </CharString>
        <CharString name="dvG_DHA">
          370 972 14 callsubr
          -624 -95 161 -211 hlineto
          -101 callgsubr
          164 vlineto
          -29 callgsubr
          91 -64 123 76 69 29 48 37 vhcurveto
          -144 31 callgsubr
        </CharString>
        <CharString name="dvG_DH_VA">
          754 1356 -18 callgsubr
          -590 -95 366 -266 hlineto
          98 callsubr
          -21 3 -19 4 -18 hvcurveto
          -43 -49 -54 -22 -69 -63 callgsubr
          -650 -95 161 -211 hlineto
          -101 callgsubr
          190 vlineto
          -22 callgsubr
          97 79 32 47 57 vhcurveto
          -38 39 55 -20 58 hhcurveto
          -75 callsubr
        </CharString>
        <CharString name="dvG_DH_YA">
          771 1150 352 -105 callsubr
          -403 95 rmoveto
          -95 128 -41 callsubr
          7 -53 15 -46 22 -38 rrcurveto
          -47 -51 -56 -23 -71 -63 callgsubr
          -650 -95 161 -211 hlineto
          -101 callgsubr
          190 vlineto
          -22 callgsubr
          108 86 40 55 58 vhcurveto
          -32 41 50 -17 54 hhcurveto
          124 callsubr
          vlineto
          endchar
        </CharString>
        <CharString name="dvG_GA">
          320 922 -18 callgsubr
          -949 -95 161 -211 hlineto
          -101 callgsubr
          197 -211 vlineto
          -101 callgsubr
          135 -565 44 callgsubr
        </CharString>
        <CharString name="dvG_GHA">
          380 759 80 callgsubr
          -1009 -95 161 -211 hlineto
          -101 callgsubr
          157 vlineto
          -4 callsubr
          75 76 29 50 36 vhcurveto
          -157 31 callgsubr
        </CharString>
        <CharString name="dvG_JA">
          397 1000 -18 callgsubr
          -1027 -95 161 -211 hlineto
          -101 callgsubr
          524 -44 callgsubr
          hlineto
          endchar
        </CharString>
        <CharString name="dvG_LA">
          494 1096 -18 callgsubr
          -1123 -95 161 -211 hlineto
          -101 callgsubr
          620 -88 vlineto
          3 -12 -13 2 -13 hhcurveto
          -75 -56 -30 -67 -18 hvcurveto
          52 -12 -48 39 -80 hhcurveto
          -116 -68 -86 -125 -156 102 -108 163 -81 callsubr
        </CharString>
        <CharString name="dvG_MA">
          313 694 -21 callsubr
          221 95 rmoveto
          -942 -95 161 -211 hlineto
          -101 callgsubr
          150 -208 vlineto
          -37 callgsubr
          hlineto
          endchar
        </CharString>
        <CharString name="dvG_NA">
          9 214 callgsubr
          164 -211 vlineto
          -101 callgsubr
          135 -320 vlineto
          -235 -145 rlineto
          -39 -24 -16 -26 -30 vvcurveto
          -55 55 -50 45 -24 vhcurveto
          69 43 rlineto
          -24 22 -23 25 25 vvcurveto
          13 6 12 12 8 vhcurveto
          150 93 rlineto
          -132 190 callgsubr
        </CharString>
        <CharString name="dvG_NNA">
          513 642 33 callsubr
          473 95 rmoveto
          -1142 -95 161 -211 hlineto
          -101 callgsubr
          132 -214 vlineto
          52 callgsubr
        </CharString>
        <CharString name="dvG_N_YA">
          674 1053 352 -105 callsubr
          223 95 rmoveto
          -1303 -95 161 -211 hlineto
          -101 callgsubr
          527 vlineto
          -65 callgsubr
          -37 -26 -32 -56 -22 vhcurveto
          19 -31 -52 21 -79 hhcurveto
          -104 hlineto
          -68 -33 -35 -52 -48 17 -48 15 -25 hvcurveto
          94 hlineto
          -6 25 -4 28 18 vvcurveto
          33 10 10 23 vhcurveto
          61 hlineto
          53 26 -13 -9 12 hvcurveto
          -131 36 94 -71 110 -96 callgsubr
        </CharString>
        <CharString name="dvG_R">
          36 callsubr
          endchar
        </CharString>
        <CharString name="dvG_RA">
          18 -27 660 30 callsubr
        </CharString>
        <CharString name="dvG_R_YA">
          431 810 352 -105 callsubr
          223 95 rmoveto
          -1060 -95 173 -211 hlineto
          -101 callgsubr
          272 -41 callsubr
          3 -21 3 -19 5 -18 -381 -334 rcurveline
          158 hlineto
          271 232 rlineto
          -65 46 70 -34 76 -96 callgsubr
        </CharString>
        <CharString name="dvG_SA">
          430 621 158 callsubr
          165 -219 vlineto
          223 314 rmoveto
          -1059 -95 161 -211 hlineto
          -101 callgsubr
          276 -123 vlineto
          -100 callgsubr
          157 -251 -43 callgsubr
        </CharString>
        <CharString name="dvG_VA">
          338 940 -18 callgsubr
          -967 -95 161 -211 hlineto
          -101 callgsubr
          465 39 callsubr
        </CharString>
        <CharString name="dvG_YA">
          391 770 352 -105 callsubr
          223 95 rmoveto
          -1020 -95 161 -211 hlineto
          -101 callgsubr
          244 13 callgsubr
        </CharString>
        <CharString name="dvGx">
          -254 151 90 -103 callsubr
          197 570 rmoveto
          -375 -95 161 -211 hlineto
          -101 callgsubr
          97 vlineto
          endchar
        </CharString>
        <CharString name="dvGxA">
          6 151 90 -103 callsubr
          -178 570 rmoveto
          -95 161 -211 vlineto
          -101 callgsubr
          135 -565 190 callgsubr
        </CharString>
        <CharString name="dvGx_R">
          36 callsubr
          -102 -220 -103 callsubr
          endchar
        </CharString>
        <CharString name="dvGx_RA">
          18 312 -40 -103 callsubr
          -339 700 30 callsubr
        </CharString>
        <CharString name="dvH">
          -32 246 -105 -24 callgsubr
          -392 765 rmoveto
          -95 378 111 callsubr
          -63 45 -34 24 -14 hvcurveto
          -44 -34 -21 -46 -47 vvcurveto
          -91 81 -98 181 184 callsubr
          vhcurveto
          -76 callgsubr
          250 157 103 95 hlineto
          endchar
        </CharString>
        <CharString name="dvHA">
          -32 139 callgsubr
          -63 45 -34 24 -14 hvcurveto
          -44 -34 -21 -46 -47 vvcurveto
          -91 81 -98 181 184 callsubr
          vhcurveto
          -76 callgsubr
          endchar
        </CharString>
        <CharString name="dvHA_mU">
          -34 119 callsubr
          -14 hvcurveto
          -43 -34 -21 -47 -47 vvcurveto
          -128 103 -53 103 -3 vhcurveto
          6 9 -1 1 5 hvcurveto
          9 12 21 9 17 hhcurveto
          36 26 -19 -34 -33 -25 -28 -61 -60 -91 35 37 -56 hvcurveto
          -114 vlineto
          -34 57 82 -21 72 hhcurveto
          130 65 73 92 77 -58 63 -106 -24 -35 -10 -8 -14 hvcurveto
          -65 2 -32 33 54 vvcurveto
          44 40 41 79 53 27 -23 -34 -12 -2 -14 -8 -12 vhcurveto
          115 hlineto
          6 14 2 16 15 vvcurveto
          76 -61 70 -129 -34 -31 -4 -7 -27 vhcurveto
          -18 13 -13 19 23 167 callsubr
          endchar
        </CharString>
        <CharString name="dvHA_mUU">
          -32 119 callsubr
          -15 hvcurveto
          -43 -33 -21 -46 -46 vvcurveto
          -60 33 -57 65 -27 vhcurveto
          -22 -25 -13 -31 -34 vvcurveto
          -102 77 -46 92 13 23 2 7 18 vhcurveto
          90 vlineto
          -6 -14 -15 -2 -15 hhcurveto
          -38 -29 21 33 32 24 20 36 100 47 -97 -108 hvcurveto
          109 hlineto
          130 -56 169 -200 vhcurveto
          -78 4 -40 36 50 vvcurveto
          43 38 36 77 57 29 -25 -30 -12 -1 -22 -11 -17 vhcurveto
          115 hlineto
          9 19 1 23 15 vvcurveto
          80 -73 65 -123 -32 -28 -3 -7 -26 vhcurveto
          -19 217 callsubr
          endchar
        </CharString>
        <CharString name="dvHA_mvR">
          -23 450 137 callsubr
          129 95 -606 -95 361 -65 -134 vlineto
          -81 -61 -37 -75 -65 47 -34 24 -14 hvcurveto
          -55 -42 -26 -61 -63 vvcurveto
          -173 163 -80 168 26 25 2 5 25 vhcurveto
          88 vlineto
          -5 -22 -26 -1 -21 hhcurveto
          -151 -70 79 79 75 57 60 83 26 7 -11 -12 hvcurveto
          -27 -64 -42 -46 vvcurveto
          -62 61 -25 59 52 48 11 17 29 vhcurveto
          87 vlineto
          -17 -25 -44 -14 -34 hhcurveto
          -21 -16 4 16 hvcurveto
          29 67 44 52 vvcurveto
          53 -48 35 -83 -41 -35 -5 -9 -31 vhcurveto
          -20 217 callsubr
          endchar
        </CharString>
        <CharString name="dvH_LA">
          78 546 137 callsubr
          135 95 -708 -95 457 136 callgsubr
          -68 53 -34 22 -12 hvcurveto
          -62 -50 -27 -72 -76 vvcurveto
          -189 144 -103 182 25 31 1 4 19 vhcurveto
          89 vlineto
          -4 -16 -26 -1 -24 hhcurveto
          -140 -79 87 110 101 61 70 126 61 43 -15 -30 26 hvcurveto
          -2 hlineto
          -39 -32 -18 -35 -9 hvcurveto
          26 -7 -28 24 -45 hhcurveto
          -66 -39 -49 -71 -90 63 -54 93 10 12 1 1 7 hvcurveto
          61 vlineto
          -2 -5 -8 0 -7 hhcurveto
          -57 -32 30 52 36 13 20 22 24 11 -18 -30 hvcurveto
          -35 78 33 vlineto
          36 13 21 34 8 9 -1 -2 7 vhcurveto
          2 -12 1 -12 -14 vvcurveto
          -55 -14 -57 -17 -38 vhcurveto
          106 hlineto
          19 41 13 60 58 vvcurveto
          136 -103 97 -165 -52 -45 -7 -13 -37 vhcurveto
          -20 14 -14 20 24 205 callgsubr
        </CharString>
        <CharString name="dvH_MA">
          238 619 187 rmoveto
          -137 10 hlineto
          76 -67 56 -107 -29 -26 -3 -6 -25 vhcurveto
          -18 12 -14 19 23 167 callsubr
          224 157 155 hlineto
          221 95 rmoveto
          -867 -95 375 -65 -130 hlineto
          -80 -62 -37 -75 -63 44 -32 25 -13 hvcurveto
          -52 -41 -28 -61 -72 vvcurveto
          -174 128 -99 185 23 22 3 4 21 vhcurveto
          95 vlineto
          -3 -14 -16 -1 -28 hhcurveto
          -123 -80 66 100 81 41 59 80 47 20 -19 -26 hvcurveto
          -6 vlineto
          -27 -7 -16 -20 -30 vvcurveto
          -29 28 -47 30 -54 vhcurveto
          96 86 137 -162 115 642 106 hlineto
          endchar
        </CharString>
        <CharString name="dvH_NA">
          73 543 137 callsubr
          132 95 -702 -95 453 -65 -222 vlineto
          -80 -62 -37 -75 -69 56 -36 23 -13 hvcurveto
          -63 -43 -29 -65 -68 vvcurveto
          -176 167 -88 168 27 22 1 6 29 vhcurveto
          89 vlineto
          -5 -21 -26 -1 -24 hhcurveto
          -145 -80 81 88 80 62 62 119 30 27 -4 -9 22 hvcurveto
          -107 -49 rlineto
          -39 -18 -18 -24 -30 vvcurveto
          -48 52 -53 26 -19 vhcurveto
          74 35 rlineto
          -25 32 -15 28 15 vvcurveto
          13 8 7 12 5 vhcurveto
          103 48 rlineto
          9 -16 4 -18 -20 vvcurveto
          -26 -4 -25 -6 -17 vhcurveto
          107 hlineto
          6 19 4 32 27 vvcurveto
          118 -91 92 -171 -50 -43 -6 -11 -37 vhcurveto
          -24 16 -18 23 26 205 callgsubr
        </CharString>
        <CharString name="dvH_NNA">
          85 391 123 rmoveto
          -35 -8 -14 -27 -26 -11 14 36 vhcurveto
          108 vlineto
          1 11 12 1 13 hhcurveto
          13 12 -1 -1 11 hvcurveto
          164 176 rmoveto
          157 132 95 -714 -95 466 136 callgsubr
          -70 56 -34 21 -12 hvcurveto
          -60 -43 -30 -63 -69 vvcurveto
          -177 164 -87 171 26 28 2 6 30 vhcurveto
          89 vlineto
          -5 -22 -32 -2 -23 hhcurveto
          -151 -74 80 88 52 18 42 45 25 hvcurveto
          -85 vlineto
          -82 41 -36 72 74 41 40 79 vhcurveto
          81 vlineto
          32 -22 16 -35 -49 vvcurveto
          -24 -3 -28 -6 -16 vhcurveto
          106 hlineto
          6 20 4 32 25 vvcurveto
          136 -102 83 -159 -49 -43 -6 -11 -36 vhcurveto
          -23 14 -17 22 26 205 callgsubr
        </CharString>
        <CharString name="dvH_R">
          80 295 -233 -24 callgsubr
          141 641 -37 callsubr
        </CharString>
        <CharString name="dvH_RA">
          80 555 408 -37 callsubr
        </CharString>
        <CharString name="dvH_VA">
          70 552 137 callsubr
          120 95 -699 -95 463 136 callgsubr
          -71 56 -34 21 -11 hvcurveto
          -66 -47 -31 -70 -72 vvcurveto
          -176 140 -111 189 30 29 3 7 34 vhcurveto
          89 vlineto
          -5 -25 -27 -4 -26 hhcurveto
          -123 -104 57 127 93 64 71 111 102 45 -52 -77 9 hvcurveto
          -1 1 rlineto
          -48 -10 -42 -26 -42 hhcurveto
          -36 -20 16 29 29 23 15 24 12 12 -3 -4 10 hvcurveto
          71 vlineto
          5 -13 -20 4 -19 hhcurveto
          -75 -62 -47 -72 -73 58 -49 78 46 40 15 29 29 hvcurveto
          -4 -19 -5 -17 -6 -14 rrcurveto
          109 hlineto
          13 34 11 62 42 vvcurveto
          134 -87 110 -171 -46 -40 -6 -11 -35 vhcurveto
          -22 14 -17 22 26 167 callsubr
          endchar
        </CharString>
        <CharString name="dvH_YA">
          243 624 200 rmoveto
          -87 -58 -47 -69 -37 -31 15 24 -16 vhcurveto
          53 16 40 40 55 vvcurveto
          90 -83 37 -100 -36 -34 -5 -11 -31 vhcurveto
          -14 12 -9 16 19 167 callsubr
          235 157 146 hlineto
          221 95 rmoveto
          -872 -95 389 -65 -141 hlineto
          -80 -62 -37 -75 -58 37 -31 25 -16 hvcurveto
          -47 -39 -29 -57 -68 vvcurveto
          -180 157 -105 165 18 20 2 3 16 vhcurveto
          95 vlineto
          -2 -9 -14 -1 -10 hhcurveto
          -116 -109 73 107 90 59 51 93 37 22 -15 -26 -36 -45 -20 -65 -13 hvcurveto
          -119 20 95 -49 83 hhcurveto
          62 52 20 38 28 hvcurveto
          -109 115 642 -20 callsubr
        </CharString>
        <CharString name="dvI">
          -64 432 565 rmoveto
          106 95 -565 -95 342 -59 -67 23 callgsubr
          186 2 hlineto
          0 vlineto
          endchar
        </CharString>
        <CharString name="dvII">
          -64 425 565 rmoveto
          113 95 -136 hlineto
          -14 18 -19 35 33 vvcurveto
          36 23 28 40 33 34 -11 -14 22 vhcurveto
          108 vlineto
          15 -31 -34 5 -38 hhcurveto
          -93 -76 -56 -101 -46 19 -33 13 -17 hvcurveto
          -308 -95 335 -59 -60 23 callgsubr
          179 2 hlineto
          0 vlineto
          endchar
        </CharString>
        <CharString name="dvII_Anusvara">
          -52 442 565 rmoveto
          108 95 -134 hlineto
          -19 20 -30 41 53 84 callgsubr
          13 -27 -41 8 -35 hhcurveto
          -110 -78 -75 -101 -61 23 -47 28 -34 hvcurveto
          -325 -95 352 -58 -82 hlineto
          -91 -88 -44 -101 -83 70 -57 90 -4 hvcurveto
          88 6 rlineto
          37 -4 19 -24 -31 vvcurveto
          -46 -36 -29 -44 -57 -46 37 49 -18 vhcurveto
          -108 -243 116 102 hlineto
          -22 34 43 -12 47 hhcurveto
          108 77 66 97 89 -53 60 -106 5 hvcurveto
          -88 -4 rlineto
          -34 1 -20 21 28 vvcurveto
          35 32 13 31 vhcurveto
          196 hlineto
          -1 3 rlineto
          1 hlineto
          -25 349 83 callgsubr
        </CharString>
        <CharString name="dvJ">
          -154 448 -18 callgsubr
          -475 -95 475 hlineto
          116 -106 rmoveto
          -473 -97 hlineto
          -103 callgsubr
          270 hlineto
          endchar
        </CharString>
        <CharString name="dvJA">
          80 214 callgsubr
          485 -44 callgsubr
          95 hlineto
          endchar
        </CharString>
        <CharString name="dvJH">
          -43 672 329 rmoveto
          -393 0 -13 hlineto
          -54 2 -29 8 31 vvcurveto
          33 29 11 45 vhcurveto
          179 2 hlineto
          0 vlineto
          149 123 95 -586 -95 346 -56 -68 vlineto
          -104 -83 -44 -100 -107 93 -26 104 -2 hvcurveto
          -28 callgsubr
          209 hlineto
          endchar
        </CharString>
        <CharString name="dvJHA">
          198 279 40 callgsubr
          224 331 rmoveto
          -827 -95 346 -56 -68 hlineto
          -104 -83 -44 -100 -107 93 -26 104 -2 hvcurveto
          -28 callgsubr
          113 -238 112 callgsubr
        </CharString>
        <CharString name="dvJH_MA">
          550 931 -21 callsubr
          -495 -151 rmoveto
          2 vlineto
          0 vlineto
          149 202 -208 vlineto
          -18 -5 -14 -9 -6 -14 rrcurveto
          -321 0 -13 hlineto
          -54 2 -29 8 31 vvcurveto
          33 29 11 45 vhcurveto
          895 246 rmoveto
          -1179 -95 346 -56 -68 hlineto
          -104 -83 -44 -100 -107 93 -26 104 -2 hvcurveto
          -28 callgsubr
          148 hlineto
          3 -8 4 -9 4 -9 32 -71 rcurveline
          81 callgsubr
        </CharString>
        <CharString name="dvJH_NA">
          312 291 335 rmoveto
          0 -5 vlineto
          -58 3 -27 10 29 vvcurveto
          28 26 13 48 vhcurveto
          202 147 216 -230 hlineto
          221 325 rmoveto
          -941 -95 388 -55 -91 hlineto
          -106 -82 -40 -99 -102 97 -30 102 -2 hvcurveto
          62 -2 34 -18 -46 vvcurveto
          -42 -33 -23 -45 -53 -49 36 51 -23 vhcurveto
          -108 -236 116 96 hlineto
          -23 36 45 -14 48 hhcurveto
          107 75 64 96 26 -4 22 -8 20 hvcurveto
          212 -36 hlineto
          -218 -193 rlineto
          -32 -28 -13 -29 -28 vvcurveto
          -47 40 -44 51 -24 vhcurveto
          66 40 rlineto
          -25 23 -19 23 23 vvcurveto
          12 5 11 14 14 vhcurveto
          131 132 rlineto
          -93 115 -81 callgsubr
        </CharString>
        <CharString name="dvJH_R">
          45 723 247 rmoveto
          82 -453 vlineto
          151 callgsubr
          200 95 -674 -95 357 -55 -75 vlineto
          46 callsubr
          239 hlineto
          -392 -359 rlineto
          157 hlineto
          313 292 rlineto
          endchar
        </CharString>
        <CharString name="dvJH_RA">
          292 270 329 rmoveto
          151 callgsubr
          223 -236 vlineto
          224 331 rmoveto
          -921 -95 357 -55 -75 hlineto
          46 callsubr
          203 -34 hlineto
          -356 -325 rlineto
          157 hlineto
          199 200 rlineto
          -79 -90 callsubr
        </CharString>
        <CharString name="dvJH_YA">
          601 973 55 callsubr
          -46 29 56 -15 vhcurveto
          77 25 60 71 78 vvcurveto
          32 -8 34 -15 24 vhcurveto
          152 hlineto
          -697 -236 rmoveto
          -10 hlineto
          -54 2 -29 10 31 vvcurveto
          32 31 10 43 vhcurveto
          179 2 hlineto
          0 vlineto
          149 262 vlineto
          17 -17 13 -28 -32 vvcurveto
          -105 -142 -45 -183 -6 vhcurveto
          -2 -19 -88 -1 -20 hhcurveto
          920 331 rmoveto
          -1223 -95 346 -56 -68 hlineto
          -104 -83 -43 -100 -107 90 -27 107 -2 hvcurveto
          49 callsubr
          -53 -48 35 51 -24 vhcurveto
          -107 -233 116 94 hlineto
          -23 35 44 -14 49 132 callgsubr
          28 -5 24 -10 21 hvcurveto
          51 2 45 5 40 10 rrcurveto
          -99 42 85 -48 96 -96 callgsubr
        </CharString>
        <CharString name="dvJ_BA">
          478 793 192 -61 callsubr
          -1107 -95 883 89 callgsubr
          -59 -50 -17 -29 -38 hvcurveto
          -459 -97 hlineto
          -103 callgsubr
          187 hlineto
          -7 -22 -4 -25 -25 67 callgsubr
        </CharString>
        <CharString name="dvJ_DA">
          416 903 76 callsubr
          -1042 -95 809 -78 -84 vlineto
          -53 -44 -10 -18 -36 hvcurveto
          -474 -97 hlineto
          -103 callgsubr
          178 hlineto
          -10 -26 -6 -29 -31 vvcurveto
          115 callsubr
          vhcurveto
          -85 callsubr
          endchar
        </CharString>
        <CharString name="dvJ_DDA">
          408 874 184 callgsubr
          -1037 -95 784 -59 -80 hlineto
          -52 -53 -15 -32 -34 hvcurveto
          -447 -97 hlineto
          -103 callgsubr
          204 -1 hlineto
          -108 95 -34 105 -2 vhcurveto
          81 -1 34 -12 -42 186 callgsubr
          -25 47 68 -23 91 hhcurveto
          141 83 94 callgsubr
          -42 9 39 vvcurveto
          35 31 13 33 vhcurveto
          67 callsubr
          endchar
        </CharString>
        <CharString name="dvJ_JA">
          480 1083 -18 callgsubr
          -1110 -95 885 -106 -767 -97 hlineto
          -103 callgsubr
          197 hlineto
          -35 callgsubr
          hlineto
          endchar
        </CharString>
        <CharString name="dvJ_JHA">
          633 714 40 callgsubr
          224 331 rmoveto
          -1262 -95 781 -56 -68 hlineto
          -62 -55 -16 -34 -34 hvcurveto
          -444 -97 hlineto
          -103 callgsubr
          205 hlineto
          2 -104 92 -26 103 -2 rrcurveto
          -28 callgsubr
          113 -238 112 callgsubr
        </CharString>
        <CharString name="dvJ_J_NYA">
          629 1237 -18 callgsubr
          -1264 -95 1034 -65 -319 hlineto
          -53 -51 -12 -29 -35 hvcurveto
          -458 -97 hlineto
          -103 callgsubr
          211 hlineto
          -88 68 -45 124 69 38 -16 -45 -44 -34 -27 -48 -57 -50 42 47 -18 vhcurveto
          61 callgsubr
          hlineto
          endchar
        </CharString>
        <CharString name="dvJ_J_VA">
          837 1439 -18 callgsubr
          -1466 -95 1242 -266 hlineto
          -104 callgsubr
          -48 -42 -12 -22 -34 hvcurveto
          -858 -97 hlineto
          -103 callgsubr
          204 hlineto
          -103 callgsubr
          171 hlineto
          -8 -23 -4 -25 -26 -68 callsubr
        </CharString>
        <CharString name="dvJ_J_YA">
          874 1253 137 callgsubr
          -68 -43 34 61 -24 vhcurveto
          73 21 68 51 96 callgsubr
          151 198 callgsubr
          -1503 -95 1006 hlineto
          17 -19 12 -27 -35 vvcurveto
          -40 -28 -30 -50 -20 vhcurveto
          37 -36 -64 28 -92 hhcurveto
          -647 -97 hlineto
          -103 callgsubr
          204 hlineto
          96 -2 52 -40 -67 vvcurveto
          179 callsubr
          vhcurveto
          125 callgsubr
          54 -20 45 -44 28 hvcurveto
          40 hlineto
          198 -83 -249 251 64 callsubr
        </CharString>
        <CharString name="dvJ_KA">
          646 1248 199 callsubr
          -1275 -95 791 -287 vlineto
          88 callsubr
          -34 45 53 60 39 42 61 6 6 0 -1 6 vhcurveto
          95 vlineto
          1 -8 -7 0 -8 hhcurveto
          -33 -30 -6 -10 -27 hvcurveto
          -493 -97 hlineto
          -103 callgsubr
          185 hlineto
          -12 -25 -6 -29 -32 vvcurveto
          -111 77 -79 116 47 36 17 25 27 vhcurveto
          -89 callsubr
        </CharString>
        <CharString name="dvJ_MA">
          446 827 -21 callsubr
          221 95 rmoveto
          -1075 -95 561 -106 -443 -97 hlineto
          -103 callgsubr
          240 -5 hlineto
          -37 callgsubr
          hlineto
          endchar
        </CharString>
        <CharString name="dvJ_NA">
          77 214 callgsubr
          482 -106 -367 -97 vlineto
          100 55 -40 -62 -63 -44 -25 -67 -39 -34 9 17 -32 hvcurveto
          -104 vlineto
          -15 38 46 -7 42 hhcurveto
          113 89 68 102 54 -24 41 -42 25 hvcurveto
          166 -198 hlineto
          -203 -119 rlineto
          -39 -24 -15 -28 -29 vvcurveto
          -55 53 -48 46 -24 vhcurveto
          69 43 rlineto
          -25 22 -21 23 25 vvcurveto
          14 6 13 13 8 vhcurveto
          116 74 rlineto
          -59 118 -25 callsubr
        </CharString>
        <CharString name="dvJ_NY">
          -42 560 -18 callgsubr
          -590 -95 590 hlineto
          141 -174 rmoveto
          95 -450 vlineto
          37 callgsubr
          endchar
        </CharString>
        <CharString name="dvJ_NYA">
          169 -30 -18 callgsubr
          -95 600 -65 -319 vlineto
          -94 -89 -39 -99 -88 68 -45 124 69 38 -16 -45 -44 -34 -27 -48 -57 -50 42 47 -18 hvcurveto
          61 callgsubr
          95 hlineto
          endchar
        </CharString>
        <CharString name="dvJ_NY_YA">
          568 947 60 callgsubr
          -78 -35 34 58 -24 vhcurveto
          77 25 66 50 94 42 callgsubr
          198 callgsubr
          -1200 -95 702 35 callsubr
          -38 -28 -28 -45 -21 vhcurveto
          56 -44 -67 35 -111 hhcurveto
          -156 hlineto
          37 callgsubr
          135 hlineto
          250 -121 -278 272 -96 callgsubr
        </CharString>
        <CharString name="dvJ_R">
          204 callgsubr
          -409 -665 rmoveto
          152 hlineto
          351 302 -65 74 rlineto
          -445 183 rmoveto
          -14 callsubr
          331 97 hlineto
          endchar
        </CharString>
        <CharString name="dvJ_RA">
          83 214 callgsubr
          488 -106 -368 -14 callsubr
          163 -153 hlineto
          -361 -309 rlineto
          152 hlineto
          209 180 rlineto
          -80 118 -25 callsubr
        </CharString>
        <CharString name="dvJ_TA">
          452 1054 -18 callgsubr
          -1081 -95 858 -99 -86 hlineto
          -5 0 -649 -97 hlineto
          100 55 -39 -69 -63 -44 -33 -67 -39 -34 10 16 -32 hvcurveto
          -104 vlineto
          -14 38 46 -7 42 hhcurveto
          120 82 67 110 55 -21 44 -43 27 hvcurveto
          223 hlineto
          -25 -37 -12 -45 -50 vvcurveto
          -80 callgsubr
        </CharString>
        <CharString name="dvJ_TTA">
          352 852 565 rmoveto
          102 95 -981 -95 763 -96 -16 hlineto
          -28 -1 -26 -3 -24 -6 rrcurveto
          -551 -97 hlineto
          -103 callgsubr
          205 hlineto
          -22 -34 -11 -39 -43 -57 callgsubr
        </CharString>
        <CharString name="dvJ_VA">
          444 1046 -18 callgsubr
          -1073 -95 849 -266 hlineto
          -104 callgsubr
          -48 -42 -12 -22 -34 hvcurveto
          -465 -97 hlineto
          -103 callgsubr
          185 hlineto
          -8 -23 -4 -25 -26 -68 callsubr
        </CharString>
        <CharString name="dvJ_YA">
          460 -27 565 -36 callgsubr
        </CharString>
        <CharString name="dvJx">
          -140 448 -18 callgsubr
          -475 -95 475 hlineto
          -282 -581 -103 callsubr
          398 475 rmoveto
          -473 -97 hlineto
          -103 callgsubr
          270 hlineto
          endchar
        </CharString>
        <CharString name="dvJxA">
          80 166 -16 -103 callsubr
          -193 676 rmoveto
          -95 485 -44 callgsubr
          95 hlineto
          endchar
        </CharString>
        <CharString name="dvJx_JxA">
          481 166 -16 -103 callsubr
          400 hmoveto
          -37 -30 -30 -38 -37 30 -30 37 38 30 30 37 38 -30 30 -38 hvcurveto
          517 676 rmoveto
          -1110 -95 885 -106 -767 -97 hlineto
          -103 callgsubr
          197 hlineto
          -35 callgsubr
          hlineto
          endchar
        </CharString>
        <CharString name="dvJx_R">
          204 callgsubr
          11 -565 -103 callsubr
          -420 -100 rmoveto
          152 hlineto
          351 302 -65 74 rlineto
          -445 183 rmoveto
          -14 callsubr
          331 97 hlineto
          endchar
        </CharString>
        <CharString name="dvJx_RA">
          83 415 -60 -103 callsubr
          -442 720 rmoveto
          -95 488 -106 -368 -14 callsubr
          163 -153 hlineto
          -361 -309 rlineto
          152 hlineto
          209 180 rlineto
          -80 118 -25 callsubr
        </CharString>
        <CharString name="dvJx_YA">
          460 108 -84 rmoveto
          -37 30 -30 37 38 30 30 37 38 -30 30 -38 -37 -30 -30 -38 vhcurveto
          -135 649 -36 callgsubr
        </CharString>
        <CharString name="dvK">
          -39 456 565 rmoveto
          107 95 -590 -95 365 -287 hlineto
          -106 callsubr
          51 40 37 callsubr
        </CharString>
        <CharString name="dvKA">
          220 822 199 callsubr
          -849 -95 365 -15 callgsubr
        </CharString>
        <CharString name="dvKH">
          36 540 301 rmoveto
          -100 callsubr
          120 333 95 -665 172 callsubr
          vlineto
          -67 callsubr
          180 140 113 160 115 -77 84 -129 -59 callgsubr
          endchar
        </CharString>
        <CharString name="dvKHA">
          243 845 -18 callgsubr
          -872 -95 236 -123 hlineto
          -51 -29 -33 -74 vhcurveto
          -72 -93 hlineto
          -70 callsubr
        </CharString>
        <CharString name="dvKH_KHA">
          816 1194 12 callsubr
          -654 -264 rmoveto
          -100 callsubr
          120 462 -97 vlineto
          -52 -12 -24 -43 -3 vhcurveto
          67 -30 -66 44 -93 hhcurveto
          -59 callgsubr
          878 441 rmoveto
          -1445 172 callsubr
          hlineto
          -67 callsubr
          127 107 56 89 52 hvcurveto
          -88 65 95 -57 124 hhcurveto
          86 75 29 50 54 hvcurveto
          -107 -90 callsubr
        </CharString>
        <CharString name="dvKH_MA">
          625 1006 -21 callsubr
          -466 -264 rmoveto
          -100 callsubr
          120 408 -180 vlineto
          70 -29 -66 45 -95 hhcurveto
          -59 callgsubr
          687 441 rmoveto
          -1254 172 callsubr
          hlineto
          -67 callsubr
          136 113 65 100 47 hvcurveto
          24 -52 rlineto
          81 callgsubr
        </CharString>
        <CharString name="dvKH_NA">
          238 616 12 callsubr
          224 95 rmoveto
          -867 172 callsubr
          hlineto
          -57 -14 -23 87 callgsubr
          43 -117 78 -94 113 -38 -95 -36 rcurveline
          -53 -16 -20 -30 -37 vvcurveto
          -48 35 -52 33 -30 vhcurveto
          79 24 rlineto
          -16 29 -15 32 22 vvcurveto
          16 8 11 17 7 vhcurveto
          271 115 rlineto
          0 vlineto
          32 13 29 19 24 22 rrcurveto
          -107 -90 callsubr
        </CharString>
        <CharString name="dvKH_R">
          12 535 308 -23 callgsubr
        </CharString>
        <CharString name="dvKH_RA">
          232 610 475 -30 callsubr
        </CharString>
        <CharString name="dvKH_SHA">
          781 848 440 -58 callsubr
        </CharString>
        <CharString name="dvKH_TA">
          601 980 466 -51 callgsubr
        </CharString>
        <CharString name="dvKH_VA">
          600 978 299 rmoveto
          -104 callgsubr
          -64 -53 -22 -36 -37 hvcurveto
          41 -35 -55 24 -69 hhcurveto
          -59 callgsubr
          82 vlineto
          -100 callsubr
          120 673 118 callsubr
          -1229 172 callsubr
          hlineto
          -67 callsubr
          114 98 45 74 57 hvcurveto
          -39 38 56 -20 59 hhcurveto
          -75 callsubr
        </CharString>
        <CharString name="dvKH_YA">
          641 1020 352 -105 callsubr
          -480 -264 rmoveto
          -100 callsubr
          120 440 vlineto
          -65 callgsubr
          -34 -21 -29 -46 -22 vhcurveto
          63 -32 -64 40 -89 hhcurveto
          -59 callgsubr
          703 441 rmoveto
          -1270 172 callsubr
          hlineto
          -67 callsubr
          131 110 60 94 50 hvcurveto
          -45 45 58 -24 64 -96 callgsubr
        </CharString>
        <CharString name="dvKHx">
          36 97 39 -103 callsubr
          443 262 rmoveto
          -100 callsubr
          120 333 95 -665 172 callsubr
          vlineto
          -67 callsubr
          180 140 113 160 115 -77 84 -129 -59 callgsubr
          endchar
        </CharString>
        <CharString name="dvKHxA">
          243 87 16 -103 callsubr
          758 644 rmoveto
          -872 -95 236 -123 hlineto
          -51 -29 -33 -74 vhcurveto
          -72 -93 hlineto
          -70 callsubr
        </CharString>
        <CharString name="dvKHx_MA">
          625 97 39 -103 callsubr
          909 324 rmoveto
          -177 202 177 hlineto
          -466 -264 rmoveto
          -100 callsubr
          120 408 -180 vlineto
          70 -29 -66 45 -95 hhcurveto
          -59 callgsubr
          687 441 rmoveto
          -1254 172 callsubr
          hlineto
          -67 callsubr
          136 113 65 100 47 hvcurveto
          24 -52 rlineto
          81 callgsubr
        </CharString>
        <CharString name="dvKHx_R">
          12 560 -49 -103 callsubr
          -25 357 -23 callgsubr
        </CharString>
        <CharString name="dvKHx_RA">
          232 532 -45 -103 callsubr
          78 520 -30 callsubr
        </CharString>
        <CharString name="dvKHx_SA">
          714 97 39 -103 callsubr
          808 307 rmoveto
          -74 callsubr
          165 -219 vlineto
          -788 219 rmoveto
          506 -123 hlineto
          -50 -22 -32 -67 -2 vhcurveto
          85 -21 -71 57 -107 hhcurveto
          -59 callgsubr
          82 vlineto
          -100 callsubr
          1011 215 rmoveto
          -1343 172 callsubr
          hlineto
          -67 callsubr
          136 113 64 100 47 hvcurveto
          134 -192 -91 callsubr
          157 -251 -43 callgsubr
        </CharString>
        <CharString name="dvKHx_SHA">
          781 97 39 -103 callsubr
          751 401 -58 callsubr
        </CharString>
        <CharString name="dvKHx_TA">
          601 97 39 -103 callsubr
          883 427 -51 callgsubr
        </CharString>
        <CharString name="dvKHx_VA">
          600 97 39 -103 callsubr
          881 260 rmoveto
          -104 callgsubr
          -64 -53 -22 -36 -37 hvcurveto
          41 -35 -55 24 -69 hhcurveto
          -59 callgsubr
          82 vlineto
          -100 callsubr
          120 673 118 callsubr
          -1229 172 callsubr
          hlineto
          -67 callsubr
          114 98 45 74 57 hvcurveto
          -39 38 56 -20 59 hhcurveto
          -75 callsubr
        </CharString>
        <CharString name="dvKHx_YA">
          641 97 39 -103 callsubr
          923 313 -105 callsubr
          -480 -264 rmoveto
          -100 callsubr
          120 440 vlineto
          -65 callgsubr
          -34 -21 -29 -46 -22 vhcurveto
          63 -32 -64 40 -89 hhcurveto
          -59 callgsubr
          703 441 rmoveto
          -1270 172 callsubr
          hlineto
          -67 callsubr
          131 110 60 94 50 hvcurveto
          -45 45 58 -24 64 -96 callgsubr
        </CharString>
        <CharString name="dvK_CA">
          636 1016 309 rmoveto
          -53 -50 -83 -104 -62 -41 29 53 62 54 37 124 vhcurveto
          97 -267 vlineto
          20 -27 -33 14 -47 hhcurveto
          -47 -35 -16 -23 -25 hvcurveto
          119 560 vlineto
          113 callgsubr
          -1266 -95 365 -287 hlineto
          -92 callsubr
          32 40 50 38 20 -17 -20 15 vhcurveto
          97 hlineto
          -35 -20 -27 -35 -58 vvcurveto
          -92 74 -70 115 95 57 39 42 29 vhcurveto
          -160 31 callgsubr
        </CharString>
        <CharString name="dvK_DA">
          522 456 565 rmoveto
          416 -59 -80 hlineto
          -50 -49 -13 -28 -34 hvcurveto
          13 -26 -32 7 -35 59 callsubr
          532 123 rmoveto
          136 95 -1151 -95 365 -287 hlineto
          -106 callsubr
          51 29 22 -10 -17 15 vhcurveto
          -3 vlineto
          106 callsubr
          vhcurveto
          -90 callgsubr
        </CharString>
        <CharString name="dvK_JA">
          617 703 429 rmoveto
          32 -29 -48 24 -61 hhcurveto
          -46 -37 -17 -25 -26 hvcurveto
          122 539 -136 vlineto
          224 231 rmoveto
          -1246 -95 365 -287 hlineto
          -106 callsubr
          48 46 28 -26 -32 9 vhcurveto
          -1 vlineto
          103 49 -37 -59 -52 -40 -26 -67 -39 -35 10 16 -32 hvcurveto
          -104 vlineto
          -13 35 44 -9 50 hhcurveto
          107 89 53 110 51 -21 37 -41 23 hvcurveto
          166 -332 -86 callsubr
          107 hlineto
          endchar
        </CharString>
        <CharString name="dvK_KA">
          762 880 108 callgsubr
          -40 -36 -8 -16 -32 hvcurveto
          22 -31 -39 12 -46 hhcurveto
          -52 callsubr
          424 vlineto
          484 hmoveto
          95 -1391 -95 365 -287 vlineto
          -106 callsubr
          51 22 18 -6 -10 14 vhcurveto
          -15 -28 -9 -33 -38 vvcurveto
          -111 77 -79 116 47 36 17 25 27 vhcurveto
          -89 callsubr
        </CharString>
        <CharString name="dvK_KHA">
          835 801 442 rmoveto
          -43 -21 -31 -52 -8 vhcurveto
          70 -18 -52 54 -95 hhcurveto
          -46 -35 -17 -24 -26 hvcurveto
          122 345 vlineto
          636 95 rmoveto
          -1464 -95 365 -287 hlineto
          -107 callgsubr
          57 38 40 49 57 25 -44 -49 vhcurveto
          1 -32 hlineto
          -70 callsubr
        </CharString>
        <CharString name="dvK_LA">
          742 1119 477 rmoveto
          -46 callgsubr
          -41 -34 -11 -19 -28 hvcurveto
          25 -32 -42 14 -49 hhcurveto
          -52 callsubr
          663 vlineto
          225 95 rmoveto
          -1371 -95 365 -287 hlineto
          -106 callsubr
          51 35 25 -15 -23 14 vhcurveto
          -8 -26 -5 -30 -32 vvcurveto
          41 callgsubr
          vhcurveto
          -97 callgsubr
        </CharString>
        <CharString name="dvK_MA">
          569 950 352 -42 callgsubr
        </CharString>
        <CharString name="dvK_NA">
          233 836 199 callsubr
          -863 -95 379 -280 vlineto
          88 callsubr
          -33 40 53 60 38 40 62 5 6 0 -1 6 vhcurveto
          95 vlineto
          1 -8 -7 0 -8 hhcurveto
          -120 -92 -73 -124 -87 46 -64 75 -24 hvcurveto
          -58 -40 rlineto
          -35 -24 -13 -26 -26 vvcurveto
          -55 59 -52 51 -23 vhcurveto
          65 50 rlineto
          -26 25 -30 29 26 vvcurveto
          9 5 10 11 9 vhcurveto
          134 104 -1 1 7 4 6 5 6 6 rlinecurve
          -135 56 callgsubr
          41 40 50 60 34 -45 -53 -60 -38 -42 -62 -6 -6 0 1 -5 209 callsubr
          92 179 callgsubr
          -46 -37 -18 -25 -27 hvcurveto
          123 vlineto
          endchar
        </CharString>
        <CharString name="dvK_NNA">
          754 883 33 callsubr
          -427 hmoveto
          168 -87 hlineto
          4 -18 -19 3 -21 59 callsubr
          900 218 rmoveto
          -1383 -95 365 -287 hlineto
          -106 callsubr
          51 37 26 -17 -26 14 vhcurveto
          -125 1 65 -60 119 hhcurveto
          119 71 65 125 hvcurveto
          212 134 -565 31 callgsubr
        </CharString>
        <CharString name="dvK_PA">
          550 928 378 -57 callsubr
          194 190 vlineto
          -472 hmoveto
          164 -86 hlineto
          4 -17 -18 2 -19 59 callsubr
          696 218 rmoveto
          -1179 -95 365 -287 hlineto
          -106 callsubr
          51 34 25 -15 -22 15 vhcurveto
          -127 6 70 -54 108 -13 callgsubr
        </CharString>
        <CharString name="dvK_PHA">
          806 928 5 callsubr
          -472 hmoveto
          164 -86 hlineto
          4 -17 -18 2 -19 59 callsubr
          952 123 rmoveto
          95 -1435 -95 365 -287 vlineto
          -106 callsubr
          51 34 25 -15 -22 14 vhcurveto
          -128 7 69 -52 109 hhcurveto
          2 callgsubr
          hvcurveto
          -101 callsubr
        </CharString>
        <CharString name="dvK_P_RA">
          550 928 -31 callsubr
          -472 hmoveto
          164 -86 hlineto
          4 -17 -18 2 -19 59 callsubr
          696 218 rmoveto
          -1179 -95 365 -287 hlineto
          -106 callsubr
          51 35 25 -15 -24 15 vhcurveto
          8 -92 45 -49 69 -16 -33 callsubr
        </CharString>
        <CharString name="dvK_R">
          -10 469 565 rmoveto
          123 95 -619 -95 378 -287 hlineto
          -63 callsubr
          41 37 callsubr
        </CharString>
        <CharString name="dvK_RA">
          232 834 199 callsubr
          -861 -95 378 -287 vlineto
          -58 -40 -40 -51 -60 -34 45 53 60 39 42 61 6 6 0 -1 6 vhcurveto
          95 vlineto
          1 -8 -8 0 -7 hhcurveto
          -120 -93 -75 -124 -93 55 -70 85 -19 hvcurveto
          -127 -139 rlineto
          -36 callsubr
        </CharString>
        <CharString name="dvK_SA">
          691 882 158 callsubr
          165 -219 vlineto
          -614 10 callsubr
          837 218 rmoveto
          -1320 -49 callsubr
          -186 260 161 callgsubr
          157 -251 -43 callgsubr
        </CharString>
        <CharString name="dvK_SHA">
          707 640 495 rmoveto
          4 -18 -20 3 -22 hhcurveto
          -54 -41 -19 -28 -29 hvcurveto
          110 101 95 -584 -95 365 -287 vlineto
          -107 callsubr
          300 vlineto
          70 6 54 38 62 hhcurveto
          29 26 -9 -12 20 hvcurveto
          126 hlineto
          -20 32 -10 40 28 vvcurveto
          40 20 39 43 47 20 -44 -56 -85 -42 -66 -101 191 callgsubr
          197 -216 149 callgsubr
          -209 220 rlineto
          124 103 80 158 113 -61 93 -123 -110 -61 -76 -82 hvcurveto
          439 154 rmoveto
          -660 118 -25 callsubr
        </CharString>
        <CharString name="dvK_SS">
          -24 276 572 -54 callgsubr
          391 -255 rmoveto
          91 -260 vlineto
          -97 callsubr
          endchar
        </CharString>
        <CharString name="dvK_SSA">
          203 276 572 -54 callgsubr
          305 88 rmoveto
          -252 -174 vlineto
          -97 callsubr
          228 -317 118 143 callgsubr
        </CharString>
        <CharString name="dvK_SS_MA">
          537 918 -21 callsubr
          -642 7 -54 callgsubr
          229 88 rmoveto
          -95 120 -157 -218 vlineto
          -97 callsubr
          228 hlineto
          -1 -4 0 -5 -5 -16 callgsubr
          95 hlineto
          endchar
        </CharString>
        <CharString name="dvK_SS_M_YA">
          912 1291 -73 callsubr
          -516 206 -54 callgsubr
          226 88 rmoveto
          -95 120 -157 -215 vlineto
          -97 callsubr
          226 hlineto
          -1 -5 -1 -6 -6 vvcurveto
          -24 11 -28 17 -39 vhcurveto
          32 -71 rlineto
          104 callgsubr
          95 vlineto
          endchar
        </CharString>
        <CharString name="dvK_SS_VA">
          535 276 572 -54 callgsubr
          861 88 rmoveto
          -621 -95 397 -266 hlineto
          -104 callgsubr
          -79 -61 -33 -52 -37 hvcurveto
          -187 hlineto
          -97 callsubr
          206 hlineto
          -1 -9 -1 -10 -10 -68 callsubr
        </CharString>
        <CharString name="dvK_SS_YA">
          551 930 60 callgsubr
          -76 -41 40 64 -18 vhcurveto
          83 21 58 53 83 vvcurveto
          35 -10 32 -13 21 vhcurveto
          152 hlineto
          -654 7 rmoveto
          43 27 -32 -36 -49 -33 -26 -40 -17 hvcurveto
          -44 22 -24 32 37 117 callgsubr
          238 88 rmoveto
          -95 141 vlineto
          16 -15 14 -28 -29 vvcurveto
          -90 -115 -24 -120 -29 -27 2 3 -24 vhcurveto
          48 25 39 38 70 vvcurveto
          92 -73 59 -111 -112 -68 -77 -85 -53 22 -46 40 -36 vhcurveto
          -64 -28 -60 -49 -88 vvcurveto
          -103 76 -66 112 60 54 23 34 24 vhcurveto
          -94 116 220 -113 vlineto
          -48 -16 -43 -37 -62 hhcurveto
          -53 -35 29 49 48 40 36 52 24 hvcurveto
          -22 56 70 -11 81 hhcurveto
          35 29 1 3 30 hvcurveto
          -108 31 85 -71 117 hhcurveto
          124 callsubr
          vlineto
          endchar
        </CharString>
        <CharString name="dvK_S_DDA">
          499 276 572 -54 callgsubr
          689 -7 105 callsubr
          -76 -73 -30 -68 -23 hvcurveto
          -190 hlineto
          -97 callsubr
          242 hlineto
          23 -74 82 -24 88 -2 rrcurveto
          -90 callgsubr
        </CharString>
        <CharString name="dvK_S_P_LA">
          1506 1884 477 rmoveto
          -46 callgsubr
          -101 -65 -65 -100 -15 hvcurveto
          -27 -28 -36 -17 -42 84 callsubr
          194 700 vlineto
          -1002 -219 rmoveto
          -74 callsubr
          161 -190 vlineto
          -10 0 -10 1 -9 vhcurveto
          -611 10 callsubr
          1653 218 rmoveto
          -2136 -49 callsubr
          -186 260 161 callgsubr
          179 hlineto
          -54 30 55 -25 75 hhcurveto
          48 43 12 21 35 hvcurveto
          -123 23 96 -81 141 -82 callsubr
        </CharString>
        <CharString name="dvK_S_P_RA">
          1026 1404 -31 callsubr
          -522 -219 rmoveto
          -74 callsubr
          191 -177 vlineto
          -15 1 -14 1 -13 vhcurveto
          -642 10 callsubr
          1172 218 rmoveto
          -1655 -49 callsubr
          -185 260 rlineto
          -5 35 46 -4 60 hhcurveto
          219 hlineto
          21 -29 30 -18 37 -9 -33 callsubr
        </CharString>
        <CharString name="dvK_S_TA">
          543 276 572 -54 callgsubr
          869 88 rmoveto
          -618 -95 395 -99 -86 hlineto
          -85 -64 -21 -37 -43 hvcurveto
          -237 hlineto
          -97 callsubr
          229 hlineto
          -8 -25 -4 -26 -29 vvcurveto
          -80 callgsubr
        </CharString>
        <CharString name="dvK_S_TTA">
          463 276 572 -54 callgsubr
          687 -7 rmoveto
          102 95 -531 -95 313 -96 -16 hlineto
          -76 -1 -61 -23 -43 -37 rrcurveto
          -244 hlineto
          -97 callsubr
          234 hlineto
          -7 -22 -4 -24 -25 -57 callgsubr
        </CharString>
        <CharString name="dvK_TA">
          355 957 199 callsubr
          -984 -95 470 -102 -387 -95 69 vlineto
          29 hlineto
          -37 -35 -19 -48 -61 vvcurveto
          -140 94 -83 157 callsubr
          -6 -8 0 -5 hhcurveto
          -76 -44 48 78 89 53 50 110 hvcurveto
          64 -368 118 260 hlineto
          64 44 44 63 77 37 -64 -71 -81 -34 -54 -71 -8 -12 1 2 -9 vhcurveto
          -96 vlineto
          -2 12 15 -2 14 hhcurveto
          133 79 94 138 124 -71 105 -144 -56 -41 -16 -27 -28 hvcurveto
          146 vlineto
          endchar
        </CharString>
        <CharString name="dvK_THA">
          687 1065 -18 callgsubr
          95 callgsubr
          -76 -39 30 61 -25 vhcurveto
          142 40 91 70 108 vvcurveto
          55 callgsubr
          -20 4 -15 3 -11 vhcurveto
          110 hlineto
          -2 9 -3 10 16 vvcurveto
          32 16 27 37 36 16 -27 -34 -61 -55 -38 -110 -33 vhcurveto
          58 -29 -46 45 -79 hhcurveto
          -45 -35 -16 -23 -26 hvcurveto
          123 118 95 -601 -95 365 -287 vlineto
          49 callgsubr
          37 35 51 vhcurveto
          126 -67 -290 286 27 callsubr
          vlineto
          endchar
        </CharString>
        <CharString name="dvK_TTA">
          484 456 565 rmoveto
          412 -96 -16 hlineto
          -58 -1 -49 -14 -39 -22 rrcurveto
          34 -34 -48 19 -58 59 callsubr
          528 123 rmoveto
          102 95 -1113 -95 365 -287 hlineto
          -106 callsubr
          51 36 26 -15 -25 15 vhcurveto
          -17 -31 -9 -36 -38 -57 callgsubr
        </CharString>
        <CharString name="dvK_T_RA">
          577 963 398 rmoveto
          52 -47 -64 28 -75 hhcurveto
          -43 -44 -12 -16 -34 hvcurveto
          20 -24 -31 13 -42 hhcurveto
          -43 -34 -17 -23 -26 hvcurveto
          122 507 118 callsubr
          -1214 -95 365 -287 hlineto
          -92 callsubr
          39 38 45 45 25 -29 -35 14 vhcurveto
          25 32 56 27 60 hhcurveto
          64 -2 50 -29 33 -44 -288 -174 rcurveline
          60 -89 272 167 rlineto
          -206 -90 callsubr
        </CharString>
        <CharString name="dvK_T_VA">
          911 1283 299 rmoveto
          -104 callgsubr
          -43 -37 -10 -17 -32 hvcurveto
          -176 hlineto
          -61 -50 -11 -20 -40 hvcurveto
          31 -33 -47 19 -55 hhcurveto
          -47 -37 -18 -25 -27 hvcurveto
          123 827 118 callsubr
          -1534 -95 365 -287 hlineto
          49 callgsubr
          40 39 51 32 24 -13 -19 16 vhcurveto
          -21 -35 -10 -41 -46 vvcurveto
          -9 callgsubr
          vhcurveto
          -65 callsubr
          84 hlineto
          -10 -25 -5 -27 -29 -68 callsubr
        </CharString>
        <CharString name="dvK_T_YA">
          961 1341 352 -105 callsubr
          -492 -99 rmoveto
          -59 -49 -12 -22 -38 hvcurveto
          33 -32 -47 20 -58 hhcurveto
          -52 callsubr
          610 vlineto
          83 callsubr
          -55 31 -75 hhcurveto
          700 194 rmoveto
          -1591 -95 365 -287 hlineto
          -106 callsubr
          51 38 26 -18 -26 14 vhcurveto
          -15 -32 -8 -37 -41 vvcurveto
          -136 75 -100 146 13 12 1 1 11 163 callgsubr
          17 hlineto
          45 24 -27 -35 15 hvcurveto
          -126 38 92 -68 108 -96 callgsubr
        </CharString>
        <CharString name="dvK_VA">
          569 947 299 rmoveto
          -104 callgsubr
          -51 -44 -14 -24 -34 hvcurveto
          19 -30 -37 11 -43 hhcurveto
          -52 callsubr
          491 vlineto
          224 95 29 callgsubr
          58 40 40 51 25 21 -8 -14 14 vhcurveto
          -10 -24 -5 -28 -29 -68 callsubr
        </CharString>
        <CharString name="dvK_V_YA">
          917 1296 352 -105 callsubr
          -430 -80 rmoveto
          5 -19 2 callsubr
          -49 -43 -13 -22 -34 hvcurveto
          17 -29 -36 10 -41 hhcurveto
          -52 callsubr
          565 -41 callsubr
          7 -55 16 -46 22 -38 rrcurveto
          -31 -30 -37 -20 -51 177 callsubr
          653 277 rmoveto
          -1546 -95 365 -287 hlineto
          -106 callsubr
          51 23 18 -6 -11 14 vhcurveto
          -11 -26 -6 -29 -31 vvcurveto
          183 callgsubr
          82 63 32 45 44 vhcurveto
          -34 42 51 -18 55 -96 callgsubr
        </CharString>
        <CharString name="dvK_YA">
          641 1023 -35 callsubr
          -1273 -95 365 -287 hlineto
          49 callgsubr
          37 33 49 vhcurveto
          139 -81 -272 268 hhcurveto
          71 59 30 36 25 -89 callgsubr
          vlineto
          endchar
        </CharString>
        <CharString name="dvKx">
          -11 167 20 -103 callsubr
          289 545 rmoveto
          107 95 -590 -95 365 -287 hlineto
          -106 callsubr
          51 40 37 callsubr
        </CharString>
        <CharString name="dvKxA">
          220 167 20 -103 callsubr
          655 545 rmoveto
          95 -849 -95 365 -15 callgsubr
        </CharString>
        <CharString name="dvKx_BA">
          618 167 20 -103 callsubr
          829 277 rmoveto
          -71 callsubr
          -64 -53 -20 -33 -39 hvcurveto
          21 -30 -40 12 -45 hhcurveto
          -52 callsubr
          540 vlineto
          -63 -373 -61 callsubr
          -1247 -95 365 -287 hlineto
          -106 callsubr
          51 33 25 -14 -21 14 vhcurveto
          -6 -21 -3 -22 -23 67 callgsubr
        </CharString>
        <CharString name="dvKx_KxA">
          762 167 20 -103 callsubr
          542 hmoveto
          -37 -30 -30 -38 -37 30 -30 37 38 30 30 37 38 -30 30 -38 hvcurveto
          171 258 rmoveto
          88 callsubr
          -34 45 53 60 39 42 61 6 6 0 -1 6 vhcurveto
          95 vlineto
          1 -8 -7 0 -8 hhcurveto
          -40 -36 -8 -16 -32 hvcurveto
          22 -31 -39 12 -46 hhcurveto
          -52 callsubr
          424 vlineto
          484 hmoveto
          95 -1391 -95 365 -287 vlineto
          -106 callsubr
          51 22 18 -6 -10 14 vhcurveto
          -15 -28 -9 -33 -38 vvcurveto
          -111 77 -79 116 47 36 17 25 27 vhcurveto
          -89 callsubr
        </CharString>
        <CharString name="dvKx_MA">
          569 167 20 -103 callsubr
          783 332 -42 callgsubr
        </CharString>
        <CharString name="dvKx_PHA">
          806 167 20 -103 callsubr
          761 358 -39 callgsubr
          -472 hmoveto
          164 -86 hlineto
          4 -17 -18 2 -19 59 callsubr
          952 123 rmoveto
          95 -1435 -95 365 -287 vlineto
          -106 callsubr
          51 34 25 -15 -22 14 vhcurveto
          -128 7 69 -52 109 hhcurveto
          2 callgsubr
          hvcurveto
          -101 callsubr
        </CharString>
        <CharString name="dvKx_PHxA">
          806 167 20 -103 callsubr
          533 70 -103 callsubr
          228 288 -39 callgsubr
          -472 hmoveto
          164 -86 hlineto
          4 -17 -18 2 -19 59 callsubr
          952 123 rmoveto
          95 -1435 -95 365 -287 vlineto
          -106 callsubr
          51 34 25 -15 -22 14 vhcurveto
          -128 7 69 -52 109 hhcurveto
          2 callgsubr
          hvcurveto
          -101 callsubr
        </CharString>
        <CharString name="dvKx_R">
          -10 304 -63 -103 callsubr
          165 628 rmoveto
          123 95 -619 -95 378 -287 hlineto
          -63 callsubr
          41 37 callsubr
        </CharString>
        <CharString name="dvKx_RA">
          232 303 -44 -103 callsubr
          531 609 rmoveto
          95 -861 -95 378 -287 vlineto
          -58 -40 -40 -51 -60 -34 45 53 60 39 42 61 6 6 0 -1 6 vhcurveto
          95 vlineto
          1 -8 -8 0 -7 hhcurveto
          -120 -93 -75 -124 -93 55 -70 85 -19 hvcurveto
          -127 -139 rlineto
          -36 callsubr
        </CharString>
        <CharString name="dvKx_TA">
          576 167 20 -103 callsubr
          787 446 rmoveto
          166 callsubr
          33 -34 -47 145 callgsubr
          123 498 vlineto
          113 callgsubr
          -1204 -95 365 -287 hlineto
          -106 callsubr
          51 38 26 -17 -27 16 vhcurveto
          -16 -32 -8 -37 -41 vvcurveto
          -80 callgsubr
        </CharString>
        <CharString name="dvL">
          -74 358 100 rmoveto
          -83 callsubr
          63 37 32 -25 -20 12 vhcurveto
          59 69 rlineto
          40 -31 -46 29 -69 hhcurveto
          -74 -56 -30 -67 77 callgsubr
          -116 78 callgsubr
          41 callgsubr
          hvcurveto
          -385 561 rmoveto
          555 95 -555 hlineto
          endchar
        </CharString>
        <CharString name="dvLA">
          176 778 -18 callgsubr
          -805 -95 580 -88 hlineto
          3 -12 -13 2 -13 hhcurveto
          -75 -56 -30 -67 -18 hvcurveto
          52 -12 -48 39 -80 hhcurveto
          -116 -68 -86 -125 -156 102 -108 163 -81 callsubr
        </CharString>
        <CharString name="dvLL">
          226 554 89 rmoveto
          119 92 77 121 117 -88 79 -125 82 callsubr
          -4 300 rmoveto
          60 36 -41 -61 -61 -36 -43 -58 -43 -41 26 28 -26 hvcurveto
          63 15 17 89 76 hhcurveto
          -302 -206 rmoveto
          11 callgsubr
          -275 382 rmoveto
          855 95 -855 hlineto
          endchar
        </CharString>
        <CharString name="dvLLA">
          -11 callsubr
          -32 35 51 -32 78 hhcurveto
          119 92 77 121 95 -59 71 -89 22 hvcurveto
          90 vlineto
          endchar
        </CharString>
        <CharString name="dvLL_R">
          226 442 237 rmoveto
          63 15 17 89 76 hhcurveto
          60 36 -41 -61 -61 -36 -43 -58 -43 -41 26 28 -26 hvcurveto
          -194 -54 rmoveto
          11 callgsubr
          66 -239 rmoveto
          127 callsubr
          117 -88 79 -125 -76 -41 -25 -34 -32 vhcurveto
          -5 callgsubr
          17 -16 22 -16 26 -12 rrcurveto
          -482 551 rmoveto
          -95 855 95 vlineto
          endchar
        </CharString>
        <CharString name="dvLL_RA">
          -11 callsubr
          17 -16 22 -16 26 -12 -141 -165 rcurveline
          127 callsubr
          95 -59 71 -89 22 vhcurveto
          90 vlineto
          endchar
        </CharString>
        <CharString name="dvLL_YA">
          656 1035 352 -105 callsubr
          -483 -382 rmoveto
          -43 -41 26 28 -26 hvcurveto
          63 15 17 89 76 hhcurveto
          43 31 -21 -34 14 hvcurveto
          2 -10 2 -9 3 -9 rrcurveto
          1 -6 0 -7 -6 vvcurveto
          -61 -36 -43 -58 vhcurveto
          -304 hmoveto
          11 callgsubr
          1010 477 rmoveto
          -1285 -95 787 35 callsubr
          -32 -19 -28 -41 -21 vhcurveto
          51 -37 -63 31 -78 hhcurveto
          82 callsubr
          74 63 29 52 38 hvcurveto
          -38 42 54 -19 57 -96 callgsubr
        </CharString>
        <CharString name="dvL_BA">
          559 874 192 -61 callsubr
          -1188 -95 964 89 callgsubr
          -64 -54 -20 -34 -39 hvcurveto
          19 -28 -35 12 -44 hhcurveto
          -74 -56 -30 -67 -18 -106 callgsubr
          67 vlineto
          78 32 33 63 17 17 -6 -7 13 vhcurveto
          -10 -26 -6 -29 -31 67 callgsubr
        </CharString>
        <CharString name="dvL_BHA">
          501 884 -18 callgsubr
          -294 -170 195 callsubr
          -599 -95 575 118 callgsubr
          -40 vlineto
          8 -25 -26 5 -26 hhcurveto
          -81 -56 -36 -61 -18 -106 callgsubr
          67 vlineto
          74 39 37 60 30 25 -5 -12 19 vhcurveto
          -11 vlineto
          -27 -7 -18 -23 -31 vvcurveto
          -24 10 -27 17 66 callsubr
          170 -272 91 callgsubr
        </CharString>
        <CharString name="dvL_DA">
          515 1002 76 callsubr
          -1144 -95 911 -78 -84 vlineto
          -70 -55 -18 -29 -40 hvcurveto
          25 -29 -40 17 -52 hhcurveto
          -74 -56 -30 -67 -18 -106 callgsubr
          67 vlineto
          78 32 33 63 22 20 -9 -11 15 vhcurveto
          -12 -28 -7 -31 -34 vvcurveto
          115 callsubr
          vhcurveto
          -85 callsubr
          endchar
        </CharString>
        <CharString name="dvL_DDA">
          479 945 184 callgsubr
          -1108 -95 856 -59 -80 hlineto
          -53 -53 -15 -33 -34 hvcurveto
          15 -25 -32 9 -38 hhcurveto
          -74 -56 -30 -67 -18 -106 callgsubr
          67 vlineto
          78 32 33 63 19 17 -6 -9 14 vhcurveto
          -4 0 -5 -4 vvcurveto
          106 callsubr
          vhcurveto
          -90 callgsubr
        </CharString>
        <CharString name="dvL_DDHA">
          489 955 184 callgsubr
          -1118 -95 865 -86 -23 hlineto
          -67 -1 -60 -15 -47 -29 rrcurveto
          29 -30 -41 19 -56 hhcurveto
          -74 -56 -30 -67 -18 -106 callgsubr
          67 vlineto
          78 32 33 63 21 19 -8 -11 16 vhcurveto
          -22 -33 -12 -41 -48 vvcurveto
          -135 107 -99 153 138 82 70 96 1 callgsubr
        </CharString>
        <CharString name="dvL_D_RA">
          497 985 76 callsubr
          -1127 -95 894 -78 -84 vlineto
          -65 -52 -15 -26 -39 hvcurveto
          22 -28 -37 14 -48 hhcurveto
          -74 -56 -30 -67 -18 -106 callgsubr
          67 vlineto
          78 32 33 63 16 16 -5 -7 13 vhcurveto
          -16 -30 -8 -34 -37 vvcurveto
          -100 59 -78 96 -24 vhcurveto
          80 callsubr
          endchar
        </CharString>
        <CharString name="dvL_GA">
          488 1090 -18 callgsubr
          -1117 -95 643 -107 hlineto
          15 -27 -33 9 -39 hhcurveto
          -74 -59 -30 -67 -18 -106 callgsubr
          67 vlineto
          78 35 33 63 37 38 -25 -20 12 vhcurveto
          6 7 rlineto
          -29 -1 -13 -21 -36 hhcurveto
          -29 -25 13 0 hvcurveto
          -95 vlineto
          -10 28 24 -4 31 hhcurveto
          80 58 44 95 hvcurveto
          221 135 -565 44 callgsubr
        </CharString>
        <CharString name="dvL_HA">
          466 965 137 callsubr
          103 95 -1095 -95 876 -65 -156 vlineto
          -43 -37 -10 -21 -26 hvcurveto
          8 -21 -24 5 -28 hhcurveto
          -74 -56 -30 -67 -18 -106 callgsubr
          67 vlineto
          78 32 33 63 11 10 -2 -4 10 vhcurveto
          2 -60 44 -32 23 -14 rrcurveto
          -44 -34 -21 -46 -47 vvcurveto
          -91 81 -98 181 184 callsubr
          vhcurveto
          -76 callgsubr
          endchar
        </CharString>
        <CharString name="dvL_JA">
          569 1172 660 -40 callsubr
        </CharString>
        <CharString name="dvL_JxA">
          569 655 -16 -103 callsubr
          517 676 -40 callsubr
        </CharString>
        <CharString name="dvL_KA">
          728 1330 199 callsubr
          -1357 -95 873 -287 vlineto
          88 callsubr
          -34 45 53 60 39 42 61 6 6 0 -1 6 vhcurveto
          95 vlineto
          1 -8 -7 0 -8 hhcurveto
          -47 -42 -11 -22 -35 hvcurveto
          24 -29 -38 16 -51 hhcurveto
          -74 -56 -30 -67 -18 -106 callgsubr
          67 vlineto
          78 32 33 63 17 17 -6 -7 13 vhcurveto
          -15 -29 -9 -33 -38 vvcurveto
          -111 77 -79 116 47 36 17 25 27 vhcurveto
          -89 callsubr
        </CharString>
        <CharString name="dvL_KHA">
          774 1380 -18 callgsubr
          -1407 -95 771 -123 hlineto
          -44 -22 -31 -54 -7 vhcurveto
          71 -17 -57 51 -85 hhcurveto
          -74 -54 -38 -59 -15 hvcurveto
          58 -15 -50 33 -75 -105 callgsubr
          25 -30 callgsubr
          67 vlineto
          70 24 41 50 51 19 -41 -52 vhcurveto
          -31 vlineto
          -70 callsubr
        </CharString>
        <CharString name="dvL_K_YA">
          1152 1531 -35 callsubr
          -1781 -95 873 -287 hlineto
          88 callsubr
          -34 45 53 60 39 42 61 6 6 0 -1 6 vhcurveto
          95 vlineto
          1 -8 -7 0 -8 hhcurveto
          -47 -42 -11 -22 -35 hvcurveto
          24 -29 -38 16 -51 hhcurveto
          -74 -56 -30 -67 -18 -106 callgsubr
          67 vlineto
          78 32 33 63 17 17 -6 -7 13 vhcurveto
          -15 -29 -9 -33 -38 vvcurveto
          -111 77 -79 116 47 36 17 25 27 vhcurveto
          15 callsubr
        </CharString>
        <CharString name="dvL_LA">
          674 1276 -18 callgsubr
          -1303 -95 1078 151 callsubr
          -39 -34 -10 -17 -27 hvcurveto
          20 -28 -36 13 -46 hhcurveto
          -74 -56 -30 -67 -18 -106 callgsubr
          67 vlineto
          78 32 33 63 16 14 -4 -7 13 vhcurveto
          -15 -32 -8 -38 -43 vvcurveto
          41 callgsubr
          vhcurveto
          -97 callgsubr
        </CharString>
</ttFont>
